<?xml version="1.0" encoding="UTF-8"?> <svg xmlns="http://www.w3.org/2000/svg" width="24" height="25" viewBox="0 0 24 25" fill="none"><path fill-rule="evenodd" clip-rule="evenodd" d="M2.96054 11.5735C8.58212 9.31422 12.3245 7.81297 14.2037 7.08464C19.5522 5.01857 20.6766 4.66184 21.3993 4.64697C21.56 4.64697 21.9133 4.6767 22.1542 4.85507C22.347 5.00371 22.3952 5.19694 22.4273 5.34557C22.4594 5.49421 22.4915 5.80635 22.4594 6.04417C22.1703 8.8683 20.9175 15.7205 20.275 18.8717C20.002 20.2094 19.4719 20.6553 18.958 20.6999C17.8336 20.7891 16.9824 20.0162 15.9062 19.3622C14.2037 18.3366 13.2561 17.6974 11.6017 16.6867C9.69038 15.5273 10.9271 14.8882 12.0193 13.8477C12.3084 13.5801 17.2394 9.41826 17.3357 9.04667C17.3518 9.00208 17.3518 8.82371 17.2394 8.73453C17.1269 8.64534 16.9663 8.67507 16.8378 8.7048C16.6611 8.73453 13.9628 10.3993 8.71062 13.6842C7.93966 14.1747 7.249 14.4125 6.6226 14.3976C5.93195 14.3828 4.61489 14.0409 3.61907 13.7436C2.41444 13.3869 1.45074 13.1937 1.53105 12.5694C1.57923 12.2424 2.06108 11.9154 2.96054 11.5735Z" stroke="#0F1600" stroke-width="1.5"></path></svg> 