<?xml version="1.0" encoding="UTF-8"?> <svg xmlns="http://www.w3.org/2000/svg" width="147" height="34" viewBox="0 0 147 34" fill="none"><path fill-rule="evenodd" clip-rule="evenodd" d="M35.8044 4.4969H23.5522C23.5522 4.4969 33.6634 4.4928 6 4.4928L6.00013 10.8869C6.00058 10.8851 6.00218 10.8838 6.00407 10.8838H27.5015C27.5017 10.8838 27.502 10.8839 27.5022 10.8839H35.8046C41.452 10.8839 45.7641 10.9102 49.0598 11.3036C52.4241 11.7053 54.0243 12.4254 54.8271 13.2282C56.9461 15.3472 57.3171 18.6842 54.827 21.1743C54.1035 21.8978 53.5015 22.2835 52.8712 22.533C52.202 22.7978 51.3235 22.9791 49.9416 23.0632C48.5387 23.1485 46.807 23.126 44.4491 23.0746L43.5311 23.0541C42.1873 23.0237 40.6823 22.9899 38.9981 22.9688V14.0774H32.6111V29.3353L35.8046 29.3353C38.7613 29.3353 41.2399 29.3911 43.3823 29.4394L44.3097 29.4601C46.6206 29.5105 48.6182 29.5425 50.3293 29.4384C52.0615 29.3331 53.6821 29.0809 55.2213 28.4719C56.7994 27.8474 58.1151 26.9187 59.3433 25.6906C64.6595 20.3744 63.6114 12.9798 59.3432 8.71181C56.9524 6.32107 53.5004 5.40141 49.817 4.96166C46.0649 4.5137 41.3336 4.4969 35.8044 4.4969ZM24.2013 15.2233H6.00407C6.00228 15.2233 6.00077 15.2222 6.00022 15.2206L6.00051 29.3353H12.5891V20.9707H27.5056V15.2234L24.2013 15.2233Z" fill="#9BD32E"></path><path d="M129.212 16.5685C129.384 16.623 129.587 16.664 129.819 16.6913C130.055 16.7186 130.317 16.7323 130.604 16.7323C131.483 16.7323 132.212 16.5457 132.795 16.1727C133.382 15.7997 133.861 15.2606 134.235 14.5554L138.759 6.38708H136.146L133.975 10.3109C133.884 10.4837 133.806 10.6612 133.743 10.8431C133.684 11.0251 133.625 11.2321 133.566 11.4641H133.538C133.474 11.2321 133.406 11.0228 133.333 10.8363C133.265 10.6498 133.186 10.4746 133.095 10.3109L130.986 6.38708H128.031L132.14 13.6478H132.378C132.119 14.2074 131.834 14.544 131.525 14.6577C131.221 14.776 130.84 14.8351 130.385 14.8351C130.199 14.8351 129.999 14.8193 129.785 14.7874C129.576 14.7601 129.393 14.7283 129.24 14.6918L129.212 16.5685Z" fill="black"></path><path d="M72.0078 29.9398H76.4911C78.238 29.9398 79.7075 29.5143 80.8994 28.6637C82.0913 27.8129 82.6872 26.6142 82.6872 25.0674V24.8763C82.6872 23.325 82.089 22.1263 80.8925 21.2801C79.7007 20.4294 78.2335 20.004 76.4911 20.004H72.0078V29.9398ZM74.8056 27.9471V22.0035H76.4434C77.4305 22.0035 78.2358 22.2354 78.859 22.6995C79.4868 23.159 79.8008 23.8664 79.8008 24.8218V25.122C79.8008 26.0773 79.4868 26.787 78.859 27.2511C78.2358 27.7151 77.4305 27.9471 76.4434 27.9471H74.8056Z" fill="black"></path><path d="M84.0973 29.9397H86.8338V22.5902H84.0973V29.9397ZM83.9062 20.7887C83.9062 21.18 84.0405 21.5098 84.3089 21.7782C84.5773 22.0466 84.9618 22.1809 85.4621 22.1809C85.9625 22.1809 86.347 22.0489 86.6154 21.7851C86.8883 21.5167 87.0249 21.1845 87.0249 20.7887C87.0249 20.3975 86.8906 20.07 86.6222 19.8061C86.3538 19.5377 85.9672 19.4034 85.4621 19.4034C84.9618 19.4034 84.5773 19.5377 84.3089 19.8061C84.0405 20.07 83.9062 20.3975 83.9062 20.7887Z" fill="black"></path><path d="M88.4453 29.9396H91.1817V25.852C91.3636 25.5199 91.6503 25.2493 92.0415 25.0399C92.4328 24.8262 92.8763 24.7192 93.3722 24.7192C93.5132 24.7192 93.6406 24.726 93.7542 24.7397C93.8725 24.7488 93.9931 24.7647 94.1159 24.7875V22.4878C94.0568 22.4696 93.9636 22.4514 93.8362 22.4332C93.7088 22.4105 93.5791 22.399 93.4472 22.399C92.9514 22.399 92.5009 22.5128 92.0961 22.7402C91.6958 22.9633 91.3819 23.2293 91.1543 23.5387L91.0998 22.5901H88.4453V29.9396Z" fill="black"></path><path d="M94.6641 26.3708C94.6641 27.5171 95.1418 28.4339 96.0971 29.1208C97.057 29.8078 98.3604 30.1512 100.007 30.1512C101.044 30.1512 101.957 30.017 102.744 29.7486C103.535 29.4756 104.088 29.0866 104.402 28.5817L102.471 27.3124C102.23 27.5536 101.891 27.772 101.454 27.9676C101.022 28.1587 100.526 28.2541 99.9663 28.2541C99.1156 28.2541 98.4582 28.104 97.9941 27.8038C97.5301 27.5035 97.2981 27.0736 97.2981 26.514V26.0023C97.2981 25.42 97.512 24.9764 97.9396 24.6715C98.3718 24.3668 98.945 24.2144 99.6592 24.2144C100.546 24.2144 101.154 24.3395 101.481 24.5897C101.813 24.8399 101.979 25.1288 101.979 25.4563V25.4222H96.4998V26.9712H104.654V26.0364C104.654 24.8899 104.218 23.996 103.344 23.3546C102.475 22.7085 101.292 22.3855 99.7957 22.3855C98.3126 22.3855 97.0866 22.729 96.1176 23.416C95.1486 24.0984 94.6641 25.0105 94.6641 26.1524V26.3708Z" fill="black"></path><path d="M105.375 26.3708C105.375 27.5536 105.862 28.4794 106.835 29.1481C107.809 29.8123 109.08 30.1443 110.649 30.1443C112.16 30.1443 113.33 29.8623 114.157 29.2982C114.99 28.7341 115.406 28.0677 115.406 27.2989V27.1691H112.725V27.2852C112.725 27.5354 112.56 27.756 112.233 27.9471C111.91 28.1337 111.373 28.2268 110.623 28.2268C109.808 28.2268 109.196 28.0835 108.787 27.797C108.378 27.5103 108.173 27.0873 108.173 26.5277V26.0023C108.173 25.4427 108.382 25.0195 108.801 24.733C109.224 24.4464 109.831 24.3031 110.623 24.3031C111.318 24.3031 111.842 24.3873 112.192 24.5556C112.543 24.7193 112.72 24.9422 112.725 25.2243V25.3608H115.413L115.399 25.1629C115.336 24.3895 114.906 23.7344 114.11 23.1976C113.314 22.6562 112.16 22.3855 110.649 22.3855C109.075 22.3855 107.802 22.7177 106.828 23.3819C105.859 24.0415 105.375 24.965 105.375 26.1524V26.3708Z" fill="black"></path><path d="M115.641 24.5214H121.933V22.5902H115.641V24.5214ZM117.183 27.4353C117.183 28.3679 117.468 29.0526 118.036 29.4892C118.609 29.9214 119.36 30.1375 120.289 30.1375C120.565 30.1375 120.827 30.1171 121.073 30.0761C121.323 30.0352 121.51 29.9874 121.632 29.9328V28.0971C121.514 28.1336 121.387 28.1654 121.25 28.1927C121.118 28.2199 120.986 28.2336 120.855 28.2336C120.568 28.2336 120.336 28.1745 120.159 28.0562C119.985 27.9334 119.9 27.7082 119.9 27.3806V21.0685H117.19V23.3682L117.183 23.5661V27.4353Z" fill="black"></path><path d="M122.484 26.3709C122.484 27.5401 122.981 28.4613 123.973 29.1346C124.968 29.8079 126.252 30.1445 127.821 30.1445C129.386 30.1445 130.665 29.8079 131.656 29.1346C132.647 28.4613 133.144 27.5401 133.144 26.3709V26.1525C133.144 24.9833 132.647 24.0644 131.656 23.3957C130.665 22.7223 129.383 22.3856 127.814 22.3856C126.249 22.3856 124.968 22.7223 123.973 23.3957C122.981 24.0644 122.484 24.9833 122.484 26.1525V26.3709ZM125.283 26.0024C125.283 25.4065 125.507 24.9856 125.958 24.7399C126.412 24.4942 127.032 24.3714 127.814 24.3714C128.592 24.3714 129.209 24.4942 129.663 24.7399C130.118 24.9856 130.346 25.4065 130.346 26.0024V26.521C130.346 27.1216 130.123 27.5446 129.677 27.7903C129.231 28.0359 128.61 28.1588 127.814 28.1588C127.022 28.1588 126.402 28.0359 125.951 27.7903C125.505 27.5446 125.283 27.1238 125.283 26.5278V26.0024Z" fill="black"></path><path d="M134.398 29.9396H137.134V25.852C137.316 25.5199 137.603 25.2493 137.994 25.0399C138.386 24.8262 138.829 24.7192 139.325 24.7192C139.467 24.7192 139.594 24.726 139.707 24.7397C139.825 24.7488 139.946 24.7647 140.068 24.7875V22.4878C140.009 22.4696 139.917 22.4514 139.789 22.4332C139.662 22.4105 139.532 22.399 139.401 22.399C138.904 22.399 138.454 22.5128 138.049 22.7402C137.648 22.9633 137.335 23.2293 137.108 23.5387L137.052 22.5901H134.398V29.9396Z" fill="black"></path><path d="M92.6641 10.3588C92.6641 11.5416 93.1508 12.4674 94.1243 13.1361C95.0983 13.8003 96.3691 14.1324 97.9385 14.1324C99.4489 14.1324 100.619 13.8503 101.446 13.2862C102.279 12.7221 102.695 12.0557 102.695 11.2869V11.1571H100.014V11.2732C100.014 11.5235 99.8493 11.744 99.5218 11.9351C99.1989 12.1217 98.6619 12.2149 97.9119 12.2149C97.0971 12.2149 96.4849 12.0716 96.0763 11.785C95.6666 11.4983 95.4617 11.0753 95.4617 10.5157V9.9903C95.4617 9.43071 95.6712 9.00758 96.0902 8.72101C96.5126 8.43445 97.1203 8.29117 97.9119 8.29117C98.6075 8.29117 99.1306 8.37531 99.4813 8.54359C99.8319 8.70736 100.009 8.93027 100.014 9.21232V9.34888H102.702L102.688 9.15098C102.625 8.37751 102.195 7.72244 101.399 7.18566C100.603 6.64424 99.4489 6.37354 97.9385 6.37354C96.3645 6.37354 95.0914 6.7057 94.1175 7.36991C93.1485 8.02949 92.6641 8.95307 92.6641 10.1404V10.3588Z" fill="black"></path><path d="M102.93 8.50952H109.222V6.57834H102.93V8.50952ZM104.472 11.4234C104.472 12.356 104.757 13.0407 105.325 13.4774C105.898 13.9095 106.649 14.1256 107.578 14.1256C107.854 14.1256 108.116 14.1053 108.362 14.0643C108.612 14.0233 108.799 13.9755 108.921 13.921V12.0853C108.803 12.1218 108.676 12.1536 108.539 12.1809C108.407 12.2081 108.276 12.2218 108.144 12.2218C107.857 12.2218 107.625 12.1626 107.448 12.0443C107.274 11.9215 107.189 11.6963 107.189 11.3688V5.05664H104.479V7.35632L104.472 7.55423V11.4234Z" fill="black"></path><path d="M109.781 10.3588C109.781 11.528 110.278 12.4492 111.27 13.1225C112.265 13.7958 113.548 14.1324 115.118 14.1324C116.683 14.1324 117.961 13.7958 118.953 13.1225C119.944 12.4492 120.441 11.528 120.441 10.3588V10.1404C120.441 8.97124 119.944 8.05229 118.953 7.38357C117.961 6.71021 116.68 6.37354 115.111 6.37354C113.546 6.37354 112.265 6.71021 111.27 7.38357C110.278 8.05229 109.781 8.97124 109.781 10.1404L109.781 10.3588ZM112.58 9.9903C112.58 9.39437 112.804 8.97355 113.254 8.72784C113.709 8.48214 114.329 8.35934 115.111 8.35934C115.889 8.35934 116.506 8.48214 116.96 8.72784C117.415 8.97355 117.643 9.39437 117.643 9.9903V10.5089C117.643 11.1095 117.42 11.5325 116.974 11.7782C116.528 12.0238 115.907 12.1467 115.111 12.1467C114.319 12.1467 113.699 12.0238 113.248 11.7782C112.802 11.5325 112.58 11.1117 112.58 10.5157V9.9903Z" fill="black"></path><path d="M121.695 13.9277H124.431V9.84008C124.613 9.50791 124.9 9.23732 125.291 9.02796C125.682 8.81419 126.126 8.70725 126.622 8.70725C126.763 8.70725 126.891 8.71408 127.004 8.72774C127.122 8.73688 127.243 8.75274 127.365 8.77554V6.47585C127.306 6.45768 127.214 6.4394 127.086 6.42123C126.959 6.39854 126.829 6.38708 126.697 6.38708C126.201 6.38708 125.751 6.50085 125.346 6.72828C124.945 6.9513 124.632 7.21738 124.405 7.52674L124.349 6.57817H121.695V13.9277Z" fill="black"></path><path fill-rule="evenodd" clip-rule="evenodd" d="M82.8924 8.515C82.9554 7.90782 83.1581 6.90246 84.7138 6.31457C85.3696 6.06675 86.3897 5.9357 87.2494 5.93571C87.8712 5.92601 89.3713 6.02315 90.1057 6.31457C91.0238 6.67885 91.8835 7.45124 91.9564 8.515C92.0147 9.366 91.9807 12.4835 91.9564 13.9359H89.1731V12.9013C88.8525 13.3093 87.71 14.1253 85.7049 14.1253C83.1984 14.1253 82.4844 12.8284 82.4844 11.6917C82.4844 10.5551 83.5626 9.3601 85.4279 9.22895C86.8471 9.12916 88.3656 9.23242 89.0708 9.28038C89.1071 9.28284 89.1412 9.28516 89.1731 9.2873V8.6024C89.1343 8.27695 88.7098 7.62605 87.3224 7.62605C85.935 7.62605 85.4813 8.21868 85.4279 8.515H82.8924ZM89.1159 10.7069C88.7337 10.6754 87.8792 10.6173 87.5182 10.6374C87.4934 10.6387 87.4643 10.6401 87.4313 10.6417C86.863 10.6685 85.1574 10.7489 85.2285 11.8072C85.2887 12.7031 86.6631 12.732 87.3428 12.6345C88.4542 12.4173 89.1159 11.6485 89.1159 11.6485C89.1159 11.6485 89.2101 10.7979 89.1159 10.7069Z" fill="black"></path><path d="M71.9453 13.9831V3.84888H82.1161V5.90511H75.0662V8.03476H81.6388V10.1277H75.0662V13.9831H71.9453Z" fill="black"></path></svg> 