<?xml version="1.0" encoding="UTF-8"?> <svg xmlns="http://www.w3.org/2000/svg" width="593" height="120" viewBox="0 0 593 120" fill="none"><path d="M433.329 1.83939L352.493 109.578M433.329 1.83939L290.401 61.8394M433.329 1.83939L582.18 41.8394M433.329 1.83939L501.344 109.578M420.508 187.316L501.344 109.578M582.18 41.8394L501.344 109.578M582.18 41.8394L729.902 31.8394L649.066 109.578M582.18 41.8394L649.066 109.578M290.401 61.8394L209.565 109.578M290.401 61.8394L147.485 41.8393M290.401 61.8394L352.493 109.578M147.485 41.8393L-14.1874 187.316L352.493 109.578M147.485 41.8393L209.565 109.578M147.485 41.8393L-14.1874 85.7385M209.565 109.578L128.729 187.316L501.344 109.578M352.493 109.578L271.657 187.317L649.066 109.578M568.23 187.317L649.066 109.578" stroke="white"></path></svg> 