<?xml version="1.0" encoding="UTF-8"?> <svg xmlns="http://www.w3.org/2000/svg" width="1200" height="640" viewBox="0 0 1200 640" fill="none"><rect width="1200" height="640" fill="#CDE997"></rect><path d="M348.965 91V70.168H355.489V77.756H369.489V70.168H376.013V91H369.489V82.796H355.489V91H348.965ZM395.815 82.488L391.783 74.676L387.919 82.488H395.815ZM400.183 91L398.223 87.192H385.595L383.719 91H377.083L387.611 70.168H396.067L407.211 91H400.183ZM414.764 91H406.728L417.088 80.472L406.952 70.168H415.688L421.568 76.272L427.448 70.168H435.456L425.46 80.332L435.68 91H427.476L421.092 84.532L414.764 91ZM448.412 69.804H449.616C462.72 69.804 464.26 76.384 464.26 80.108V80.948C464.26 84.616 462.748 91.364 449.616 91.364H448.412C435.224 91.364 433.74 84.616 433.74 80.948V80.108C433.74 76.384 435.224 69.804 448.412 69.804ZM457.428 80.696V80.304C457.428 77.924 456.056 74.844 449 74.844C441.832 74.844 440.572 77.924 440.572 80.304V80.64C440.572 83.02 441.944 86.296 449 86.296C456 86.296 457.428 83.104 457.428 80.696ZM463.859 85.96H466.519C467.555 83.804 467.723 79.156 467.723 70.168H490.235V85.96H493.595V94.5H487.351V91H470.103V94.5H463.859V85.96ZM472.399 85.96H483.711V75.208H473.491C473.491 79.464 473.295 83.944 472.399 85.96ZM515.75 91V77.252L501.778 91H495.254V70.168H501.778V83.972L515.75 70.168H522.274V91H515.75ZM525.389 91V70.168H534.657L541.853 83.132L549.077 70.168H558.009V91H551.569V76.58L543.365 91H539.865L531.661 76.58V91H525.389ZM593.879 70.168L584.303 86.184C582.231 89.684 581.391 91 577.387 91H573.299V85.96H576.967C577.555 85.96 577.695 85.764 577.695 85.512V85.484C577.695 85.148 577.499 84.868 577.247 84.504L567.418 70.168H574.979L581.447 80.276L587.327 70.168H593.879ZM620.258 84.56V84.84C620.258 88.284 617.85 91.252 607.658 91.252H606.146C598.698 91.252 593.266 89.208 593.266 83.468V83.16H600.126C600.126 85.54 602.506 86.632 607.182 86.632C611.774 86.632 613.538 85.848 613.538 84.476V84.392C613.538 83.02 611.802 82.488 608.358 82.488H602.17V77.98H608.33C611.606 77.98 613.006 77.532 613.006 76.44V76.356C613.006 75.236 611.494 74.564 607.014 74.564C603.458 74.564 600.21 75.208 600.21 77.756H593.35V77.252C593.35 72.548 598.67 69.972 606.034 69.972H607.434C617.066 69.972 619.698 72.436 619.698 75.376V75.684C619.698 77.644 618.046 79.604 614.098 79.912C618.242 80.22 620.258 82.236 620.258 84.56ZM639.985 91L628.981 81.172V91H622.457V70.168H628.981V78.848L639.649 70.168H647.937L635.953 79.688L648.497 91H639.985ZM669.887 91V77.252L655.915 91H649.391V70.168H655.915V83.972L669.887 70.168H676.411V91H669.887ZM679.526 70.168H701.478V74.9H685.966V77.98H701.114V82.74H685.966V86.156H701.758V91H679.526V70.168ZM712.912 91V70.168H722.18L729.376 83.132L736.6 70.168H745.532V91H739.092V76.58L730.888 91H727.388L719.184 76.58V91H712.912ZM748.569 70.168H770.521V74.9H755.009V77.98H770.157V82.74H755.009V86.156H770.801V91H748.569V70.168ZM787.539 91.364H786.391C774.323 91.364 772.447 84.616 772.447 80.92V80.108C772.447 76.328 774.071 69.804 786.391 69.804H787.539C799.607 69.804 801.483 75.572 801.483 78.008V78.316H794.567C794.399 77.756 793.559 74.844 786.951 74.844C780.707 74.844 779.279 77.644 779.279 80.248V80.584C779.279 83.048 780.931 86.296 787.007 86.296C793.755 86.296 794.427 83.076 794.595 82.6H801.511V82.908C801.511 85.54 799.439 91.364 787.539 91.364ZM811.295 91V75.096H802.335V70.168H826.863V75.096H817.875V91H811.295ZM841.764 82.488L837.732 74.676L833.868 82.488H841.764ZM846.132 91L844.172 87.192H831.544L829.668 91H823.032L833.56 70.168H842.016L853.16 91H846.132ZM235.133 133V112.168H261.033V133H254.509V117.208H241.657V133H235.133ZM279.771 126.056H270.671V133H264.147V112.168H279.771C287.275 112.168 289.487 115.136 289.487 118.944V119.224C289.487 122.948 287.219 126.056 279.771 126.056ZM270.671 116.9V121.38H279.659C281.703 121.38 282.683 120.624 282.683 119.196V119.112C282.683 117.684 281.759 116.9 279.659 116.9H270.671ZM305.295 111.804H306.499C319.603 111.804 321.143 118.384 321.143 122.108V122.948C321.143 126.616 319.631 133.364 306.499 133.364H305.295C292.107 133.364 290.623 126.616 290.623 122.948V122.108C290.623 118.384 292.107 111.804 305.295 111.804ZM314.311 122.696V122.304C314.311 119.924 312.939 116.844 305.883 116.844C298.715 116.844 297.455 119.924 297.455 122.304V122.64C297.455 125.02 298.827 128.296 305.883 128.296C312.883 128.296 314.311 125.104 314.311 122.696ZM343.731 133V119.252L329.759 133H323.235V112.168H329.759V125.972L343.731 112.168H350.255V133H343.731ZM379.633 126.56V126.84C379.633 130.284 377.225 133.252 367.033 133.252H365.521C358.073 133.252 352.641 131.208 352.641 125.468V125.16H359.501C359.501 127.54 361.881 128.632 366.557 128.632C371.149 128.632 372.913 127.848 372.913 126.476V126.392C372.913 125.02 371.177 124.488 367.733 124.488H361.545V119.98H367.705C370.981 119.98 372.381 119.532 372.381 118.44V118.356C372.381 117.236 370.869 116.564 366.389 116.564C362.833 116.564 359.585 117.208 359.585 119.756H352.725V119.252C352.725 114.548 358.045 111.972 365.409 111.972H366.809C376.441 111.972 379.073 114.436 379.073 117.376V117.684C379.073 119.644 377.421 121.604 373.473 121.912C377.617 122.22 379.633 124.236 379.633 126.56ZM381.916 133V112.168H399.752C405.716 112.168 407.368 114.464 407.368 116.928V117.32C407.368 120.036 405.072 121.072 404.064 121.38C405.492 121.744 408.544 122.948 408.544 126.616V127.008C408.544 130.284 406.668 133 399.92 133H381.916ZM398.632 116.564H388.44V119.952H398.632C400.452 119.952 400.9 119.112 400.9 118.272V118.216C400.9 117.348 400.452 116.564 398.632 116.564ZM399.192 124.376H388.44V128.464H399.192C401.348 128.464 401.768 127.26 401.768 126.42V126.308C401.768 125.412 401.348 124.376 399.192 124.376ZM424.268 111.804H425.472C438.576 111.804 440.116 118.384 440.116 122.108V122.948C440.116 126.616 438.604 133.364 425.472 133.364H424.268C411.08 133.364 409.596 126.616 409.596 122.948V122.108C409.596 118.384 411.08 111.804 424.268 111.804ZM433.284 122.696V122.304C433.284 119.924 431.912 116.844 424.856 116.844C417.688 116.844 416.428 119.924 416.428 122.304V122.64C416.428 125.02 417.8 128.296 424.856 128.296C431.856 128.296 433.284 125.104 433.284 122.696ZM439.714 127.96H442.374C443.41 125.804 443.578 121.156 443.578 112.168H466.09V127.96H469.45V136.5H463.206V133H445.958V136.5H439.714V127.96ZM448.254 127.96H459.566V117.208H449.346C449.346 121.464 449.15 125.944 448.254 127.96ZM485.446 133.364H484.298C472.23 133.364 470.354 126.616 470.354 122.92V122.108C470.354 118.328 471.978 111.804 484.298 111.804H485.446C497.514 111.804 499.39 117.572 499.39 120.008V120.316H492.474C492.306 119.756 491.466 116.844 484.858 116.844C478.614 116.844 477.186 119.644 477.186 122.248V122.584C477.186 125.048 478.838 128.296 484.914 128.296C491.662 128.296 492.334 125.076 492.502 124.6H499.418V124.908C499.418 127.54 497.346 133.364 485.446 133.364ZM509.201 133V117.096H500.241V112.168H524.769V117.096H515.781V133H509.201ZM526.975 133V112.168H544.811C550.775 112.168 552.427 114.464 552.427 116.928V117.32C552.427 120.036 550.131 121.072 549.123 121.38C550.551 121.744 553.603 122.948 553.603 126.616V127.008C553.603 130.284 551.727 133 544.979 133H526.975ZM543.691 116.564H533.499V119.952H543.691C545.511 119.952 545.959 119.112 545.959 118.272V118.216C545.959 117.348 545.511 116.564 543.691 116.564ZM544.251 124.376H533.499V128.464H544.251C546.407 128.464 546.827 127.26 546.827 126.42V126.308C546.827 125.412 546.407 124.376 544.251 124.376ZM555.494 112.168H577.446V116.9H561.934V119.98H577.082V124.74H561.934V128.156H577.726V133H555.494V112.168ZM580.184 133V112.168H586.708V119.756H600.708V112.168H607.232V133H600.708V124.796H586.708V133H580.184ZM610.262 133V112.168H616.786V119.756H630.786V112.168H637.31V133H630.786V124.796H616.786V133H610.262ZM654.256 111.804H655.46C668.564 111.804 670.104 118.384 670.104 122.108V122.948C670.104 126.616 668.592 133.364 655.46 133.364H654.256C641.068 133.364 639.584 126.616 639.584 122.948V122.108C639.584 118.384 641.068 111.804 654.256 111.804ZM663.272 122.696V122.304C663.272 119.924 661.9 116.844 654.844 116.844C647.676 116.844 646.416 119.924 646.416 122.304V122.64C646.416 125.02 647.788 128.296 654.844 128.296C661.844 128.296 663.272 125.104 663.272 122.696ZM672.196 133V112.168H693.112V117.208H678.72V133H672.196ZM709.244 111.804H710.448C723.552 111.804 725.092 118.384 725.092 122.108V122.948C725.092 126.616 723.58 133.364 710.448 133.364H709.244C696.056 133.364 694.572 126.616 694.572 122.948V122.108C694.572 118.384 696.056 111.804 709.244 111.804ZM718.26 122.696V122.304C718.26 119.924 716.888 116.844 709.832 116.844C702.664 116.844 701.404 119.924 701.404 122.304V122.64C701.404 125.02 702.776 128.296 709.832 128.296C716.832 128.296 718.26 125.104 718.26 122.696ZM735.797 133V112.168H761.697V133H755.173V117.208H742.321V133H735.797ZM780.435 126.056H771.335V133H764.811V112.168H780.435C787.939 112.168 790.151 115.136 790.151 118.944V119.224C790.151 122.948 787.883 126.056 780.435 126.056ZM771.335 116.9V121.38H780.323C782.367 121.38 783.347 120.624 783.347 119.196V119.112C783.347 117.684 782.423 116.9 780.323 116.9H771.335ZM805.959 111.804H807.163C820.267 111.804 821.807 118.384 821.807 122.108V122.948C821.807 126.616 820.295 133.364 807.163 133.364H805.959C792.771 133.364 791.287 126.616 791.287 122.948V122.108C791.287 118.384 792.771 111.804 805.959 111.804ZM814.975 122.696V122.304C814.975 119.924 813.603 116.844 806.547 116.844C799.379 116.844 798.119 119.924 798.119 122.304V122.64C798.119 125.02 799.491 128.296 806.547 128.296C813.547 128.296 814.975 125.104 814.975 122.696ZM823.899 133V112.168H830.423V127.96H843.275V112.168H849.799V127.96H853.159V136.5H846.915V133H823.899ZM854.881 112.168H876.833V116.9H861.321V119.98H876.469V124.74H861.321V128.156H877.113V133H854.881V112.168ZM893.852 133.364H892.704C880.636 133.364 878.76 126.616 878.76 122.92V122.108C878.76 118.328 880.384 111.804 892.704 111.804H893.852C905.92 111.804 907.796 117.572 907.796 120.008V120.316H900.88C900.712 119.756 899.872 116.844 893.264 116.844C887.02 116.844 885.592 119.644 885.592 122.248V122.584C885.592 125.048 887.244 128.296 893.32 128.296C900.068 128.296 900.74 125.076 900.908 124.6H907.824V124.908C907.824 127.54 905.752 133.364 893.852 133.364ZM924.176 133.364H923.028C910.96 133.364 909.084 126.616 909.084 122.92V122.108C909.084 118.328 910.708 111.804 923.028 111.804H924.176C936.244 111.804 938.12 117.572 938.12 120.008V120.316H931.204C931.036 119.756 930.196 116.844 923.588 116.844C917.344 116.844 915.916 119.644 915.916 122.248V122.584C915.916 125.048 917.568 128.296 923.644 128.296C930.392 128.296 931.064 125.076 931.232 124.6H938.148V124.908C938.148 127.54 936.076 133.364 924.176 133.364ZM955.597 124.488L951.565 116.676L947.701 124.488H955.597ZM959.965 133L958.005 129.192H945.377L943.501 133H936.864L947.393 112.168H955.849L966.993 133H959.965Z" fill="#141414"></path><g clip-path="url(#clip0_50796_115978)"><g clip-path="url(#clip1_50796_115978)"><rect x="905.148" y="96.0763" width="1" height="525.45" transform="rotate(45 905.148 96.0763)" fill="#141414"></rect><rect x="924.766" y="106.105" width="1" height="525.45" transform="rotate(45 924.766 106.105)" fill="#141414"></rect><rect x="944.383" y="116.134" width="1" height="525.45" transform="rotate(45 944.383 116.134)" fill="#141414"></rect><rect x="964" y="126.163" width="1" height="525.45" transform="rotate(45 964 126.163)" fill="#141414"></rect><rect x="983.617" y="136.192" width="1" height="525.45" transform="rotate(45 983.617 136.192)" fill="#141414"></rect><rect x="1003.23" y="146.221" width="1" height="525.45" transform="rotate(45 1003.23 146.221)" fill="#141414"></rect><rect x="1022.85" y="156.249" width="1" height="525.45" transform="rotate(45 1022.85 156.249)" fill="#141414"></rect><rect x="1042.47" y="166.278" width="1" height="525.45" transform="rotate(45 1042.47 166.278)" fill="#141414"></rect><rect x="1062.09" y="176.307" width="1" height="525.45" transform="rotate(45 1062.09 176.307)" fill="#141414"></rect><rect x="1081.7" y="186.336" width="1" height="525.45" transform="rotate(45 1081.7 186.336)" fill="#141414"></rect><rect x="1101.32" y="196.365" width="1" height="525.45" transform="rotate(45 1101.32 196.365)" fill="#141414"></rect><rect x="1120.94" y="206.394" width="1" height="525.45" transform="rotate(45 1120.94 206.394)" fill="#141414"></rect><rect x="1140.55" y="216.423" width="1" height="525.45" transform="rotate(45 1140.55 216.423)" fill="#141414"></rect><rect x="1160.17" y="226.451" width="1" height="525.45" transform="rotate(45 1160.17 226.451)" fill="#141414"></rect><rect x="1179.79" y="236.48" width="1" height="525.45" transform="rotate(45 1179.79 236.48)" fill="#141414"></rect><rect x="1199.41" y="246.509" width="1" height="525.45" transform="rotate(45 1199.41 246.509)" fill="#141414"></rect><rect x="1219.02" y="256.538" width="1" height="525.45" transform="rotate(45 1219.02 256.538)" fill="#141414"></rect><rect x="1238.64" y="266.567" width="1" height="525.45" transform="rotate(45 1238.64 266.567)" fill="#141414"></rect><rect x="1258.26" y="276.596" width="1" height="525.45" transform="rotate(45 1258.26 276.596)" fill="#141414"></rect><rect x="1277.88" y="286.625" width="1" height="525.45" transform="rotate(45 1277.88 286.625)" fill="#141414"></rect><rect x="1297.5" y="296.653" width="1" height="525.45" transform="rotate(45 1297.5 296.653)" fill="#141414"></rect><rect x="1317.11" y="306.682" width="1" height="525.45" transform="rotate(45 1317.11 306.682)" fill="#141414"></rect><rect x="1336.73" y="316.711" width="1" height="525.45" transform="rotate(45 1336.73 316.711)" fill="#141414"></rect><rect x="1356.35" y="326.74" width="1" height="525.45" transform="rotate(45 1356.35 326.74)" fill="#141414"></rect><rect x="1375.96" y="336.769" width="1" height="525.45" transform="rotate(45 1375.96 336.769)" fill="#141414"></rect><rect x="835" y="222.5" width="131" height="25" fill="#CDE997"></rect><rect x="835" y="243" width="144" height="25" fill="#CDE997"></rect></g><rect x="821.5" y="210.5" width="195" height="331" stroke="#141414"></rect><path d="M575.5 307.5H728.5V541.5H575.5V307.5Z" fill="#9BD32E"></path><path d="M575.5 307.5H728.5V541.5H575.5V307.5Z" stroke="#141414"></path><path d="M727.242 541.497H823.177" stroke="#141414"></path><rect x="390.5" y="257.5" width="185" height="284" fill="#9BD32E"></rect><rect x="390.5" y="257.5" width="185" height="284" stroke="#141414"></rect><path d="M411.496 237.648V235.904L416.776 228.8H419.496L414.328 235.904L413.064 235.536H421.88V237.648H411.496ZM417.528 240V237.648L417.608 235.536V233.44H420.056V240H417.528ZM427.455 240.192C426.538 240.192 425.717 239.968 424.991 239.52C424.266 239.061 423.695 238.4 423.279 237.536C422.863 236.672 422.655 235.627 422.655 234.4C422.655 233.173 422.863 232.128 423.279 231.264C423.695 230.4 424.266 229.744 424.991 229.296C425.717 228.837 426.538 228.608 427.455 228.608C428.383 228.608 429.205 228.837 429.919 229.296C430.645 229.744 431.215 230.4 431.631 231.264C432.047 232.128 432.255 233.173 432.255 234.4C432.255 235.627 432.047 236.672 431.631 237.536C431.215 238.4 430.645 239.061 429.919 239.52C429.205 239.968 428.383 240.192 427.455 240.192ZM427.455 238C427.893 238 428.271 237.877 428.591 237.632C428.922 237.387 429.178 236.997 429.359 236.464C429.551 235.931 429.647 235.243 429.647 234.4C429.647 233.557 429.551 232.869 429.359 232.336C429.178 231.803 428.922 231.413 428.591 231.168C428.271 230.923 427.893 230.8 427.455 230.8C427.029 230.8 426.65 230.923 426.319 231.168C425.999 231.413 425.743 231.803 425.551 232.336C425.37 232.869 425.279 233.557 425.279 234.4C425.279 235.243 425.37 235.931 425.551 236.464C425.743 236.997 425.999 237.387 426.319 237.632C426.65 237.877 427.029 238 427.455 238ZM438.315 240.192C437.397 240.192 436.576 239.968 435.851 239.52C435.125 239.061 434.555 238.4 434.139 237.536C433.723 236.672 433.515 235.627 433.515 234.4C433.515 233.173 433.723 232.128 434.139 231.264C434.555 230.4 435.125 229.744 435.851 229.296C436.576 228.837 437.397 228.608 438.315 228.608C439.243 228.608 440.064 228.837 440.779 229.296C441.504 229.744 442.075 230.4 442.491 231.264C442.907 232.128 443.115 233.173 443.115 234.4C443.115 235.627 442.907 236.672 442.491 237.536C442.075 238.4 441.504 239.061 440.779 239.52C440.064 239.968 439.243 240.192 438.315 240.192ZM438.315 238C438.752 238 439.131 237.877 439.451 237.632C439.781 237.387 440.037 236.997 440.219 236.464C440.411 235.931 440.507 235.243 440.507 234.4C440.507 233.557 440.411 232.869 440.219 232.336C440.037 231.803 439.781 231.413 439.451 231.168C439.131 230.923 438.752 230.8 438.315 230.8C437.888 230.8 437.509 230.923 437.179 231.168C436.859 231.413 436.603 231.803 436.411 232.336C436.229 232.869 436.139 233.557 436.139 234.4C436.139 235.243 436.229 235.931 436.411 236.464C436.603 236.997 436.859 237.387 437.179 237.632C437.509 237.877 437.888 238 438.315 238ZM455.353 237.952L454.809 238.528V231.392H457.305V238.528L456.729 237.952H460.697L460.137 238.528V231.392H462.617V240H449.481V231.392H451.961V238.528L451.401 237.952H455.353ZM466.853 240V232.864L467.413 233.44H463.941V231.392H472.245V233.44H468.773L469.333 232.864V240H466.853ZM476.378 241.6L481.658 226.528H483.882L478.602 241.6H476.378ZM488.903 240V231.392H491.511L494.759 237.28H493.719L497.191 231.392H499.527L499.559 240H497.303V233.952L497.687 234.208L494.727 239.168H493.671L490.695 234.032L491.159 233.92V240H488.903ZM501.95 240V231.392H504.43V236.512L508.622 231.392H510.91V240H508.43V234.88L504.254 240H501.95ZM513.309 240V231.392H515.789V234.752H519.533V231.392H522.029V240H519.533V236.784H515.789V240H513.309Z" fill="#141414"></path><path d="M595.256 287.192C594.477 287.192 593.704 287.091 592.936 286.888C592.168 286.675 591.517 286.376 590.984 285.992L591.992 284.008C592.419 284.317 592.915 284.563 593.48 284.744C594.045 284.925 594.616 285.016 595.192 285.016C595.843 285.016 596.355 284.888 596.728 284.632C597.101 284.376 597.288 284.024 597.288 283.576C597.288 283.149 597.123 282.813 596.792 282.568C596.461 282.323 595.928 282.2 595.192 282.2H594.008V280.488L597.128 276.952L597.416 277.88H591.544V275.8H599.384V277.48L596.28 281.016L594.968 280.264H595.72C597.096 280.264 598.136 280.573 598.84 281.192C599.544 281.811 599.896 282.605 599.896 283.576C599.896 284.205 599.731 284.797 599.4 285.352C599.069 285.896 598.563 286.339 597.88 286.68C597.197 287.021 596.323 287.192 595.256 287.192ZM606.101 287.192C605.077 287.192 604.186 286.979 603.429 286.552C602.682 286.125 602.106 285.501 601.701 284.68C601.295 283.859 601.093 282.845 601.093 281.64C601.093 280.349 601.333 279.256 601.813 278.36C602.303 277.464 602.975 276.781 603.829 276.312C604.693 275.843 605.685 275.608 606.805 275.608C607.402 275.608 607.973 275.672 608.517 275.8C609.061 275.928 609.53 276.12 609.925 276.376L608.965 278.28C608.655 278.067 608.325 277.923 607.973 277.848C607.621 277.763 607.253 277.72 606.869 277.72C605.898 277.72 605.13 278.013 604.565 278.6C603.999 279.187 603.717 280.056 603.717 281.208C603.717 281.4 603.717 281.613 603.717 281.848C603.727 282.083 603.759 282.317 603.813 282.552L603.093 281.88C603.295 281.464 603.557 281.117 603.877 280.84C604.197 280.552 604.575 280.339 605.013 280.2C605.461 280.051 605.951 279.976 606.485 279.976C607.21 279.976 607.861 280.12 608.437 280.408C609.013 280.696 609.471 281.101 609.813 281.624C610.165 282.147 610.341 282.76 610.341 283.464C610.341 284.221 610.149 284.883 609.765 285.448C609.391 286.003 608.885 286.435 608.245 286.744C607.615 287.043 606.901 287.192 606.101 287.192ZM605.957 285.256C606.319 285.256 606.639 285.192 606.917 285.064C607.205 284.925 607.429 284.728 607.589 284.472C607.749 284.216 607.829 283.923 607.829 283.592C607.829 283.08 607.653 282.675 607.301 282.376C606.959 282.067 606.501 281.912 605.925 281.912C605.541 281.912 605.205 281.987 604.917 282.136C604.629 282.275 604.399 282.472 604.229 282.728C604.069 282.973 603.989 283.261 603.989 283.592C603.989 283.912 604.069 284.2 604.229 284.456C604.389 284.701 604.613 284.899 604.901 285.048C605.189 285.187 605.541 285.256 605.957 285.256ZM616.08 287.192C615.163 287.192 614.342 286.968 613.616 286.52C612.891 286.061 612.32 285.4 611.904 284.536C611.488 283.672 611.28 282.627 611.28 281.4C611.28 280.173 611.488 279.128 611.904 278.264C612.32 277.4 612.891 276.744 613.616 276.296C614.342 275.837 615.163 275.608 616.08 275.608C617.008 275.608 617.83 275.837 618.544 276.296C619.27 276.744 619.84 277.4 620.256 278.264C620.672 279.128 620.88 280.173 620.88 281.4C620.88 282.627 620.672 283.672 620.256 284.536C619.84 285.4 619.27 286.061 618.544 286.52C617.83 286.968 617.008 287.192 616.08 287.192ZM616.08 285C616.518 285 616.896 284.877 617.216 284.632C617.547 284.387 617.803 283.997 617.984 283.464C618.176 282.931 618.272 282.243 618.272 281.4C618.272 280.557 618.176 279.869 617.984 279.336C617.803 278.803 617.547 278.413 617.216 278.168C616.896 277.923 616.518 277.8 616.08 277.8C615.654 277.8 615.275 277.923 614.944 278.168C614.624 278.413 614.368 278.803 614.176 279.336C613.995 279.869 613.904 280.557 613.904 281.4C613.904 282.243 613.995 282.931 614.176 283.464C614.368 283.997 614.624 284.387 614.944 284.632C615.275 284.877 615.654 285 616.08 285ZM633.119 284.952L632.575 285.528V278.392H635.071V285.528L634.495 284.952H638.463L637.903 285.528V278.392H640.383V287H627.247V278.392H629.727V285.528L629.167 284.952H633.119ZM644.618 287V279.864L645.178 280.44H641.706V278.392H650.01V280.44H646.538L647.098 279.864V287H644.618ZM654.144 288.6L659.424 273.528H661.648L656.368 288.6H654.144ZM666.669 287V278.392H669.277L672.525 284.28H671.485L674.957 278.392H677.293L677.325 287H675.069V280.952L675.453 281.208L672.493 286.168H671.437L668.461 281.032L668.925 280.92V287H666.669ZM679.716 287V278.392H682.196V283.512L686.388 278.392H688.676V287H686.196V281.88L682.02 287H679.716ZM691.075 287V278.392H693.555V281.752H697.299V278.392H699.795V287H697.299V283.784H693.555V287H691.075Z" fill="#141414"></path><g clip-path="url(#clip2_50796_115978)"><rect x="198" y="211" width="193" height="331" fill="white"></rect></g><rect x="198.5" y="211.5" width="192" height="330" stroke="#141414"></rect><path d="M198 211.5L198 541.5" stroke="#141414" stroke-width="2"></path><path d="M203.264 565.692C202.325 565.692 201.504 565.553 200.8 565.276C200.096 564.988 199.547 564.588 199.152 564.076C198.757 563.553 198.56 562.945 198.56 562.252C198.56 561.559 198.752 560.972 199.136 560.492C199.531 560.001 200.08 559.633 200.784 559.388C201.488 559.132 202.315 559.004 203.264 559.004C204.224 559.004 205.056 559.132 205.76 559.388C206.475 559.633 207.024 560.001 207.408 560.492C207.803 560.972 208 561.559 208 562.252C208 562.945 207.803 563.553 207.408 564.076C207.013 564.588 206.459 564.988 205.744 565.276C205.04 565.553 204.213 565.692 203.264 565.692ZM203.264 563.788C203.915 563.788 204.427 563.644 204.8 563.356C205.184 563.068 205.376 562.673 205.376 562.172C205.376 561.671 205.184 561.281 204.8 561.004C204.427 560.716 203.915 560.572 203.264 560.572C202.624 560.572 202.117 560.716 201.744 561.004C201.371 561.281 201.184 561.671 201.184 562.172C201.184 562.673 201.371 563.068 201.744 563.356C202.117 563.644 202.624 563.788 203.264 563.788ZM203.264 560.316C202.4 560.316 201.643 560.199 200.992 559.964C200.352 559.729 199.851 559.388 199.488 558.94C199.136 558.481 198.96 557.937 198.96 557.308C198.96 556.647 199.141 556.081 199.504 555.612C199.867 555.132 200.373 554.764 201.024 554.508C201.675 554.241 202.421 554.108 203.264 554.108C204.128 554.108 204.88 554.241 205.52 554.508C206.171 554.764 206.677 555.132 207.04 555.612C207.413 556.081 207.6 556.647 207.6 557.308C207.6 557.937 207.419 558.481 207.056 558.94C206.704 559.388 206.203 559.729 205.552 559.964C204.901 560.199 204.139 560.316 203.264 560.316ZM203.264 558.796C203.808 558.796 204.235 558.673 204.544 558.428C204.864 558.183 205.024 557.847 205.024 557.42C205.024 556.972 204.859 556.625 204.528 556.38C204.208 556.135 203.787 556.012 203.264 556.012C202.752 556.012 202.336 556.135 202.016 556.38C201.696 556.625 201.536 556.972 201.536 557.42C201.536 557.847 201.691 558.183 202 558.428C202.309 558.673 202.731 558.796 203.264 558.796ZM210.659 559.884C210.232 559.884 209.864 559.74 209.555 559.452C209.256 559.153 209.107 558.775 209.107 558.316C209.107 557.857 209.256 557.489 209.555 557.212C209.864 556.924 210.232 556.78 210.659 556.78C211.096 556.78 211.464 556.924 211.763 557.212C212.061 557.489 212.211 557.857 212.211 558.316C212.211 558.775 212.061 559.153 211.763 559.452C211.464 559.74 211.096 559.884 210.659 559.884ZM210.659 565.628C210.232 565.628 209.864 565.484 209.555 565.196C209.256 564.897 209.107 564.519 209.107 564.06C209.107 563.601 209.256 563.233 209.555 562.956C209.864 562.668 210.232 562.524 210.659 562.524C211.096 562.524 211.464 562.668 211.763 562.956C212.061 563.233 212.211 563.601 212.211 564.06C212.211 564.519 212.061 564.897 211.763 565.196C211.464 565.484 211.096 565.628 210.659 565.628ZM218.174 565.692C217.257 565.692 216.435 565.468 215.71 565.02C214.985 564.561 214.414 563.9 213.998 563.036C213.582 562.172 213.374 561.127 213.374 559.9C213.374 558.673 213.582 557.628 213.998 556.764C214.414 555.9 214.985 555.244 215.71 554.796C216.435 554.337 217.257 554.108 218.174 554.108C219.102 554.108 219.923 554.337 220.638 554.796C221.363 555.244 221.934 555.9 222.35 556.764C222.766 557.628 222.974 558.673 222.974 559.9C222.974 561.127 222.766 562.172 222.35 563.036C221.934 563.9 221.363 564.561 220.638 565.02C219.923 565.468 219.102 565.692 218.174 565.692ZM218.174 563.5C218.611 563.5 218.99 563.377 219.31 563.132C219.641 562.887 219.897 562.497 220.078 561.964C220.27 561.431 220.366 560.743 220.366 559.9C220.366 559.057 220.27 558.369 220.078 557.836C219.897 557.303 219.641 556.913 219.31 556.668C218.99 556.423 218.611 556.3 218.174 556.3C217.747 556.3 217.369 556.423 217.038 556.668C216.718 556.913 216.462 557.303 216.27 557.836C216.089 558.369 215.998 559.057 215.998 559.9C215.998 560.743 216.089 561.431 216.27 561.964C216.462 562.497 216.718 562.887 217.038 563.132C217.369 563.377 217.747 563.5 218.174 563.5ZM229.033 565.692C228.116 565.692 227.295 565.468 226.569 565.02C225.844 564.561 225.273 563.9 224.857 563.036C224.441 562.172 224.233 561.127 224.233 559.9C224.233 558.673 224.441 557.628 224.857 556.764C225.273 555.9 225.844 555.244 226.569 554.796C227.295 554.337 228.116 554.108 229.033 554.108C229.961 554.108 230.783 554.337 231.497 554.796C232.223 555.244 232.793 555.9 233.209 556.764C233.625 557.628 233.833 558.673 233.833 559.9C233.833 561.127 233.625 562.172 233.209 563.036C232.793 563.9 232.223 564.561 231.497 565.02C230.783 565.468 229.961 565.692 229.033 565.692ZM229.033 563.5C229.471 563.5 229.849 563.377 230.169 563.132C230.5 562.887 230.756 562.497 230.937 561.964C231.129 561.431 231.225 560.743 231.225 559.9C231.225 559.057 231.129 558.369 230.937 557.836C230.756 557.303 230.5 556.913 230.169 556.668C229.849 556.423 229.471 556.3 229.033 556.3C228.607 556.3 228.228 556.423 227.897 556.668C227.577 556.913 227.321 557.303 227.129 557.836C226.948 558.369 226.857 559.057 226.857 559.9C226.857 560.743 226.948 561.431 227.129 561.964C227.321 562.497 227.577 562.887 227.897 563.132C228.228 563.377 228.607 563.5 229.033 563.5Z" fill="#141414"></path><path opacity="0.4" d="M428 211.5L428 541.5" stroke="#141414"></path><path d="M430.352 565.5V555.26L431.472 556.38H428.112V554.3H432.944V565.5H430.352ZM439.69 565.692C438.772 565.692 437.951 565.468 437.226 565.02C436.5 564.561 435.93 563.9 435.514 563.036C435.098 562.172 434.89 561.127 434.89 559.9C434.89 558.673 435.098 557.628 435.514 556.764C435.93 555.9 436.5 555.244 437.226 554.796C437.951 554.337 438.772 554.108 439.69 554.108C440.618 554.108 441.439 554.337 442.154 554.796C442.879 555.244 443.45 555.9 443.866 556.764C444.282 557.628 444.49 558.673 444.49 559.9C444.49 561.127 444.282 562.172 443.866 563.036C443.45 563.9 442.879 564.561 442.154 565.02C441.439 565.468 440.618 565.692 439.69 565.692ZM439.69 563.5C440.127 563.5 440.506 563.377 440.826 563.132C441.156 562.887 441.412 562.497 441.594 561.964C441.786 561.431 441.882 560.743 441.882 559.9C441.882 559.057 441.786 558.369 441.594 557.836C441.412 557.303 441.156 556.913 440.826 556.668C440.506 556.423 440.127 556.3 439.69 556.3C439.263 556.3 438.884 556.423 438.554 556.668C438.234 556.913 437.978 557.303 437.786 557.836C437.604 558.369 437.514 559.057 437.514 559.9C437.514 560.743 437.604 561.431 437.786 561.964C437.978 562.497 438.234 562.887 438.554 563.132C438.884 563.377 439.263 563.5 439.69 563.5ZM447.221 559.884C446.794 559.884 446.426 559.74 446.117 559.452C445.818 559.153 445.669 558.775 445.669 558.316C445.669 557.857 445.818 557.489 446.117 557.212C446.426 556.924 446.794 556.78 447.221 556.78C447.658 556.78 448.026 556.924 448.325 557.212C448.624 557.489 448.773 557.857 448.773 558.316C448.773 558.775 448.624 559.153 448.325 559.452C448.026 559.74 447.658 559.884 447.221 559.884ZM447.221 565.628C446.794 565.628 446.426 565.484 446.117 565.196C445.818 564.897 445.669 564.519 445.669 564.06C445.669 563.601 445.818 563.233 446.117 562.956C446.426 562.668 446.794 562.524 447.221 562.524C447.658 562.524 448.026 562.668 448.325 562.956C448.624 563.233 448.773 563.601 448.773 564.06C448.773 564.519 448.624 564.897 448.325 565.196C448.026 565.484 447.658 565.628 447.221 565.628ZM454.737 565.692C453.819 565.692 452.998 565.468 452.273 565.02C451.547 564.561 450.977 563.9 450.561 563.036C450.145 562.172 449.937 561.127 449.937 559.9C449.937 558.673 450.145 557.628 450.561 556.764C450.977 555.9 451.547 555.244 452.273 554.796C452.998 554.337 453.819 554.108 454.737 554.108C455.665 554.108 456.486 554.337 457.201 554.796C457.926 555.244 458.497 555.9 458.913 556.764C459.329 557.628 459.537 558.673 459.537 559.9C459.537 561.127 459.329 562.172 458.913 563.036C458.497 563.9 457.926 564.561 457.201 565.02C456.486 565.468 455.665 565.692 454.737 565.692ZM454.737 563.5C455.174 563.5 455.553 563.377 455.873 563.132C456.203 562.887 456.459 562.497 456.641 561.964C456.833 561.431 456.929 560.743 456.929 559.9C456.929 559.057 456.833 558.369 456.641 557.836C456.459 557.303 456.203 556.913 455.873 556.668C455.553 556.423 455.174 556.3 454.737 556.3C454.31 556.3 453.931 556.423 453.601 556.668C453.281 556.913 453.025 557.303 452.833 557.836C452.651 558.369 452.561 559.057 452.561 559.9C452.561 560.743 452.651 561.431 452.833 561.964C453.025 562.497 453.281 562.887 453.601 563.132C453.931 563.377 454.31 563.5 454.737 563.5ZM465.596 565.692C464.679 565.692 463.857 565.468 463.132 565.02C462.407 564.561 461.836 563.9 461.42 563.036C461.004 562.172 460.796 561.127 460.796 559.9C460.796 558.673 461.004 557.628 461.42 556.764C461.836 555.9 462.407 555.244 463.132 554.796C463.857 554.337 464.679 554.108 465.596 554.108C466.524 554.108 467.345 554.337 468.06 554.796C468.785 555.244 469.356 555.9 469.772 556.764C470.188 557.628 470.396 558.673 470.396 559.9C470.396 561.127 470.188 562.172 469.772 563.036C469.356 563.9 468.785 564.561 468.06 565.02C467.345 565.468 466.524 565.692 465.596 565.692ZM465.596 563.5C466.033 563.5 466.412 563.377 466.732 563.132C467.063 562.887 467.319 562.497 467.5 561.964C467.692 561.431 467.788 560.743 467.788 559.9C467.788 559.057 467.692 558.369 467.5 557.836C467.319 557.303 467.063 556.913 466.732 556.668C466.412 556.423 466.033 556.3 465.596 556.3C465.169 556.3 464.791 556.423 464.46 556.668C464.14 556.913 463.884 557.303 463.692 557.836C463.511 558.369 463.42 559.057 463.42 559.9C463.42 560.743 463.511 561.431 463.692 561.964C463.884 562.497 464.14 562.887 464.46 563.132C464.791 563.377 465.169 563.5 465.596 563.5Z" fill="#141414"></path><path opacity="0.4" d="M658 211.5L658 541.5" stroke="#141414"></path><path d="M660.352 565.5V555.26L661.472 556.38H658.112V554.3H662.944V565.5H660.352ZM664.794 565.5V563.82L669.114 559.74C669.455 559.431 669.706 559.153 669.866 558.908C670.026 558.663 670.132 558.439 670.186 558.236C670.25 558.033 670.282 557.847 670.282 557.676C670.282 557.228 670.127 556.887 669.818 556.652C669.519 556.407 669.076 556.284 668.49 556.284C668.02 556.284 667.583 556.375 667.178 556.556C666.783 556.737 666.447 557.02 666.17 557.404L664.282 556.188C664.708 555.548 665.306 555.041 666.074 554.668C666.842 554.295 667.727 554.108 668.73 554.108C669.562 554.108 670.287 554.247 670.906 554.524C671.535 554.791 672.02 555.169 672.362 555.66C672.714 556.151 672.89 556.737 672.89 557.42C672.89 557.783 672.842 558.145 672.746 558.508C672.66 558.86 672.479 559.233 672.202 559.628C671.935 560.023 671.54 560.465 671.018 560.956L667.434 564.332L666.938 563.388H673.258V565.5H664.794ZM675.799 559.884C675.372 559.884 675.004 559.74 674.695 559.452C674.396 559.153 674.247 558.775 674.247 558.316C674.247 557.857 674.396 557.489 674.695 557.212C675.004 556.924 675.372 556.78 675.799 556.78C676.236 556.78 676.604 556.924 676.903 557.212C677.202 557.489 677.351 557.857 677.351 558.316C677.351 558.775 677.202 559.153 676.903 559.452C676.604 559.74 676.236 559.884 675.799 559.884ZM675.799 565.628C675.372 565.628 675.004 565.484 674.695 565.196C674.396 564.897 674.247 564.519 674.247 564.06C674.247 563.601 674.396 563.233 674.695 562.956C675.004 562.668 675.372 562.524 675.799 562.524C676.236 562.524 676.604 562.668 676.903 562.956C677.202 563.233 677.351 563.601 677.351 564.06C677.351 564.519 677.202 564.897 676.903 565.196C676.604 565.484 676.236 565.628 675.799 565.628ZM683.315 565.692C682.397 565.692 681.576 565.468 680.851 565.02C680.125 564.561 679.555 563.9 679.139 563.036C678.723 562.172 678.515 561.127 678.515 559.9C678.515 558.673 678.723 557.628 679.139 556.764C679.555 555.9 680.125 555.244 680.851 554.796C681.576 554.337 682.397 554.108 683.315 554.108C684.243 554.108 685.064 554.337 685.779 554.796C686.504 555.244 687.075 555.9 687.491 556.764C687.907 557.628 688.115 558.673 688.115 559.9C688.115 561.127 687.907 562.172 687.491 563.036C687.075 563.9 686.504 564.561 685.779 565.02C685.064 565.468 684.243 565.692 683.315 565.692ZM683.315 563.5C683.752 563.5 684.131 563.377 684.451 563.132C684.781 562.887 685.037 562.497 685.219 561.964C685.411 561.431 685.507 560.743 685.507 559.9C685.507 559.057 685.411 558.369 685.219 557.836C685.037 557.303 684.781 556.913 684.451 556.668C684.131 556.423 683.752 556.3 683.315 556.3C682.888 556.3 682.509 556.423 682.179 556.668C681.859 556.913 681.603 557.303 681.411 557.836C681.229 558.369 681.139 559.057 681.139 559.9C681.139 560.743 681.229 561.431 681.411 561.964C681.603 562.497 681.859 562.887 682.179 563.132C682.509 563.377 682.888 563.5 683.315 563.5ZM694.174 565.692C693.257 565.692 692.435 565.468 691.71 565.02C690.985 564.561 690.414 563.9 689.998 563.036C689.582 562.172 689.374 561.127 689.374 559.9C689.374 558.673 689.582 557.628 689.998 556.764C690.414 555.9 690.985 555.244 691.71 554.796C692.435 554.337 693.257 554.108 694.174 554.108C695.102 554.108 695.923 554.337 696.638 554.796C697.363 555.244 697.934 555.9 698.35 556.764C698.766 557.628 698.974 558.673 698.974 559.9C698.974 561.127 698.766 562.172 698.35 563.036C697.934 563.9 697.363 564.561 696.638 565.02C695.923 565.468 695.102 565.692 694.174 565.692ZM694.174 563.5C694.611 563.5 694.99 563.377 695.31 563.132C695.641 562.887 695.897 562.497 696.078 561.964C696.27 561.431 696.366 560.743 696.366 559.9C696.366 559.057 696.27 558.369 696.078 557.836C695.897 557.303 695.641 556.913 695.31 556.668C694.99 556.423 694.611 556.3 694.174 556.3C693.747 556.3 693.369 556.423 693.038 556.668C692.718 556.913 692.462 557.303 692.27 557.836C692.089 558.369 691.998 559.057 691.998 559.9C691.998 560.743 692.089 561.431 692.27 561.964C692.462 562.497 692.718 562.887 693.038 563.132C693.369 563.377 693.747 563.5 694.174 563.5Z" fill="#141414"></path><rect width="2" height="326.891" transform="translate(728 207)" fill="#141414"></rect><path d="M728.998 531.891L736.987 540.973H721.009L728.998 531.891Z" fill="#141414"></path><rect x="704" y="546" width="50" height="26" rx="4" fill="white"></rect><path d="M710.352 565V554.76L711.472 555.88H708.112V553.8H712.944V565H710.352ZM714.794 565V563.32L719.114 559.24C719.455 558.931 719.706 558.653 719.866 558.408C720.026 558.163 720.132 557.939 720.186 557.736C720.25 557.533 720.282 557.347 720.282 557.176C720.282 556.728 720.127 556.387 719.818 556.152C719.519 555.907 719.076 555.784 718.49 555.784C718.02 555.784 717.583 555.875 717.178 556.056C716.783 556.237 716.447 556.52 716.17 556.904L714.282 555.688C714.708 555.048 715.306 554.541 716.074 554.168C716.842 553.795 717.727 553.608 718.73 553.608C719.562 553.608 720.287 553.747 720.906 554.024C721.535 554.291 722.02 554.669 722.362 555.16C722.714 555.651 722.89 556.237 722.89 556.92C722.89 557.283 722.842 557.645 722.746 558.008C722.66 558.36 722.479 558.733 722.202 559.128C721.935 559.523 721.54 559.965 721.018 560.456L717.434 563.832L716.938 562.888H723.258V565H714.794ZM725.799 559.384C725.372 559.384 725.004 559.24 724.695 558.952C724.396 558.653 724.247 558.275 724.247 557.816C724.247 557.357 724.396 556.989 724.695 556.712C725.004 556.424 725.372 556.28 725.799 556.28C726.236 556.28 726.604 556.424 726.903 556.712C727.202 556.989 727.351 557.357 727.351 557.816C727.351 558.275 727.202 558.653 726.903 558.952C726.604 559.24 726.236 559.384 725.799 559.384ZM725.799 565.128C725.372 565.128 725.004 564.984 724.695 564.696C724.396 564.397 724.247 564.019 724.247 563.56C724.247 563.101 724.396 562.733 724.695 562.456C725.004 562.168 725.372 562.024 725.799 562.024C726.236 562.024 726.604 562.168 726.903 562.456C727.202 562.733 727.351 563.101 727.351 563.56C727.351 564.019 727.202 564.397 726.903 564.696C726.604 564.984 726.236 565.128 725.799 565.128ZM728.387 562.648V560.904L733.667 553.8H736.387L731.219 560.904L729.955 560.536H738.771V562.648H728.387ZM734.419 565V562.648L734.499 560.536V558.44H736.947V565H734.419ZM744.342 565.192C743.403 565.192 742.582 565.053 741.878 564.776C741.174 564.488 740.625 564.088 740.23 563.576C739.835 563.053 739.638 562.445 739.638 561.752C739.638 561.059 739.83 560.472 740.214 559.992C740.609 559.501 741.158 559.133 741.862 558.888C742.566 558.632 743.393 558.504 744.342 558.504C745.302 558.504 746.134 558.632 746.838 558.888C747.553 559.133 748.102 559.501 748.486 559.992C748.881 560.472 749.078 561.059 749.078 561.752C749.078 562.445 748.881 563.053 748.486 563.576C748.091 564.088 747.537 564.488 746.822 564.776C746.118 565.053 745.291 565.192 744.342 565.192ZM744.342 563.288C744.993 563.288 745.505 563.144 745.878 562.856C746.262 562.568 746.454 562.173 746.454 561.672C746.454 561.171 746.262 560.781 745.878 560.504C745.505 560.216 744.993 560.072 744.342 560.072C743.702 560.072 743.195 560.216 742.822 560.504C742.449 560.781 742.262 561.171 742.262 561.672C742.262 562.173 742.449 562.568 742.822 562.856C743.195 563.144 743.702 563.288 744.342 563.288ZM744.342 559.816C743.478 559.816 742.721 559.699 742.07 559.464C741.43 559.229 740.929 558.888 740.566 558.44C740.214 557.981 740.038 557.437 740.038 556.808C740.038 556.147 740.219 555.581 740.582 555.112C740.945 554.632 741.451 554.264 742.102 554.008C742.753 553.741 743.499 553.608 744.342 553.608C745.206 553.608 745.958 553.741 746.598 554.008C747.249 554.264 747.755 554.632 748.118 555.112C748.491 555.581 748.678 556.147 748.678 556.808C748.678 557.437 748.497 557.981 748.134 558.44C747.782 558.888 747.281 559.229 746.63 559.464C745.979 559.699 745.217 559.816 744.342 559.816ZM744.342 558.296C744.886 558.296 745.313 558.173 745.622 557.928C745.942 557.683 746.102 557.347 746.102 556.92C746.102 556.472 745.937 556.125 745.606 555.88C745.286 555.635 744.865 555.512 744.342 555.512C743.83 555.512 743.414 555.635 743.094 555.88C742.774 556.125 742.614 556.472 742.614 556.92C742.614 557.347 742.769 557.683 743.078 557.928C743.387 558.173 743.809 558.296 744.342 558.296Z" fill="#141414"></path><path d="M219.392 240V228.8H224.608C225.909 228.8 226.923 229.051 227.648 229.552C228.373 230.053 228.736 230.768 228.736 231.696C228.736 232.613 228.395 233.328 227.712 233.84C227.029 234.341 226.123 234.592 224.992 234.592L225.296 233.92C226.555 233.92 227.531 234.171 228.224 234.672C228.917 235.173 229.264 235.899 229.264 236.848C229.264 237.829 228.891 238.603 228.144 239.168C227.408 239.723 226.331 240 224.912 240H219.392ZM221.968 238.08H224.816C225.413 238.08 225.867 237.963 226.176 237.728C226.485 237.493 226.64 237.131 226.64 236.64C226.64 236.171 226.485 235.824 226.176 235.6C225.867 235.365 225.413 235.248 224.816 235.248H221.968V238.08ZM221.968 233.44H224.384C224.949 233.44 225.376 233.328 225.664 233.104C225.952 232.869 226.096 232.528 226.096 232.08C226.096 231.632 225.952 231.296 225.664 231.072C225.376 230.837 224.949 230.72 224.384 230.72H221.968V233.44ZM231.122 240V231.392H233.602V234.752H237.346V231.392H239.842V240H237.346V236.784H233.602V240H231.122ZM246.439 240.128C245.458 240.128 244.594 239.936 243.847 239.552C243.111 239.168 242.541 238.645 242.135 237.984C241.73 237.312 241.527 236.549 241.527 235.696C241.527 234.832 241.725 234.069 242.119 233.408C242.525 232.736 243.074 232.213 243.767 231.84C244.461 231.456 245.245 231.264 246.119 231.264C246.962 231.264 247.719 231.445 248.391 231.808C249.074 232.16 249.613 232.672 250.007 233.344C250.402 234.005 250.599 234.8 250.599 235.728C250.599 235.824 250.594 235.936 250.583 236.064C250.573 236.181 250.562 236.293 250.551 236.4H243.559V234.944H249.239L248.279 235.376C248.279 234.928 248.189 234.539 248.007 234.208C247.826 233.877 247.575 233.621 247.255 233.44C246.935 233.248 246.562 233.152 246.135 233.152C245.709 233.152 245.33 233.248 244.999 233.44C244.679 233.621 244.429 233.883 244.247 234.224C244.066 234.555 243.975 234.949 243.975 235.408V235.792C243.975 236.261 244.077 236.677 244.279 237.04C244.493 237.392 244.786 237.664 245.159 237.856C245.543 238.037 245.991 238.128 246.503 238.128C246.962 238.128 247.362 238.059 247.703 237.92C248.055 237.781 248.375 237.573 248.663 237.296L249.991 238.736C249.597 239.184 249.101 239.531 248.503 239.776C247.906 240.011 247.218 240.128 246.439 240.128ZM252.513 240V231.392H261.073V240H258.577V232.88L259.137 233.44H254.433L254.993 232.88V240H252.513ZM262.378 239.984L262.506 237.936C262.57 237.947 262.634 237.957 262.698 237.968C262.762 237.968 262.82 237.968 262.874 237.968C263.172 237.968 263.407 237.883 263.578 237.712C263.748 237.541 263.876 237.312 263.962 237.024C264.047 236.725 264.106 236.389 264.138 236.016C264.18 235.643 264.212 235.253 264.234 234.848L264.362 231.392H271.722V240H269.226V232.832L269.786 233.44H266.01L266.538 232.8L266.426 234.96C266.394 235.728 266.33 236.432 266.234 237.072C266.148 237.712 266.004 238.267 265.802 238.736C265.599 239.195 265.327 239.552 264.986 239.808C264.644 240.053 264.207 240.176 263.674 240.176C263.482 240.176 263.279 240.16 263.066 240.128C262.852 240.096 262.623 240.048 262.378 239.984ZM279.274 240V238.32L279.114 237.952V234.944C279.114 234.411 278.949 233.995 278.618 233.696C278.298 233.397 277.802 233.248 277.13 233.248C276.671 233.248 276.218 233.323 275.77 233.472C275.333 233.611 274.959 233.803 274.65 234.048L273.754 232.304C274.223 231.973 274.789 231.717 275.45 231.536C276.111 231.355 276.783 231.264 277.466 231.264C278.778 231.264 279.797 231.573 280.522 232.192C281.247 232.811 281.61 233.776 281.61 235.088V240H279.274ZM276.65 240.128C275.978 240.128 275.402 240.016 274.922 239.792C274.442 239.557 274.074 239.243 273.818 238.848C273.562 238.453 273.434 238.011 273.434 237.52C273.434 237.008 273.557 236.56 273.802 236.176C274.058 235.792 274.458 235.493 275.002 235.28C275.546 235.056 276.255 234.944 277.13 234.944H279.418V236.4H277.402C276.815 236.4 276.41 236.496 276.186 236.688C275.973 236.88 275.866 237.12 275.866 237.408C275.866 237.728 275.989 237.984 276.234 238.176C276.49 238.357 276.837 238.448 277.274 238.448C277.69 238.448 278.063 238.352 278.394 238.16C278.725 237.957 278.965 237.664 279.114 237.28L279.498 238.432C279.317 238.987 278.986 239.408 278.506 239.696C278.026 239.984 277.407 240.128 276.65 240.128ZM283.778 240V231.392H286.258V234.752H290.002V231.392H292.498V240H290.002V236.784H286.258V240H283.778ZM298.92 240.128C298.002 240.128 297.186 239.936 296.472 239.552C295.768 239.168 295.208 238.645 294.792 237.984C294.386 237.312 294.184 236.549 294.184 235.696C294.184 234.832 294.386 234.069 294.792 233.408C295.208 232.736 295.768 232.213 296.472 231.84C297.186 231.456 298.002 231.264 298.92 231.264C299.826 231.264 300.637 231.456 301.352 231.84C302.066 232.213 302.626 232.731 303.032 233.392C303.437 234.053 303.64 234.821 303.64 235.696C303.64 236.549 303.437 237.312 303.032 237.984C302.626 238.645 302.066 239.168 301.352 239.552C300.637 239.936 299.826 240.128 298.92 240.128ZM298.92 238.08C299.336 238.08 299.709 237.984 300.04 237.792C300.37 237.6 300.632 237.328 300.824 236.976C301.016 236.613 301.112 236.187 301.112 235.696C301.112 235.195 301.016 234.768 300.824 234.416C300.632 234.064 300.37 233.792 300.04 233.6C299.709 233.408 299.336 233.312 298.92 233.312C298.504 233.312 298.13 233.408 297.799 233.6C297.469 233.792 297.202 234.064 297 234.416C296.808 234.768 296.712 235.195 296.712 235.696C296.712 236.187 296.808 236.613 297 236.976C297.202 237.328 297.469 237.6 297.799 237.792C298.13 237.984 298.504 238.08 298.92 238.08ZM305.356 240V231.392H309.756C310.834 231.392 311.676 231.589 312.284 231.984C312.892 232.368 313.196 232.912 313.196 233.616C313.196 234.32 312.908 234.875 312.332 235.28C311.767 235.675 311.015 235.872 310.076 235.872L310.332 235.296C311.378 235.296 312.156 235.488 312.668 235.872C313.191 236.256 313.452 236.816 313.452 237.552C313.452 238.309 313.164 238.907 312.588 239.344C312.012 239.781 311.132 240 309.948 240H305.356ZM307.644 238.304H309.74C310.199 238.304 310.54 238.229 310.764 238.08C310.999 237.92 311.116 237.68 311.116 237.36C311.116 237.029 311.01 236.789 310.796 236.64C310.583 236.48 310.247 236.4 309.788 236.4H307.644V238.304ZM307.644 234.928H309.532C309.97 234.928 310.295 234.848 310.508 234.688C310.732 234.528 310.844 234.299 310.844 234C310.844 233.691 310.732 233.461 310.508 233.312C310.295 233.163 309.97 233.088 309.532 233.088H307.644V234.928ZM324.173 240V231.392H326.653V240H324.173ZM319.837 234.144C320.968 234.155 321.816 234.411 322.381 234.912C322.957 235.403 323.245 236.101 323.245 237.008C323.245 237.957 322.92 238.699 322.269 239.232C321.619 239.755 320.696 240.016 319.501 240.016L315.309 240V231.392H317.789V234.144H319.837ZM319.277 238.24C319.757 238.251 320.125 238.149 320.381 237.936C320.637 237.723 320.765 237.403 320.765 236.976C320.765 236.549 320.637 236.245 320.381 236.064C320.125 235.872 319.757 235.771 319.277 235.76L317.789 235.744V238.24H319.277ZM329.059 240V231.392H331.539V236.512L335.731 231.392H338.019V240H335.539V234.88L331.363 240H329.059ZM333.379 230.464C332.441 230.464 331.737 230.261 331.267 229.856C330.798 229.44 330.558 228.816 330.547 227.984H332.179C332.19 228.347 332.291 228.635 332.483 228.848C332.675 229.061 332.969 229.168 333.363 229.168C333.747 229.168 334.041 229.061 334.243 228.848C334.457 228.635 334.563 228.347 334.563 227.984H336.227C336.227 228.816 335.987 229.44 335.507 229.856C335.027 230.261 334.318 230.464 333.379 230.464ZM219.2 260V251.392H227.76V260H225.264V252.88L225.824 253.44H221.12L221.68 252.88V260H219.2ZM235.225 260.128C234.5 260.128 233.865 259.968 233.321 259.648C232.777 259.328 232.35 258.843 232.041 258.192C231.742 257.531 231.593 256.699 231.593 255.696C231.593 254.683 231.737 253.851 232.025 253.2C232.313 252.549 232.729 252.064 233.273 251.744C233.817 251.424 234.468 251.264 235.225 251.264C236.036 251.264 236.761 251.451 237.401 251.824C238.052 252.187 238.564 252.699 238.937 253.36C239.321 254.021 239.513 254.8 239.513 255.696C239.513 256.603 239.321 257.387 238.937 258.048C238.564 258.709 238.052 259.221 237.401 259.584C236.761 259.947 236.036 260.128 235.225 260.128ZM230.137 263.104V251.392H232.521V253.152L232.473 255.712L232.633 258.256V263.104H230.137ZM234.793 258.08C235.209 258.08 235.577 257.984 235.897 257.792C236.228 257.6 236.489 257.328 236.681 256.976C236.884 256.613 236.985 256.187 236.985 255.696C236.985 255.195 236.884 254.768 236.681 254.416C236.489 254.064 236.228 253.792 235.897 253.6C235.577 253.408 235.209 253.312 234.793 253.312C234.377 253.312 234.004 253.408 233.673 253.6C233.342 253.792 233.081 254.064 232.889 254.416C232.697 254.768 232.601 255.195 232.601 255.696C232.601 256.187 232.697 256.613 232.889 256.976C233.081 257.328 233.342 257.6 233.673 257.792C234.004 257.984 234.377 258.08 234.793 258.08ZM245.295 260.128C244.377 260.128 243.561 259.936 242.847 259.552C242.143 259.168 241.583 258.645 241.167 257.984C240.761 257.312 240.559 256.549 240.559 255.696C240.559 254.832 240.761 254.069 241.167 253.408C241.583 252.736 242.143 252.213 242.847 251.84C243.561 251.456 244.377 251.264 245.295 251.264C246.201 251.264 247.012 251.456 247.727 251.84C248.441 252.213 249.001 252.731 249.407 253.392C249.812 254.053 250.015 254.821 250.015 255.696C250.015 256.549 249.812 257.312 249.407 257.984C249.001 258.645 248.441 259.168 247.727 259.552C247.012 259.936 246.201 260.128 245.295 260.128ZM245.295 258.08C245.711 258.08 246.084 257.984 246.415 257.792C246.745 257.6 247.007 257.328 247.199 256.976C247.391 256.613 247.487 256.187 247.487 255.696C247.487 255.195 247.391 254.768 247.199 254.416C247.007 254.064 246.745 253.792 246.415 253.6C246.084 253.408 245.711 253.312 245.295 253.312C244.879 253.312 244.505 253.408 244.174 253.6C243.844 253.792 243.577 254.064 243.375 254.416C243.183 254.768 243.087 255.195 243.087 255.696C243.087 256.187 243.183 256.613 243.375 256.976C243.577 257.328 243.844 257.6 244.174 257.792C244.505 257.984 244.879 258.08 245.295 258.08ZM255.827 260.128C254.899 260.128 254.073 259.941 253.347 259.568C252.622 259.184 252.051 258.656 251.635 257.984C251.23 257.312 251.027 256.549 251.027 255.696C251.027 254.832 251.23 254.069 251.635 253.408C252.051 252.736 252.622 252.213 253.347 251.84C254.073 251.456 254.899 251.264 255.827 251.264C256.734 251.264 257.523 251.456 258.195 251.84C258.867 252.213 259.363 252.752 259.683 253.456L257.747 254.496C257.523 254.091 257.241 253.792 256.899 253.6C256.569 253.408 256.206 253.312 255.811 253.312C255.385 253.312 255.001 253.408 254.659 253.6C254.318 253.792 254.046 254.064 253.843 254.416C253.651 254.768 253.555 255.195 253.555 255.696C253.555 256.197 253.651 256.624 253.843 256.976C254.046 257.328 254.318 257.6 254.659 257.792C255.001 257.984 255.385 258.08 255.811 258.08C256.206 258.08 256.569 257.989 256.899 257.808C257.241 257.616 257.523 257.312 257.747 256.896L259.683 257.952C259.363 258.645 258.867 259.184 258.195 259.568C257.523 259.941 256.734 260.128 255.827 260.128ZM263.024 260V252.864L263.584 253.44H260.112V251.392H268.416V253.44H264.944L265.504 252.864V260H263.024ZM273.42 260.128C272.502 260.128 271.686 259.936 270.972 259.552C270.268 259.168 269.708 258.645 269.292 257.984C268.886 257.312 268.684 256.549 268.684 255.696C268.684 254.832 268.886 254.069 269.292 253.408C269.708 252.736 270.268 252.213 270.972 251.84C271.686 251.456 272.502 251.264 273.42 251.264C274.326 251.264 275.137 251.456 275.852 251.84C276.566 252.213 277.126 252.731 277.532 253.392C277.937 254.053 278.14 254.821 278.14 255.696C278.14 256.549 277.937 257.312 277.532 257.984C277.126 258.645 276.566 259.168 275.852 259.552C275.137 259.936 274.326 260.128 273.42 260.128ZM273.42 258.08C273.836 258.08 274.209 257.984 274.54 257.792C274.87 257.6 275.132 257.328 275.324 256.976C275.516 256.613 275.612 256.187 275.612 255.696C275.612 255.195 275.516 254.768 275.324 254.416C275.132 254.064 274.87 253.792 274.54 253.6C274.209 253.408 273.836 253.312 273.42 253.312C273.004 253.312 272.63 253.408 272.299 253.6C271.969 253.792 271.702 254.064 271.5 254.416C271.308 254.768 271.212 255.195 271.212 255.696C271.212 256.187 271.308 256.613 271.5 256.976C271.702 257.328 271.969 257.6 272.299 257.792C272.63 257.984 273.004 258.08 273.42 258.08ZM279.856 260V251.392H282.336V256.512L286.528 251.392H288.816V260H286.336V254.88L282.16 260H279.856ZM284.176 250.464C283.238 250.464 282.534 250.261 282.064 249.856C281.595 249.44 281.355 248.816 281.344 247.984H282.976C282.987 248.347 283.088 248.635 283.28 248.848C283.472 249.061 283.766 249.168 284.16 249.168C284.544 249.168 284.838 249.061 285.04 248.848C285.254 248.635 285.36 248.347 285.36 247.984H287.024C287.024 248.816 286.784 249.44 286.304 249.856C285.824 250.261 285.115 250.464 284.176 250.464Z" fill="#141414"></path><path d="M845.808 240V230.32L846.4 230.912H842.24V228.8H851.952V230.912H847.792L848.368 230.32V240H845.808ZM856.721 240.128C855.739 240.128 854.875 239.936 854.129 239.552C853.393 239.168 852.822 238.645 852.417 237.984C852.011 237.312 851.809 236.549 851.809 235.696C851.809 234.832 852.006 234.069 852.401 233.408C852.806 232.736 853.355 232.213 854.049 231.84C854.742 231.456 855.526 231.264 856.401 231.264C857.243 231.264 858.001 231.445 858.673 231.808C859.355 232.16 859.894 232.672 860.289 233.344C860.683 234.005 860.881 234.8 860.881 235.728C860.881 235.824 860.875 235.936 860.865 236.064C860.854 236.181 860.843 236.293 860.833 236.4H853.841V234.944H859.521L858.561 235.376C858.561 234.928 858.47 234.539 858.289 234.208C858.107 233.877 857.857 233.621 857.537 233.44C857.217 233.248 856.843 233.152 856.417 233.152C855.99 233.152 855.611 233.248 855.281 233.44C854.961 233.621 854.71 233.883 854.529 234.224C854.347 234.555 854.257 234.949 854.257 235.408V235.792C854.257 236.261 854.358 236.677 854.561 237.04C854.774 237.392 855.067 237.664 855.441 237.856C855.825 238.037 856.273 238.128 856.785 238.128C857.243 238.128 857.643 238.059 857.985 237.92C858.337 237.781 858.657 237.573 858.945 237.296L860.273 238.736C859.878 239.184 859.382 239.531 858.785 239.776C858.187 240.011 857.499 240.128 856.721 240.128ZM861.407 240L865.263 234.944L865.215 236.32L861.519 231.392H864.319L866.655 234.608L865.599 234.64L868.015 231.392H870.671L866.959 236.272V234.928L870.799 240H867.967L865.519 236.576L866.559 236.72L864.127 240H861.407ZM872.028 240V231.392H874.508V234.752H878.252V231.392H880.748V240H878.252V236.784H874.508V240H872.028ZM883.138 240V231.392H885.618V236.512L889.81 231.392H892.098V240H889.618V234.88L885.442 240H883.138ZM899.921 236.704C899.569 236.896 899.18 237.051 898.753 237.168C898.326 237.285 897.857 237.344 897.345 237.344C896.214 237.344 895.345 237.088 894.737 236.576C894.129 236.053 893.825 235.227 893.825 234.096V231.392H896.321V233.936C896.321 234.469 896.46 234.853 896.737 235.088C897.014 235.312 897.404 235.424 897.905 235.424C898.268 235.424 898.614 235.381 898.945 235.296C899.286 235.211 899.612 235.088 899.921 234.928V236.704ZM899.745 240V231.392H902.241V240H899.745ZM908.846 240.128C907.864 240.128 907 239.936 906.254 239.552C905.518 239.168 904.947 238.645 904.542 237.984C904.136 237.312 903.934 236.549 903.934 235.696C903.934 234.832 904.131 234.069 904.526 233.408C904.931 232.736 905.48 232.213 906.174 231.84C906.867 231.456 907.651 231.264 908.526 231.264C909.368 231.264 910.126 231.445 910.798 231.808C911.48 232.16 912.019 232.672 912.414 233.344C912.808 234.005 913.006 234.8 913.006 235.728C913.006 235.824 913 235.936 912.99 236.064C912.979 236.181 912.968 236.293 912.958 236.4H905.966V234.944H911.646L910.686 235.376C910.686 234.928 910.595 234.539 910.414 234.208C910.232 233.877 909.982 233.621 909.662 233.44C909.342 233.248 908.968 233.152 908.542 233.152C908.115 233.152 907.736 233.248 907.406 233.44C907.086 233.621 906.835 233.883 906.654 234.224C906.472 234.555 906.382 234.949 906.382 235.408V235.792C906.382 236.261 906.483 236.677 906.686 237.04C906.899 237.392 907.192 237.664 907.566 237.856C907.95 238.037 908.398 238.128 908.91 238.128C909.368 238.128 909.768 238.059 910.11 237.92C910.462 237.781 910.782 237.573 911.07 237.296L912.398 238.736C912.003 239.184 911.507 239.531 910.91 239.776C910.312 240.011 909.624 240.128 908.846 240.128ZM919.015 240.128C918.087 240.128 917.26 239.941 916.535 239.568C915.809 239.184 915.239 238.656 914.823 237.984C914.417 237.312 914.215 236.549 914.215 235.696C914.215 234.832 914.417 234.069 914.823 233.408C915.239 232.736 915.809 232.213 916.535 231.84C917.26 231.456 918.087 231.264 919.015 231.264C919.921 231.264 920.711 231.456 921.383 231.84C922.055 232.213 922.551 232.752 922.871 233.456L920.935 234.496C920.711 234.091 920.428 233.792 920.087 233.6C919.756 233.408 919.393 233.312 918.999 233.312C918.572 233.312 918.188 233.408 917.847 233.6C917.505 233.792 917.233 234.064 917.031 234.416C916.839 234.768 916.743 235.195 916.743 235.696C916.743 236.197 916.839 236.624 917.031 236.976C917.233 237.328 917.505 237.6 917.847 237.792C918.188 237.984 918.572 238.08 918.999 238.08C919.393 238.08 919.756 237.989 920.087 237.808C920.428 237.616 920.711 237.312 920.935 236.896L922.871 237.952C922.551 238.645 922.055 239.184 921.383 239.568C920.711 239.941 919.921 240.128 919.015 240.128ZM930.484 240L927.604 235.92L929.636 234.72L933.428 240H930.484ZM924.388 240V231.392H926.884V240H924.388ZM926.148 236.736V234.736H929.156V236.736H926.148ZM929.876 235.984L927.54 235.728L930.564 231.392H933.22L929.876 235.984ZM938.42 240.128C937.502 240.128 936.686 239.936 935.972 239.552C935.268 239.168 934.708 238.645 934.292 237.984C933.886 237.312 933.684 236.549 933.684 235.696C933.684 234.832 933.886 234.069 934.292 233.408C934.708 232.736 935.268 232.213 935.972 231.84C936.686 231.456 937.502 231.264 938.42 231.264C939.326 231.264 940.137 231.456 940.852 231.84C941.566 232.213 942.126 232.731 942.532 233.392C942.937 234.053 943.14 234.821 943.14 235.696C943.14 236.549 942.937 237.312 942.532 237.984C942.126 238.645 941.566 239.168 940.852 239.552C940.137 239.936 939.326 240.128 938.42 240.128ZM938.42 238.08C938.836 238.08 939.209 237.984 939.54 237.792C939.87 237.6 940.132 237.328 940.324 236.976C940.516 236.613 940.612 236.187 940.612 235.696C940.612 235.195 940.516 234.768 940.324 234.416C940.132 234.064 939.87 233.792 939.54 233.6C939.209 233.408 938.836 233.312 938.42 233.312C938.004 233.312 937.63 233.408 937.299 233.6C936.969 233.792 936.702 234.064 936.5 234.416C936.308 234.768 936.212 235.195 936.212 235.696C936.212 236.187 936.308 236.613 936.5 236.976C936.702 237.328 936.969 237.6 937.299 237.792C937.63 237.984 938.004 238.08 938.42 238.08ZM949.064 240.128C948.083 240.128 947.219 239.936 946.472 239.552C945.736 239.168 945.166 238.645 944.76 237.984C944.355 237.312 944.152 236.549 944.152 235.696C944.152 234.832 944.35 234.069 944.744 233.408C945.15 232.736 945.699 232.213 946.392 231.84C947.086 231.456 947.87 231.264 948.744 231.264C949.587 231.264 950.344 231.445 951.016 231.808C951.699 232.16 952.238 232.672 952.632 233.344C953.027 234.005 953.224 234.8 953.224 235.728C953.224 235.824 953.219 235.936 953.208 236.064C953.198 236.181 953.187 236.293 953.176 236.4H946.184V234.944H951.864L950.904 235.376C950.904 234.928 950.814 234.539 950.632 234.208C950.451 233.877 950.2 233.621 949.88 233.44C949.56 233.248 949.187 233.152 948.76 233.152C948.334 233.152 947.955 233.248 947.624 233.44C947.304 233.621 947.054 233.883 946.872 234.224C946.691 234.555 946.6 234.949 946.6 235.408V235.792C946.6 236.261 946.702 236.677 946.904 237.04C947.118 237.392 947.411 237.664 947.784 237.856C948.168 238.037 948.616 238.128 949.128 238.128C949.587 238.128 949.987 238.059 950.328 237.92C950.68 237.781 951 237.573 951.288 237.296L952.616 238.736C952.222 239.184 951.726 239.531 951.128 239.776C950.531 240.011 949.843 240.128 949.064 240.128ZM847.232 260.128C846.315 260.128 845.499 259.936 844.784 259.552C844.08 259.168 843.52 258.645 843.104 257.984C842.699 257.312 842.496 256.549 842.496 255.696C842.496 254.832 842.699 254.069 843.104 253.408C843.52 252.736 844.08 252.213 844.784 251.84C845.499 251.456 846.315 251.264 847.232 251.264C848.139 251.264 848.949 251.456 849.664 251.84C850.379 252.213 850.939 252.731 851.344 253.392C851.749 254.053 851.952 254.821 851.952 255.696C851.952 256.549 851.749 257.312 851.344 257.984C850.939 258.645 850.379 259.168 849.664 259.552C848.949 259.936 848.139 260.128 847.232 260.128ZM847.232 258.08C847.648 258.08 848.021 257.984 848.352 257.792C848.683 257.6 848.944 257.328 849.136 256.976C849.328 256.613 849.424 256.187 849.424 255.696C849.424 255.195 849.328 254.768 849.136 254.416C848.944 254.064 848.683 253.792 848.352 253.6C848.021 253.408 847.648 253.312 847.232 253.312C846.816 253.312 846.443 253.408 846.112 253.6C845.781 253.792 845.515 254.064 845.312 254.416C845.12 254.768 845.024 255.195 845.024 255.696C845.024 256.187 845.12 256.613 845.312 256.976C845.515 257.328 845.781 257.6 846.112 257.792C846.443 257.984 846.816 258.08 847.232 258.08ZM857.941 260.192C857.237 260.192 856.597 260.091 856.021 259.888C855.445 259.675 854.943 259.349 854.517 258.912C854.101 258.464 853.775 257.893 853.541 257.2C853.317 256.507 853.205 255.68 853.205 254.72C853.205 254.037 853.263 253.413 853.381 252.848C853.498 252.283 853.674 251.771 853.909 251.312C854.143 250.843 854.442 250.432 854.805 250.08C855.178 249.717 855.61 249.419 856.101 249.184C856.602 248.939 857.167 248.752 857.797 248.624L861.893 247.808L862.229 249.952L858.613 250.672C858.399 250.715 858.154 250.773 857.877 250.848C857.61 250.912 857.338 251.013 857.061 251.152C856.794 251.291 856.543 251.488 856.309 251.744C856.085 251.989 855.903 252.315 855.765 252.72C855.626 253.115 855.557 253.605 855.557 254.192C855.557 254.373 855.562 254.512 855.573 254.608C855.594 254.704 855.61 254.805 855.621 254.912C855.642 255.019 855.653 255.184 855.653 255.408L854.853 254.624C855.087 254.123 855.386 253.696 855.749 253.344C856.122 252.992 856.549 252.725 857.029 252.544C857.519 252.352 858.063 252.256 858.661 252.256C859.471 252.256 860.181 252.421 860.789 252.752C861.407 253.072 861.887 253.525 862.229 254.112C862.57 254.699 862.741 255.365 862.741 256.112C862.741 256.923 862.538 257.637 862.133 258.256C861.727 258.864 861.162 259.339 860.437 259.68C859.722 260.021 858.89 260.192 857.941 260.192ZM858.069 258.256C858.485 258.256 858.853 258.165 859.173 257.984C859.493 257.792 859.738 257.541 859.909 257.232C860.09 256.912 860.181 256.555 860.181 256.16C860.181 255.776 860.09 255.435 859.909 255.136C859.738 254.837 859.493 254.603 859.173 254.432C858.853 254.261 858.479 254.176 858.053 254.176C857.637 254.176 857.263 254.261 856.933 254.432C856.602 254.592 856.346 254.816 856.165 255.104C855.983 255.392 855.893 255.728 855.893 256.112C855.893 256.507 855.983 256.869 856.165 257.2C856.357 257.52 856.613 257.776 856.933 257.968C857.263 258.16 857.642 258.256 858.069 258.256ZM868.53 260.128C867.602 260.128 866.776 259.941 866.05 259.568C865.325 259.184 864.754 258.656 864.338 257.984C863.933 257.312 863.73 256.549 863.73 255.696C863.73 254.832 863.933 254.069 864.338 253.408C864.754 252.736 865.325 252.213 866.05 251.84C866.776 251.456 867.602 251.264 868.53 251.264C869.437 251.264 870.226 251.456 870.898 251.84C871.57 252.213 872.066 252.752 872.386 253.456L870.45 254.496C870.226 254.091 869.944 253.792 869.602 253.6C869.272 253.408 868.909 253.312 868.514 253.312C868.088 253.312 867.704 253.408 867.362 253.6C867.021 253.792 866.749 254.064 866.546 254.416C866.354 254.768 866.258 255.195 866.258 255.696C866.258 256.197 866.354 256.624 866.546 256.976C866.749 257.328 867.021 257.6 867.362 257.792C867.704 257.984 868.088 258.08 868.514 258.08C868.909 258.08 869.272 257.989 869.602 257.808C869.944 257.616 870.226 257.312 870.45 256.896L872.386 257.952C872.066 258.645 871.57 259.184 870.898 259.568C870.226 259.941 869.437 260.128 868.53 260.128ZM872.675 259.984L872.803 257.936C872.867 257.947 872.931 257.957 872.995 257.968C873.059 257.968 873.117 257.968 873.171 257.968C873.469 257.968 873.704 257.883 873.875 257.712C874.045 257.541 874.173 257.312 874.259 257.024C874.344 256.725 874.403 256.389 874.435 256.016C874.477 255.643 874.509 255.253 874.531 254.848L874.659 251.392H882.019V260H879.523V252.832L880.083 253.44H876.307L876.835 252.8L876.723 254.96C876.691 255.728 876.627 256.432 876.531 257.072C876.445 257.712 876.301 258.267 876.099 258.736C875.896 259.195 875.624 259.552 875.283 259.808C874.941 260.053 874.504 260.176 873.971 260.176C873.779 260.176 873.576 260.16 873.363 260.128C873.149 260.096 872.92 260.048 872.675 259.984ZM885.587 263.232C885.139 263.232 884.696 263.163 884.259 263.024C883.821 262.885 883.464 262.693 883.187 262.448L884.099 260.672C884.291 260.843 884.509 260.976 884.755 261.072C885.011 261.168 885.261 261.216 885.507 261.216C885.859 261.216 886.136 261.131 886.339 260.96C886.552 260.8 886.744 260.528 886.915 260.144L887.363 259.088L887.555 258.816L890.643 251.392H893.043L889.155 260.528C888.877 261.221 888.557 261.765 888.195 262.16C887.843 262.555 887.448 262.832 887.011 262.992C886.584 263.152 886.109 263.232 885.587 263.232ZM887.059 260.336L883.219 251.392H885.795L888.771 258.592L887.059 260.336ZM904.115 260L901.827 255.92L903.843 254.72L907.075 260H904.115ZM900.355 256.736V254.736H903.347V256.736H900.355ZM904.099 255.984L901.747 255.728L904.227 251.392H906.867L904.099 255.984ZM895.603 260H892.659L895.875 254.72L897.891 255.92L895.603 260ZM901.091 260H898.627V251.392H901.091V260ZM899.363 256.736H896.387V254.736H899.363V256.736ZM895.619 255.984L892.851 251.392H895.491L897.955 255.728L895.619 255.984ZM908.372 260V251.392H910.852V256.512L915.044 251.392H917.332V260H914.852V254.88L910.676 260H908.372ZM919.731 260V251.392H924.131C925.209 251.392 926.051 251.589 926.659 251.984C927.267 252.368 927.571 252.912 927.571 253.616C927.571 254.32 927.283 254.875 926.707 255.28C926.142 255.675 925.39 255.872 924.451 255.872L924.707 255.296C925.753 255.296 926.531 255.488 927.043 255.872C927.566 256.256 927.827 256.816 927.827 257.552C927.827 258.309 927.539 258.907 926.963 259.344C926.387 259.781 925.507 260 924.323 260H919.731ZM922.019 258.304H924.115C924.574 258.304 924.915 258.229 925.139 258.08C925.374 257.92 925.491 257.68 925.491 257.36C925.491 257.029 925.385 256.789 925.171 256.64C924.958 256.48 924.622 256.4 924.163 256.4H922.019V258.304ZM922.019 254.928H923.907C924.345 254.928 924.67 254.848 924.883 254.688C925.107 254.528 925.219 254.299 925.219 254C925.219 253.691 925.107 253.461 924.883 253.312C924.67 253.163 924.345 253.088 923.907 253.088H922.019V254.928ZM934.836 260V258.32L934.676 257.952V254.944C934.676 254.411 934.511 253.995 934.18 253.696C933.86 253.397 933.364 253.248 932.692 253.248C932.234 253.248 931.78 253.323 931.332 253.472C930.895 253.611 930.522 253.803 930.212 254.048L929.316 252.304C929.786 251.973 930.351 251.717 931.012 251.536C931.674 251.355 932.346 251.264 933.028 251.264C934.34 251.264 935.359 251.573 936.084 252.192C936.81 252.811 937.172 253.776 937.172 255.088V260H934.836ZM932.212 260.128C931.54 260.128 930.964 260.016 930.484 259.792C930.004 259.557 929.636 259.243 929.38 258.848C929.124 258.453 928.996 258.011 928.996 257.52C928.996 257.008 929.119 256.56 929.364 256.176C929.62 255.792 930.02 255.493 930.564 255.28C931.108 255.056 931.818 254.944 932.692 254.944H934.98V256.4H932.964C932.378 256.4 931.972 256.496 931.748 256.688C931.535 256.88 931.428 257.12 931.428 257.408C931.428 257.728 931.551 257.984 931.796 258.176C932.052 258.357 932.399 258.448 932.836 258.448C933.252 258.448 933.626 258.352 933.956 258.16C934.287 257.957 934.527 257.664 934.676 257.28L935.06 258.432C934.879 258.987 934.548 259.408 934.068 259.696C933.588 259.984 932.97 260.128 932.212 260.128ZM939.341 260V251.392H941.821V254.752H945.565V251.392H948.061V260H945.565V256.784H941.821V260H939.341ZM950.45 260V251.392H952.93V256.512L957.122 251.392H959.41V260H956.93V254.88L952.754 260H950.45ZM966.017 260.128C965.036 260.128 964.172 259.936 963.425 259.552C962.689 259.168 962.119 258.645 961.713 257.984C961.308 257.312 961.105 256.549 961.105 255.696C961.105 254.832 961.303 254.069 961.697 253.408C962.103 252.736 962.652 252.213 963.345 251.84C964.039 251.456 964.823 251.264 965.697 251.264C966.54 251.264 967.297 251.445 967.969 251.808C968.652 252.16 969.191 252.672 969.585 253.344C969.98 254.005 970.177 254.8 970.177 255.728C970.177 255.824 970.172 255.936 970.161 256.064C970.151 256.181 970.14 256.293 970.129 256.4H963.137V254.944H968.817L967.857 255.376C967.857 254.928 967.767 254.539 967.585 254.208C967.404 253.877 967.153 253.621 966.833 253.44C966.513 253.248 966.14 253.152 965.713 253.152C965.287 253.152 964.908 253.248 964.577 253.44C964.257 253.621 964.007 253.883 963.825 254.224C963.644 254.555 963.553 254.949 963.553 255.408V255.792C963.553 256.261 963.655 256.677 963.857 257.04C964.071 257.392 964.364 257.664 964.737 257.856C965.121 258.037 965.569 258.128 966.081 258.128C966.54 258.128 966.94 258.059 967.281 257.92C967.633 257.781 967.953 257.573 968.241 257.296L969.569 258.736C969.175 259.184 968.679 259.531 968.081 259.776C967.484 260.011 966.796 260.128 966.017 260.128Z" fill="#141414"></path></g><defs><clipPath id="clip0_50796_115978"><rect width="819" height="396" fill="white" transform="translate(198 209)"></rect></clipPath><clipPath id="clip1_50796_115978"><rect x="821" y="210" width="196" height="332" fill="white"></rect></clipPath><clipPath id="clip2_50796_115978"><rect x="198" y="211" width="193" height="331" fill="white"></rect></clipPath></defs></svg> 