<?xml version="1.0" encoding="UTF-8"?> <svg xmlns="http://www.w3.org/2000/svg" width="1200" height="640" viewBox="0 0 1200 640" fill="none"><rect width="1200" height="640" fill="#141414"></rect><path d="M284.733 69.804H285.937C299.041 69.804 300.581 76.384 300.581 80.108V80.948C300.581 84.616 299.069 91.364 285.937 91.364H284.733C271.545 91.364 270.061 84.616 270.061 80.948V80.108C270.061 76.384 271.545 69.804 284.733 69.804ZM293.749 80.696V80.304C293.749 77.924 292.377 74.844 285.321 74.844C278.153 74.844 276.893 77.924 276.893 80.304V80.64C276.893 83.02 278.265 86.296 285.321 86.296C292.321 86.296 293.749 83.104 293.749 80.696ZM302.672 91V70.168H309.196V85.96H322.048V70.168H328.572V85.96H331.932V94.5H325.688V91H302.672ZM333.655 70.168H355.607V74.9H340.095V77.98H355.243V82.74H340.095V86.156H355.887V91H333.655V70.168ZM358.344 91V70.168H364.868V77.756H378.868V70.168H385.392V91H378.868V82.796H364.868V91H358.344ZM408.918 91V77.252L394.946 91H388.422V70.168H394.946V83.972L408.918 70.168H415.442V91H408.918ZM418.557 91V70.168H436.393C442.357 70.168 444.009 72.464 444.009 74.928V75.32C444.009 78.036 441.713 79.072 440.705 79.38C442.133 79.744 445.185 80.948 445.185 84.616V85.008C445.185 88.284 443.309 91 436.561 91H418.557ZM435.273 74.564H425.081V77.952H435.273C437.093 77.952 437.541 77.112 437.541 76.272V76.216C437.541 75.348 437.093 74.564 435.273 74.564ZM435.833 82.376H425.081V86.464H435.833C437.989 86.464 438.409 85.26 438.409 84.42V84.308C438.409 83.412 437.989 82.376 435.833 82.376ZM463.354 82.488L459.322 74.676L455.458 82.488H463.354ZM467.722 91L465.762 87.192H453.134L451.258 91H444.622L455.15 70.168H463.606L474.75 91H467.722ZM475.733 70.168H497.685V74.9H482.173V77.98H497.321V82.74H482.173V86.156H497.965V91H475.733V70.168ZM500.506 91V70.168H509.774L516.97 83.132L524.194 70.168H533.126V91H526.686V76.58L518.482 91H514.982L506.778 76.58V91H500.506ZM572.832 80.108V80.92C572.832 84.616 570.956 91.364 558.888 91.364H557.74C545.84 91.364 543.768 85.568 543.768 82.908V82.6H550.628C550.74 83.048 551.272 86.296 558.272 86.296C562.836 86.296 564.852 84.616 565.608 82.74H554.072V77.98H565.608C564.852 76.244 562.948 74.844 558.328 74.844C551.412 74.844 550.824 77.756 550.656 78.316H543.796V78.008C543.796 75.572 545.672 69.804 557.74 69.804H558.888C571.208 69.804 572.832 76.328 572.832 80.108ZM589.268 71.764V69.888H595.792V71.764H601.14C606.068 71.764 611.136 74.088 611.136 79.996V80.304C611.136 86.24 606.096 88.592 601.168 88.592H595.792V91.28H589.268V88.592H583.892C578.964 88.592 573.924 86.24 573.924 80.304V80.024C573.924 74.116 578.992 71.764 583.92 71.764H589.268ZM595.792 76.524V83.832H599.684C602.792 83.832 604.556 82.488 604.556 80.248V80.024C604.556 77.784 602.736 76.524 599.684 76.524H595.792ZM589.268 76.524H585.376C582.268 76.524 580.504 77.784 580.504 80.024V80.248C580.504 82.488 582.268 83.832 585.376 83.832H589.268V76.524ZM627.33 71.764V69.888H633.854V71.764H639.202C644.13 71.764 649.198 74.088 649.198 79.996V80.304C649.198 86.24 644.158 88.592 639.23 88.592H633.854V91.28H627.33V88.592H621.954C617.026 88.592 611.986 86.24 611.986 80.304V80.024C611.986 74.116 617.054 71.764 621.982 71.764H627.33ZM633.854 76.524V83.832H637.746C640.854 83.832 642.618 82.488 642.618 80.248V80.024C642.618 77.784 640.798 76.524 637.746 76.524H633.854ZM627.33 76.524H623.438C620.33 76.524 618.566 77.784 618.566 80.024V80.248C618.566 82.488 620.33 83.832 623.438 83.832H627.33V76.524ZM651.225 70.168H673.177V74.9H657.665V77.98H672.813V82.74H657.665V86.156H673.457V91H651.225V70.168ZM693.442 91L682.438 81.172V91H675.914V70.168H682.438V78.848L693.106 70.168H701.394L689.41 79.688L701.954 91H693.442ZM710.943 91V75.096H701.983V70.168H726.511V75.096H717.523V91H710.943ZM749.129 91V77.252L735.157 91H728.633V70.168H735.157V83.972L749.129 70.168H755.653V91H749.129ZM758.768 91V70.168H776.604C782.568 70.168 784.22 72.464 784.22 74.928V75.32C784.22 78.036 781.924 79.072 780.916 79.38C782.344 79.744 785.396 80.948 785.396 84.616V85.008C785.396 88.284 783.52 91 776.772 91H758.768ZM775.484 74.564H765.292V77.952H775.484C777.304 77.952 777.752 77.112 777.752 76.272V76.216C777.752 75.348 777.304 74.564 775.484 74.564ZM776.044 82.376H765.292V86.464H776.044C778.2 86.464 778.62 85.26 778.62 84.42V84.308C778.62 83.412 778.2 82.376 776.044 82.376ZM787.203 91V70.168H793.727V77.756H807.727V70.168H814.251V91H807.727V82.796H793.727V91H787.203ZM831.198 69.804H832.402C845.506 69.804 847.046 76.384 847.046 80.108V80.948C847.046 84.616 845.534 91.364 832.402 91.364H831.198C818.01 91.364 816.526 84.616 816.526 80.948V80.108C816.526 76.384 818.01 69.804 831.198 69.804ZM840.214 80.696V80.304C840.214 77.924 838.842 74.844 831.786 74.844C824.618 74.844 823.358 77.924 823.358 80.304V80.64C823.358 83.02 824.73 86.296 831.786 86.296C838.786 86.296 840.214 83.104 840.214 80.696ZM863.473 91.364H862.325C850.257 91.364 848.381 84.616 848.381 80.92V80.108C848.381 76.328 850.005 69.804 862.325 69.804H863.473C875.541 69.804 877.417 75.572 877.417 78.008V78.316H870.501C870.333 77.756 869.493 74.844 862.885 74.844C856.641 74.844 855.213 77.644 855.213 80.248V80.584C855.213 83.048 856.865 86.296 862.941 86.296C869.689 86.296 870.361 83.076 870.529 82.6H877.445V82.908C877.445 85.54 875.373 91.364 863.473 91.364ZM887.228 91V75.096H878.268V70.168H902.796V75.096H893.808V91H887.228ZM911.442 76.552H919.562C928.158 76.552 930.23 79.744 930.23 83.608V83.888C930.23 87.808 928.214 91 919.534 91H904.918V70.168H911.442V76.552ZM911.442 86.296H919.366C922.586 86.296 923.426 85.148 923.426 83.776V83.692C923.426 82.264 922.586 81.228 919.366 81.228H911.442V86.296ZM348.625 133V112.168H366.461C372.425 112.168 374.077 114.464 374.077 116.928V117.32C374.077 120.036 371.781 121.072 370.773 121.38C372.201 121.744 375.253 122.948 375.253 126.616V127.008C375.253 130.284 373.377 133 366.629 133H348.625ZM365.341 116.564H355.149V119.952H365.341C367.161 119.952 367.609 119.112 367.609 118.272V118.216C367.609 117.348 367.161 116.564 365.341 116.564ZM365.901 124.376H355.149V128.464H365.901C368.057 128.464 368.477 127.26 368.477 126.42V126.308C368.477 125.412 368.057 124.376 365.901 124.376ZM383.585 118.552H391.705C400.301 118.552 402.373 121.744 402.373 125.608V125.888C402.373 129.808 400.357 133 391.677 133H377.061V112.168H383.585V118.552ZM383.585 128.296H391.509C394.729 128.296 395.569 127.148 395.569 125.776V125.692C395.569 124.264 394.729 123.228 391.509 123.228H383.585V128.296ZM410.717 112.168V133H404.193V112.168H410.717ZM413.647 133V112.168H439.547V133H433.023V117.208H420.171V133H413.647ZM456.492 111.804H457.696C470.8 111.804 472.34 118.384 472.34 122.108V122.948C472.34 126.616 470.828 133.364 457.696 133.364H456.492C443.304 133.364 441.82 126.616 441.82 122.948V122.108C441.82 118.384 443.304 111.804 456.492 111.804ZM465.508 122.696V122.304C465.508 119.924 464.136 116.844 457.08 116.844C449.912 116.844 448.652 119.924 448.652 122.304V122.64C448.652 125.02 450.024 128.296 457.08 128.296C464.08 128.296 465.508 125.104 465.508 122.696ZM491.601 133V116.928H481.689C481.689 127.148 480.905 128.912 479.869 130.536C478.805 132.132 477.433 133 474.045 133H472.225V127.82H472.645C473.653 127.82 474.269 127.68 474.745 127.092C475.585 126.028 475.865 123.144 475.865 112.168H498.125V133H491.601ZM501.147 133V112.168H507.671V119.756H521.671V112.168H528.195V133H521.671V124.796H507.671V133H501.147ZM531.309 112.168H553.261V116.9H537.749V119.98H552.897V124.74H537.749V128.156H553.541V133H531.309V112.168ZM555.998 133V112.168H562.522V119.756H576.522V112.168H583.046V133H576.522V124.796H562.522V133H555.998ZM606.572 133V119.252L592.6 133H586.076V112.168H592.6V125.972L606.572 112.168H613.096V133H606.572ZM634.915 125.608H630.631L622.903 133H614.559L622.931 125.272C617.331 124.908 615.315 122.36 615.315 119.112V118.776C615.315 115.5 617.415 112.168 624.359 112.168H641.439V133H634.915V125.608ZM634.915 120.988V116.9H624.751C622.847 116.9 622.119 117.824 622.119 118.916V118.944C622.119 120.092 622.875 120.988 624.751 120.988H634.915ZM679.417 126.56V126.84C679.417 130.284 677.009 133.252 666.817 133.252H665.305C657.857 133.252 652.425 131.208 652.425 125.468V125.16H659.285C659.285 127.54 661.665 128.632 666.341 128.632C670.933 128.632 672.697 127.848 672.697 126.476V126.392C672.697 125.02 670.961 124.488 667.517 124.488H661.329V119.98H667.489C670.765 119.98 672.165 119.532 672.165 118.44V118.356C672.165 117.236 670.653 116.564 666.173 116.564C662.617 116.564 659.369 117.208 659.369 119.756H652.509V119.252C652.509 114.548 657.829 111.972 665.193 111.972H666.593C676.225 111.972 678.857 114.436 678.857 117.376V117.684C678.857 119.644 677.205 121.604 673.257 121.912C677.401 122.22 679.417 124.236 679.417 126.56ZM697.977 124.488L693.945 116.676L690.081 124.488H697.977ZM702.345 133L700.385 129.192H687.757L685.881 133H679.245L689.773 112.168H698.229L709.373 133H702.345ZM727.8 133L716.796 123.172V133H710.272V112.168H716.796V120.848L727.464 112.168H735.752L723.768 121.688L736.312 133H727.8ZM754.388 124.488L750.356 116.676L746.492 124.488H754.388ZM758.756 133L756.796 129.192H744.168L742.292 133H735.656L746.184 112.168H754.64L765.784 133H758.756ZM791.909 126.56V126.84C791.909 130.284 789.501 133.252 779.309 133.252H777.797C770.349 133.252 764.917 131.208 764.917 125.468V125.16H771.777C771.777 127.54 774.157 128.632 778.833 128.632C783.425 128.632 785.189 127.848 785.189 126.476V126.392C785.189 125.02 783.453 124.488 780.009 124.488H773.821V119.98H779.981C783.257 119.98 784.657 119.532 784.657 118.44V118.356C784.657 117.236 783.145 116.564 778.665 116.564C775.109 116.564 771.861 117.208 771.861 119.756H765.001V119.252C765.001 114.548 770.321 111.972 777.685 111.972H779.085C788.717 111.972 791.349 114.436 791.349 117.376V117.684C791.349 119.644 789.697 121.604 785.749 121.912C789.893 122.22 791.909 124.236 791.909 126.56ZM808.024 111.804H809.228C822.332 111.804 823.872 118.384 823.872 122.108V122.948C823.872 126.616 822.36 133.364 809.228 133.364H808.024C794.836 133.364 793.352 126.616 793.352 122.948V122.108C793.352 118.384 794.836 111.804 808.024 111.804ZM817.04 122.696V122.304C817.04 119.924 815.668 116.844 808.612 116.844C801.444 116.844 800.184 119.924 800.184 122.304V122.64C800.184 125.02 801.556 128.296 808.612 128.296C815.612 128.296 817.04 125.104 817.04 122.696ZM826.047 133V112.168H843.883C849.847 112.168 851.499 114.464 851.499 116.928V117.32C851.499 120.036 849.203 121.072 848.195 121.38C849.623 121.744 852.675 122.948 852.675 126.616V127.008C852.675 130.284 850.799 133 844.051 133H826.047ZM842.763 116.564H832.571V119.952H842.763C844.583 119.952 845.031 119.112 845.031 118.272V118.216C845.031 117.348 844.583 116.564 842.763 116.564ZM843.323 124.376H832.571V128.464H843.323C845.479 128.464 845.899 127.26 845.899 126.42V126.308C845.899 125.412 845.479 124.376 843.323 124.376Z" fill="white"></path><g clip-path="url(#clip0_50785_129435)"><path d="M279 176L279 542" stroke="white"></path><path d="M281.656 570V559.44L282.344 560.192H279.128V558.8H283.24V570H281.656ZM285.514 570V568.912L290.074 564.512C290.479 564.128 290.778 563.792 290.97 563.504C291.173 563.205 291.306 562.933 291.37 562.688C291.445 562.432 291.482 562.187 291.482 561.952C291.482 561.376 291.279 560.923 290.874 560.592C290.469 560.261 289.877 560.096 289.098 560.096C288.501 560.096 287.962 560.197 287.482 560.4C287.002 560.592 286.586 560.896 286.234 561.312L285.146 560.368C285.573 559.824 286.143 559.408 286.858 559.12C287.583 558.821 288.378 558.672 289.242 558.672C290.021 558.672 290.698 558.8 291.274 559.056C291.85 559.301 292.293 559.659 292.602 560.128C292.922 560.597 293.082 561.152 293.082 561.792C293.082 562.155 293.034 562.512 292.938 562.864C292.842 563.216 292.661 563.589 292.394 563.984C292.127 564.379 291.743 564.821 291.242 565.312L287.178 569.232L286.794 568.608H293.562V570H285.514ZM295.933 563.632C295.635 563.632 295.379 563.531 295.165 563.328C294.952 563.115 294.845 562.848 294.845 562.528C294.845 562.208 294.952 561.947 295.165 561.744C295.379 561.541 295.635 561.44 295.933 561.44C296.221 561.44 296.467 561.541 296.669 561.744C296.883 561.947 296.989 562.208 296.989 562.528C296.989 562.848 296.883 563.115 296.669 563.328C296.467 563.531 296.221 563.632 295.933 563.632ZM295.933 570.096C295.635 570.096 295.379 569.995 295.165 569.792C294.952 569.579 294.845 569.312 294.845 568.992C294.845 568.672 294.952 568.411 295.165 568.208C295.379 568.005 295.635 567.904 295.933 567.904C296.221 567.904 296.467 568.005 296.669 568.208C296.883 568.411 296.989 568.672 296.989 568.992C296.989 569.312 296.883 569.579 296.669 569.792C296.467 569.995 296.221 570.096 295.933 570.096ZM303.078 570.128C302.204 570.128 301.42 569.904 300.726 569.456C300.044 569.008 299.5 568.357 299.094 567.504C298.7 566.651 298.502 565.616 298.502 564.4C298.502 563.184 298.7 562.149 299.094 561.296C299.5 560.443 300.044 559.792 300.726 559.344C301.42 558.896 302.204 558.672 303.078 558.672C303.942 558.672 304.721 558.896 305.414 559.344C306.108 559.792 306.652 560.443 307.046 561.296C307.441 562.149 307.638 563.184 307.638 564.4C307.638 565.616 307.441 566.651 307.046 567.504C306.652 568.357 306.108 569.008 305.414 569.456C304.721 569.904 303.942 570.128 303.078 570.128ZM303.078 568.704C303.665 568.704 304.177 568.544 304.614 568.224C305.062 567.904 305.409 567.424 305.654 566.784C305.91 566.144 306.038 565.349 306.038 564.4C306.038 563.451 305.91 562.656 305.654 562.016C305.409 561.376 305.062 560.896 304.614 560.576C304.177 560.256 303.665 560.096 303.078 560.096C302.492 560.096 301.974 560.256 301.526 560.576C301.078 560.896 300.726 561.376 300.47 562.016C300.225 562.656 300.102 563.451 300.102 564.4C300.102 565.349 300.225 566.144 300.47 566.784C300.726 567.424 301.078 567.904 301.526 568.224C301.974 568.544 302.492 568.704 303.078 568.704ZM313.75 570.128C312.876 570.128 312.092 569.904 311.398 569.456C310.716 569.008 310.172 568.357 309.766 567.504C309.372 566.651 309.174 565.616 309.174 564.4C309.174 563.184 309.372 562.149 309.766 561.296C310.172 560.443 310.716 559.792 311.398 559.344C312.092 558.896 312.876 558.672 313.75 558.672C314.614 558.672 315.393 558.896 316.086 559.344C316.78 559.792 317.324 560.443 317.718 561.296C318.113 562.149 318.31 563.184 318.31 564.4C318.31 565.616 318.113 566.651 317.718 567.504C317.324 568.357 316.78 569.008 316.086 569.456C315.393 569.904 314.614 570.128 313.75 570.128ZM313.75 568.704C314.337 568.704 314.849 568.544 315.286 568.224C315.734 567.904 316.081 567.424 316.326 566.784C316.582 566.144 316.71 565.349 316.71 564.4C316.71 563.451 316.582 562.656 316.326 562.016C316.081 561.376 315.734 560.896 315.286 560.576C314.849 560.256 314.337 560.096 313.75 560.096C313.164 560.096 312.646 560.256 312.198 560.576C311.75 560.896 311.398 561.376 311.142 562.016C310.897 562.656 310.774 563.451 310.774 564.4C310.774 565.349 310.897 566.144 311.142 566.784C311.398 567.424 311.75 567.904 312.198 568.224C312.646 568.544 313.164 568.704 313.75 568.704Z" fill="white"></path><path opacity="0.2" d="M509 176L509 542" stroke="white"></path><path opacity="0.2" d="M739 176L739 542" stroke="white"></path><path d="M741.656 570V559.44L742.344 560.192H739.128V558.8H743.24V570H741.656ZM745.53 567.248V566.128L751.258 558.8H752.986L747.306 566.128L746.49 565.872H755.434V567.248H745.53ZM751.754 570V567.248L751.802 565.872V563.44H753.306V570H751.754ZM757.558 563.632C757.26 563.632 757.004 563.531 756.79 563.328C756.577 563.115 756.47 562.848 756.47 562.528C756.47 562.208 756.577 561.947 756.79 561.744C757.004 561.541 757.26 561.44 757.558 561.44C757.846 561.44 758.092 561.541 758.294 561.744C758.508 561.947 758.614 562.208 758.614 562.528C758.614 562.848 758.508 563.115 758.294 563.328C758.092 563.531 757.846 563.632 757.558 563.632ZM757.558 570.096C757.26 570.096 757.004 569.995 756.79 569.792C756.577 569.579 756.47 569.312 756.47 568.992C756.47 568.672 756.577 568.411 756.79 568.208C757.004 568.005 757.26 567.904 757.558 567.904C757.846 567.904 758.092 568.005 758.294 568.208C758.508 568.411 758.614 568.672 758.614 568.992C758.614 569.312 758.508 569.579 758.294 569.792C758.092 569.995 757.846 570.096 757.558 570.096ZM764.703 570.128C763.829 570.128 763.045 569.904 762.351 569.456C761.669 569.008 761.125 568.357 760.719 567.504C760.325 566.651 760.127 565.616 760.127 564.4C760.127 563.184 760.325 562.149 760.719 561.296C761.125 560.443 761.669 559.792 762.351 559.344C763.045 558.896 763.829 558.672 764.703 558.672C765.567 558.672 766.346 558.896 767.039 559.344C767.733 559.792 768.277 560.443 768.671 561.296C769.066 562.149 769.263 563.184 769.263 564.4C769.263 565.616 769.066 566.651 768.671 567.504C768.277 568.357 767.733 569.008 767.039 569.456C766.346 569.904 765.567 570.128 764.703 570.128ZM764.703 568.704C765.29 568.704 765.802 568.544 766.239 568.224C766.687 567.904 767.034 567.424 767.279 566.784C767.535 566.144 767.663 565.349 767.663 564.4C767.663 563.451 767.535 562.656 767.279 562.016C767.034 561.376 766.687 560.896 766.239 560.576C765.802 560.256 765.29 560.096 764.703 560.096C764.117 560.096 763.599 560.256 763.151 560.576C762.703 560.896 762.351 561.376 762.095 562.016C761.85 562.656 761.727 563.451 761.727 564.4C761.727 565.349 761.85 566.144 762.095 566.784C762.351 567.424 762.703 567.904 763.151 568.224C763.599 568.544 764.117 568.704 764.703 568.704ZM775.375 570.128C774.501 570.128 773.717 569.904 773.023 569.456C772.341 569.008 771.797 568.357 771.391 567.504C770.997 566.651 770.799 565.616 770.799 564.4C770.799 563.184 770.997 562.149 771.391 561.296C771.797 560.443 772.341 559.792 773.023 559.344C773.717 558.896 774.501 558.672 775.375 558.672C776.239 558.672 777.018 558.896 777.711 559.344C778.405 559.792 778.949 560.443 779.343 561.296C779.738 562.149 779.935 563.184 779.935 564.4C779.935 565.616 779.738 566.651 779.343 567.504C778.949 568.357 778.405 569.008 777.711 569.456C777.018 569.904 776.239 570.128 775.375 570.128ZM775.375 568.704C775.962 568.704 776.474 568.544 776.911 568.224C777.359 567.904 777.706 567.424 777.951 566.784C778.207 566.144 778.335 565.349 778.335 564.4C778.335 563.451 778.207 562.656 777.951 562.016C777.706 561.376 777.359 560.896 776.911 560.576C776.474 560.256 775.962 560.096 775.375 560.096C774.789 560.096 774.271 560.256 773.823 560.576C773.375 560.896 773.023 561.376 772.767 562.016C772.522 562.656 772.399 563.451 772.399 564.4C772.399 565.349 772.522 566.144 772.767 566.784C773.023 567.424 773.375 567.904 773.823 568.224C774.271 568.544 774.789 568.704 775.375 568.704Z" fill="white"></path><path opacity="0.2" d="M976 176L976 542" stroke="white"></path><path d="M978.656 570V559.44L979.344 560.192H976.128V558.8H980.24V570H978.656ZM986.306 570.128C985.517 570.128 984.749 570.005 984.002 569.76C983.266 569.515 982.663 569.184 982.194 568.768L982.93 567.504C983.303 567.856 983.789 568.144 984.386 568.368C984.983 568.592 985.618 568.704 986.29 568.704C987.143 568.704 987.799 568.523 988.258 568.16C988.717 567.797 988.946 567.312 988.946 566.704C988.946 566.288 988.845 565.925 988.642 565.616C988.439 565.307 988.087 565.072 987.586 564.912C987.095 564.741 986.418 564.656 985.554 564.656H983.01L983.602 558.8H989.922V560.192H984.194L985.026 559.408L984.562 564.032L983.73 563.264H985.89C987.01 563.264 987.911 563.408 988.594 563.696C989.277 563.984 989.773 564.384 990.082 564.896C990.391 565.397 990.546 565.979 990.546 566.64C990.546 567.28 990.391 567.867 990.082 568.4C989.773 568.923 989.303 569.344 988.674 569.664C988.055 569.973 987.266 570.128 986.306 570.128ZM992.933 563.632C992.635 563.632 992.379 563.531 992.165 563.328C991.952 563.115 991.845 562.848 991.845 562.528C991.845 562.208 991.952 561.947 992.165 561.744C992.379 561.541 992.635 561.44 992.933 561.44C993.221 561.44 993.467 561.541 993.669 561.744C993.883 561.947 993.989 562.208 993.989 562.528C993.989 562.848 993.883 563.115 993.669 563.328C993.467 563.531 993.221 563.632 992.933 563.632ZM992.933 570.096C992.635 570.096 992.379 569.995 992.165 569.792C991.952 569.579 991.845 569.312 991.845 568.992C991.845 568.672 991.952 568.411 992.165 568.208C992.379 568.005 992.635 567.904 992.933 567.904C993.221 567.904 993.467 568.005 993.669 568.208C993.883 568.411 993.989 568.672 993.989 568.992C993.989 569.312 993.883 569.579 993.669 569.792C993.467 569.995 993.221 570.096 992.933 570.096ZM1000.08 570.128C999.204 570.128 998.42 569.904 997.726 569.456C997.044 569.008 996.5 568.357 996.094 567.504C995.7 566.651 995.502 565.616 995.502 564.4C995.502 563.184 995.7 562.149 996.094 561.296C996.5 560.443 997.044 559.792 997.726 559.344C998.42 558.896 999.204 558.672 1000.08 558.672C1000.94 558.672 1001.72 558.896 1002.41 559.344C1003.11 559.792 1003.65 560.443 1004.05 561.296C1004.44 562.149 1004.64 563.184 1004.64 564.4C1004.64 565.616 1004.44 566.651 1004.05 567.504C1003.65 568.357 1003.11 569.008 1002.41 569.456C1001.72 569.904 1000.94 570.128 1000.08 570.128ZM1000.08 568.704C1000.67 568.704 1001.18 568.544 1001.61 568.224C1002.06 567.904 1002.41 567.424 1002.65 566.784C1002.91 566.144 1003.04 565.349 1003.04 564.4C1003.04 563.451 1002.91 562.656 1002.65 562.016C1002.41 561.376 1002.06 560.896 1001.61 560.576C1001.18 560.256 1000.67 560.096 1000.08 560.096C999.492 560.096 998.974 560.256 998.526 560.576C998.078 560.896 997.726 561.376 997.47 562.016C997.225 562.656 997.102 563.451 997.102 564.4C997.102 565.349 997.225 566.144 997.47 566.784C997.726 567.424 998.078 567.904 998.526 568.224C998.974 568.544 999.492 568.704 1000.08 568.704ZM1010.75 570.128C1009.88 570.128 1009.09 569.904 1008.4 569.456C1007.72 569.008 1007.17 568.357 1006.77 567.504C1006.37 566.651 1006.17 565.616 1006.17 564.4C1006.17 563.184 1006.37 562.149 1006.77 561.296C1007.17 560.443 1007.72 559.792 1008.4 559.344C1009.09 558.896 1009.88 558.672 1010.75 558.672C1011.61 558.672 1012.39 558.896 1013.09 559.344C1013.78 559.792 1014.32 560.443 1014.72 561.296C1015.11 562.149 1015.31 563.184 1015.31 564.4C1015.31 565.616 1015.11 566.651 1014.72 567.504C1014.32 568.357 1013.78 569.008 1013.09 569.456C1012.39 569.904 1011.61 570.128 1010.75 570.128ZM1010.75 568.704C1011.34 568.704 1011.85 568.544 1012.29 568.224C1012.73 567.904 1013.08 567.424 1013.33 566.784C1013.58 566.144 1013.71 565.349 1013.71 564.4C1013.71 563.451 1013.58 562.656 1013.33 562.016C1013.08 561.376 1012.73 560.896 1012.29 560.576C1011.85 560.256 1011.34 560.096 1010.75 560.096C1010.16 560.096 1009.65 560.256 1009.2 560.576C1008.75 560.896 1008.4 561.376 1008.14 562.016C1007.9 562.656 1007.77 563.451 1007.77 564.4C1007.77 565.349 1007.9 566.144 1008.14 566.784C1008.4 567.424 1008.75 567.904 1009.2 568.224C1009.65 568.544 1010.16 568.704 1010.75 568.704Z" fill="white"></path><rect width="183" height="83" transform="translate(280.5 210)" fill="white"></rect><path fill-rule="evenodd" clip-rule="evenodd" d="M334.103 248.691C333.157 248.124 331.991 248.061 330.989 248.523C330.843 248.59 330.75 248.736 330.75 248.897V253.047C332.11 252.5 333.65 252.62 334.91 253.376L335.169 253.531C336.052 254.061 337.145 254.103 338.067 253.643C338.179 253.586 338.25 253.472 338.25 253.346V249.136C336.922 249.625 335.436 249.491 334.211 248.756L334.103 248.691ZM338.57 254.649C337.304 255.282 335.803 255.224 334.59 254.496L334.332 254.341C333.351 253.752 332.147 253.671 331.096 254.121L330.75 254.269V256.711C330.75 257.022 330.498 257.274 330.188 257.274C329.877 257.274 329.625 257.022 329.625 256.711V248.897C329.625 248.298 329.974 247.753 330.518 247.502C331.858 246.883 333.416 246.967 334.682 247.727L334.789 247.791C335.803 248.399 337.052 248.467 338.125 247.971L338.577 247.763C338.751 247.682 338.954 247.696 339.116 247.8C339.277 247.903 339.375 248.082 339.375 248.274V253.346C339.375 253.898 339.063 254.402 338.57 254.649Z" fill="#141414"></path><path d="M348.673 257.129C348.064 257.129 347.521 257.025 347.044 256.815C346.57 256.606 346.193 256.315 345.913 255.943C345.636 255.567 345.485 255.132 345.46 254.636H346.624C346.648 254.941 346.753 255.204 346.938 255.426C347.122 255.644 347.364 255.814 347.662 255.934C347.961 256.054 348.292 256.114 348.655 256.114C349.061 256.114 349.421 256.043 349.735 255.901C350.049 255.76 350.295 255.563 350.474 255.31C350.652 255.058 350.741 254.766 350.741 254.433C350.741 254.085 350.655 253.779 350.483 253.515C350.311 253.247 350.058 253.038 349.726 252.887C349.393 252.736 348.987 252.661 348.507 252.661H347.75V251.645H348.507C348.883 251.645 349.212 251.577 349.495 251.442C349.781 251.306 350.004 251.116 350.164 250.869C350.328 250.623 350.409 250.334 350.409 250.001C350.409 249.681 350.338 249.403 350.197 249.166C350.055 248.929 349.855 248.744 349.597 248.612C349.341 248.48 349.04 248.413 348.692 248.413C348.366 248.413 348.058 248.473 347.768 248.593C347.482 248.71 347.248 248.881 347.067 249.106C346.885 249.327 346.787 249.595 346.771 249.909H345.663C345.682 249.414 345.831 248.98 346.111 248.607C346.391 248.232 346.757 247.939 347.21 247.73C347.665 247.521 348.165 247.416 348.71 247.416C349.295 247.416 349.797 247.535 350.215 247.772C350.634 248.006 350.955 248.315 351.18 248.7C351.405 249.084 351.517 249.5 351.517 249.946C351.517 250.478 351.377 250.932 351.097 251.308C350.82 251.683 350.443 251.943 349.966 252.088V252.162C350.563 252.26 351.029 252.514 351.365 252.924C351.7 253.33 351.868 253.833 351.868 254.433C351.868 254.947 351.728 255.409 351.448 255.818C351.171 256.224 350.792 256.545 350.312 256.778C349.832 257.012 349.286 257.129 348.673 257.129ZM355.861 257.166C355.412 257.166 355.004 257.082 354.638 256.912C354.272 256.74 353.981 256.492 353.765 256.169C353.55 255.843 353.442 255.449 353.442 254.987C353.442 254.581 353.522 254.252 353.682 253.999C353.842 253.744 354.056 253.544 354.324 253.399C354.592 253.254 354.887 253.147 355.21 253.076C355.536 253.002 355.864 252.944 356.194 252.901C356.624 252.845 356.974 252.804 357.241 252.776C357.512 252.745 357.709 252.694 357.832 252.624C357.959 252.553 358.022 252.43 358.022 252.254V252.217C358.022 251.762 357.897 251.408 357.648 251.156C357.402 250.903 357.028 250.777 356.526 250.777C356.006 250.777 355.598 250.891 355.303 251.119C355.007 251.346 354.799 251.589 354.679 251.848L353.645 251.479C353.83 251.048 354.076 250.712 354.384 250.472C354.695 250.229 355.033 250.06 355.4 249.964C355.769 249.866 356.132 249.817 356.489 249.817C356.717 249.817 356.978 249.844 357.274 249.9C357.572 249.952 357.86 250.061 358.137 250.228C358.417 250.394 358.65 250.645 358.834 250.98C359.019 251.316 359.111 251.765 359.111 252.328V257H358.022V256.04H357.966C357.892 256.194 357.769 256.358 357.597 256.534C357.425 256.709 357.195 256.858 356.909 256.982C356.623 257.105 356.274 257.166 355.861 257.166ZM356.027 256.188C356.458 256.188 356.821 256.103 357.117 255.934C357.415 255.764 357.64 255.546 357.791 255.278C357.945 255.01 358.022 254.729 358.022 254.433V253.436C357.975 253.491 357.874 253.542 357.717 253.588C357.563 253.632 357.385 253.67 357.181 253.704C356.981 253.735 356.786 253.762 356.595 253.787C356.407 253.808 356.255 253.827 356.138 253.842C355.855 253.879 355.59 253.939 355.344 254.022C355.101 254.102 354.904 254.224 354.753 254.387C354.605 254.547 354.532 254.766 354.532 255.043C354.532 255.421 354.672 255.707 354.952 255.901C355.235 256.092 355.593 256.188 356.027 256.188ZM361.1 257V249.909H363.999C364.762 249.909 365.368 250.081 365.818 250.426C366.267 250.771 366.492 251.226 366.492 251.793C366.492 252.223 366.364 252.557 366.109 252.794C365.853 253.028 365.525 253.187 365.125 253.27C365.387 253.307 365.641 253.399 365.887 253.547C366.136 253.695 366.342 253.898 366.506 254.156C366.669 254.412 366.75 254.726 366.75 255.098C366.75 255.461 366.658 255.786 366.473 256.072C366.289 256.358 366.024 256.585 365.679 256.751C365.335 256.917 364.922 257 364.442 257H361.1ZM362.134 256.003H364.442C364.818 256.003 365.111 255.914 365.324 255.735C365.536 255.557 365.642 255.313 365.642 255.006C365.642 254.639 365.536 254.352 365.324 254.142C365.111 253.93 364.818 253.824 364.442 253.824H362.134V256.003ZM362.134 252.882H363.999C364.291 252.882 364.542 252.842 364.751 252.762C364.961 252.679 365.121 252.562 365.231 252.411C365.345 252.257 365.402 252.076 365.402 251.866C365.402 251.568 365.278 251.334 365.028 251.165C364.779 250.992 364.436 250.906 363.999 250.906H362.134V252.882ZM371.373 257.148C370.689 257.148 370.1 256.997 369.604 256.695C369.112 256.391 368.732 255.966 368.464 255.421C368.199 254.873 368.067 254.236 368.067 253.51C368.067 252.784 368.199 252.143 368.464 251.589C368.732 251.032 369.104 250.598 369.581 250.288C370.061 249.974 370.622 249.817 371.262 249.817C371.631 249.817 371.996 249.878 372.356 250.001C372.716 250.125 373.044 250.325 373.339 250.602C373.635 250.875 373.87 251.239 374.045 251.691C374.221 252.143 374.309 252.701 374.309 253.362V253.824H368.843V252.882H373.201C373.201 252.482 373.121 252.125 372.961 251.811C372.804 251.497 372.579 251.249 372.287 251.068C371.997 250.886 371.656 250.795 371.262 250.795C370.828 250.795 370.452 250.903 370.135 251.119C369.821 251.331 369.58 251.608 369.411 251.95C369.241 252.291 369.157 252.657 369.157 253.048V253.676C369.157 254.212 369.249 254.666 369.434 255.038C369.621 255.407 369.881 255.689 370.214 255.883C370.546 256.074 370.932 256.169 371.373 256.169C371.659 256.169 371.917 256.129 372.148 256.049C372.382 255.966 372.584 255.843 372.753 255.68C372.922 255.513 373.053 255.307 373.145 255.061L374.198 255.357C374.087 255.714 373.901 256.027 373.639 256.298C373.378 256.566 373.054 256.775 372.67 256.926C372.285 257.074 371.853 257.148 371.373 257.148ZM375.966 259.659V249.909H377.018V251.036H377.148C377.228 250.912 377.339 250.755 377.48 250.565C377.625 250.371 377.831 250.198 378.099 250.048C378.37 249.894 378.736 249.817 379.197 249.817C379.795 249.817 380.321 249.966 380.776 250.265C381.232 250.563 381.587 250.986 381.843 251.534C382.098 252.082 382.226 252.728 382.226 253.473C382.226 254.224 382.098 254.875 381.843 255.426C381.587 255.974 381.233 256.398 380.781 256.7C380.328 256.998 379.807 257.148 379.216 257.148C378.76 257.148 378.396 257.072 378.122 256.922C377.848 256.768 377.637 256.594 377.489 256.4C377.342 256.203 377.228 256.04 377.148 255.911H377.055V259.659H375.966ZM377.037 253.455C377.037 253.99 377.115 254.462 377.272 254.872C377.429 255.278 377.659 255.597 377.96 255.827C378.262 256.055 378.631 256.169 379.068 256.169C379.524 256.169 379.904 256.049 380.208 255.809C380.516 255.566 380.747 255.24 380.901 254.83C381.058 254.418 381.136 253.959 381.136 253.455C381.136 252.956 381.059 252.507 380.906 252.107C380.755 251.703 380.525 251.385 380.218 251.151C379.913 250.914 379.53 250.795 379.068 250.795C378.625 250.795 378.253 250.908 377.951 251.132C377.649 251.354 377.422 251.665 377.268 252.065C377.114 252.462 377.037 252.925 377.037 253.455ZM383.888 249.909H384.977V255.984H387.655V249.909H388.744V255.984H391.422V249.909H392.511V257H383.888V249.909ZM397.474 257.148C396.791 257.148 396.201 256.997 395.706 256.695C395.214 256.391 394.833 255.966 394.566 255.421C394.301 254.873 394.169 254.236 394.169 253.51C394.169 252.784 394.301 252.143 394.566 251.589C394.833 251.032 395.206 250.598 395.683 250.288C396.163 249.974 396.723 249.817 397.363 249.817C397.733 249.817 398.097 249.878 398.457 250.001C398.817 250.125 399.145 250.325 399.441 250.602C399.736 250.875 399.972 251.239 400.147 251.691C400.322 252.143 400.41 252.701 400.41 253.362V253.824H394.944V252.882H399.302C399.302 252.482 399.222 252.125 399.062 251.811C398.905 251.497 398.681 251.249 398.388 251.068C398.099 250.886 397.757 250.795 397.363 250.795C396.929 250.795 396.554 250.903 396.237 251.119C395.923 251.331 395.681 251.608 395.512 251.95C395.343 252.291 395.258 252.657 395.258 253.048V253.676C395.258 254.212 395.35 254.666 395.535 255.038C395.723 255.407 395.983 255.689 396.315 255.883C396.648 256.074 397.034 256.169 397.474 256.169C397.76 256.169 398.019 256.129 398.25 256.049C398.484 255.966 398.685 255.843 398.854 255.68C399.024 255.513 399.154 255.307 399.247 255.061L400.299 255.357C400.189 255.714 400.002 256.027 399.741 256.298C399.479 256.566 399.156 256.775 398.771 256.926C398.387 257.074 397.954 257.148 397.474 257.148ZM406.813 252.956V253.972H402.898V252.956H406.813ZM403.157 249.909V257H402.067V249.909H403.157ZM407.644 249.909V257H406.555V249.909H407.644ZM412.515 257.148C411.874 257.148 411.313 256.995 410.83 256.691C410.349 256.386 409.974 255.96 409.703 255.412C409.435 254.864 409.301 254.224 409.301 253.491C409.301 252.753 409.435 252.108 409.703 251.557C409.974 251.006 410.349 250.578 410.83 250.274C411.313 249.969 411.874 249.817 412.515 249.817C413.155 249.817 413.715 249.969 414.195 250.274C414.678 250.578 415.054 251.006 415.321 251.557C415.592 252.108 415.728 252.753 415.728 253.491C415.728 254.224 415.592 254.864 415.321 255.412C415.054 255.96 414.678 256.386 414.195 256.691C413.715 256.995 413.155 257.148 412.515 257.148ZM412.515 256.169C413.001 256.169 413.401 256.044 413.715 255.795C414.029 255.546 414.261 255.218 414.412 254.812C414.563 254.406 414.638 253.965 414.638 253.491C414.638 253.018 414.563 252.576 414.412 252.167C414.261 251.757 414.029 251.426 413.715 251.174C413.401 250.922 413.001 250.795 412.515 250.795C412.028 250.795 411.628 250.922 411.314 251.174C411 251.426 410.768 251.757 410.617 252.167C410.466 252.576 410.391 253.018 410.391 253.491C410.391 253.965 410.466 254.406 410.617 254.812C410.768 255.218 411 255.546 411.314 255.795C411.628 256.044 412.028 256.169 412.515 256.169Z" fill="#141414"></path><path d="M280 293H740V375.5H280V293Z" fill="#9BD32E"></path><path d="M280 293H740V375.5H280V293Z" stroke="#141414"></path><path fill-rule="evenodd" clip-rule="evenodd" d="M682.103 330.691C681.157 330.124 679.991 330.061 678.989 330.523C678.843 330.59 678.75 330.736 678.75 330.897V335.047C680.11 334.5 681.65 334.62 682.91 335.376L683.169 335.531C684.052 336.061 685.145 336.103 686.067 335.643C686.179 335.586 686.25 335.472 686.25 335.346V331.136C684.922 331.625 683.436 331.491 682.211 330.756L682.103 330.691ZM686.57 336.649C685.304 337.282 683.803 337.224 682.59 336.496L682.332 336.341C681.351 335.752 680.147 335.671 679.096 336.121L678.75 336.269V338.711C678.75 339.022 678.498 339.274 678.188 339.274C677.877 339.274 677.625 339.022 677.625 338.711V330.897C677.625 330.298 677.974 329.753 678.518 329.502C679.858 328.883 681.416 328.967 682.682 329.727L682.789 329.791C683.803 330.399 685.052 330.467 686.125 329.971L686.577 329.763C686.751 329.682 686.954 329.696 687.116 329.8C687.277 329.903 687.375 330.082 687.375 330.274V335.346C687.375 335.898 687.063 336.402 686.57 336.649Z" fill="#141414"></path><path d="M693.257 337.061V336.119L697.412 329.545H698.095V331.004H697.634L694.494 335.972V336.045H700.089V337.061H693.257ZM697.707 339V336.775V336.336V329.545H698.797V339H697.707ZM704.774 339.129C704.232 339.129 703.745 339.022 703.311 338.806C702.877 338.591 702.529 338.295 702.267 337.92C702.006 337.544 701.863 337.116 701.838 336.636H702.946C702.989 337.064 703.183 337.418 703.528 337.698C703.875 337.975 704.291 338.114 704.774 338.114C705.162 338.114 705.507 338.023 705.808 337.841C706.113 337.66 706.351 337.41 706.524 337.093C706.699 336.773 706.787 336.412 706.787 336.009C706.787 335.596 706.696 335.228 706.514 334.905C706.336 334.579 706.09 334.322 705.776 334.134C705.462 333.946 705.103 333.851 704.7 333.848C704.411 333.845 704.114 333.89 703.809 333.982C703.505 334.071 703.254 334.187 703.057 334.328L701.986 334.199L702.558 329.545H707.47V330.561H703.518L703.186 333.349H703.241C703.435 333.196 703.678 333.068 703.971 332.966C704.263 332.865 704.568 332.814 704.885 332.814C705.463 332.814 705.979 332.952 706.431 333.229C706.887 333.503 707.244 333.879 707.502 334.356C707.764 334.833 707.895 335.378 707.895 335.99C707.895 336.593 707.759 337.132 707.489 337.606C707.221 338.077 706.851 338.449 706.381 338.723C705.91 338.994 705.374 339.129 704.774 339.129ZM717.281 337.523L719.756 331.909H720.79L717.724 339H716.838L713.828 331.909H714.844L717.281 337.523ZM714.493 331.909V339H713.403V331.909H714.493ZM720.07 339V331.909H721.159V339H720.07Z" fill="#141414"></path><path d="M280 376H977V458.5H280V376Z" fill="#9BD32E"></path><path d="M280 376H977V458.5H280V376Z" stroke="#141414"></path><path fill-rule="evenodd" clip-rule="evenodd" d="M898.103 413.691C897.157 413.124 895.991 413.061 894.989 413.523C894.843 413.59 894.75 413.736 894.75 413.897V418.047C896.11 417.5 897.65 417.62 898.91 418.376L899.169 418.531C900.052 419.061 901.145 419.103 902.067 418.643C902.179 418.586 902.25 418.472 902.25 418.346V414.136C900.922 414.625 899.436 414.491 898.211 413.756L898.103 413.691ZM902.57 419.649C901.304 420.282 899.803 420.224 898.59 419.496L898.332 419.341C897.351 418.752 896.147 418.671 895.096 419.121L894.75 419.269V421.711C894.75 422.022 894.498 422.274 894.188 422.274C893.877 422.274 893.625 422.022 893.625 421.711V413.897C893.625 413.298 893.974 412.753 894.518 412.502C895.858 411.883 897.416 411.967 898.682 412.727L898.789 412.791C899.803 413.399 901.052 413.467 902.125 412.971L902.577 412.763C902.751 412.682 902.954 412.696 903.116 412.8C903.277 412.903 903.375 413.082 903.375 413.274V418.346C903.375 418.898 903.063 419.402 902.57 419.649Z" fill="#141414"></path><path d="M912.803 412.545V422H911.658V413.746H911.602L909.294 415.278V414.115L911.658 412.545H912.803ZM924.662 414.909V422H923.573V414.909H924.662ZM924.238 418.288V419.304C923.991 419.396 923.747 419.478 923.504 419.549C923.26 419.616 923.005 419.67 922.737 419.71C922.469 419.747 922.176 419.766 921.855 419.766C921.052 419.766 920.407 419.549 919.921 419.115C919.438 418.681 919.196 418.03 919.196 417.162V414.891H920.286V417.162C920.286 417.525 920.355 417.824 920.494 418.058C920.632 418.291 920.82 418.465 921.057 418.579C921.294 418.693 921.56 418.75 921.855 418.75C922.317 418.75 922.734 418.708 923.107 418.625C923.482 418.539 923.859 418.427 924.238 418.288ZM933.254 422.129C932.712 422.129 932.224 422.022 931.79 421.806C931.356 421.591 931.008 421.295 930.747 420.92C930.485 420.544 930.342 420.116 930.317 419.636H931.425C931.469 420.064 931.662 420.418 932.007 420.698C932.355 420.975 932.77 421.114 933.254 421.114C933.641 421.114 933.986 421.023 934.288 420.841C934.592 420.66 934.831 420.41 935.003 420.093C935.179 419.773 935.266 419.412 935.266 419.009C935.266 418.596 935.176 418.228 934.994 417.905C934.815 417.579 934.569 417.322 934.255 417.134C933.941 416.946 933.583 416.851 933.18 416.848C932.89 416.845 932.593 416.89 932.289 416.982C931.984 417.071 931.733 417.187 931.536 417.328L930.465 417.199L931.038 412.545H935.95V413.561H931.998L931.665 416.349H931.721C931.915 416.196 932.158 416.068 932.45 415.966C932.743 415.865 933.047 415.814 933.364 415.814C933.943 415.814 934.458 415.952 934.911 416.229C935.366 416.503 935.723 416.879 935.982 417.356C936.243 417.833 936.374 418.378 936.374 418.99C936.374 419.593 936.239 420.132 935.968 420.606C935.7 421.077 935.331 421.449 934.86 421.723C934.389 421.994 933.854 422.129 933.254 422.129ZM941.237 422.129C940.603 422.129 940.042 422.017 939.556 421.792C939.073 421.565 938.696 421.252 938.425 420.855C938.154 420.455 938.02 420 938.024 419.489C938.02 419.089 938.099 418.719 938.259 418.381C938.419 418.039 938.638 417.754 938.915 417.527C939.195 417.296 939.507 417.15 939.852 417.088V417.033C939.399 416.916 939.039 416.662 938.771 416.271C938.504 415.877 938.371 415.429 938.374 414.928C938.371 414.447 938.493 414.018 938.739 413.64C938.985 413.261 939.324 412.962 939.755 412.744C940.189 412.525 940.683 412.416 941.237 412.416C941.784 412.416 942.274 412.525 942.705 412.744C943.136 412.962 943.474 413.261 943.72 413.64C943.97 414.018 944.096 414.447 944.099 414.928C944.096 415.429 943.959 415.877 943.688 416.271C943.42 416.662 943.065 416.916 942.622 417.033V417.088C942.963 417.15 943.271 417.296 943.545 417.527C943.819 417.754 944.037 418.039 944.2 418.381C944.363 418.719 944.447 419.089 944.45 419.489C944.447 420 944.308 420.455 944.034 420.855C943.763 421.252 943.386 421.565 942.903 421.792C942.423 422.017 941.868 422.129 941.237 422.129ZM941.237 421.114C941.664 421.114 942.034 421.044 942.345 420.906C942.655 420.767 942.895 420.572 943.065 420.32C943.234 420.067 943.32 419.772 943.323 419.433C943.32 419.076 943.228 418.761 943.046 418.487C942.865 418.213 942.617 417.998 942.303 417.841C941.992 417.684 941.637 417.605 941.237 417.605C940.833 417.605 940.473 417.684 940.156 417.841C939.842 417.998 939.595 418.213 939.413 418.487C939.235 418.761 939.147 419.076 939.15 419.433C939.147 419.772 939.228 420.067 939.395 420.32C939.564 420.572 939.805 420.767 940.119 420.906C940.433 421.044 940.806 421.114 941.237 421.114ZM941.237 416.626C941.575 416.626 941.875 416.559 942.137 416.423C942.401 416.288 942.609 416.099 942.76 415.855C942.911 415.612 942.988 415.328 942.991 415.001C942.988 414.681 942.912 414.403 942.765 414.166C942.617 413.926 942.412 413.741 942.151 413.612C941.889 413.48 941.584 413.413 941.237 413.413C940.883 413.413 940.573 413.48 940.309 413.612C940.044 413.741 939.839 413.926 939.695 414.166C939.55 414.403 939.479 414.681 939.482 415.001C939.479 415.328 939.552 415.612 939.699 415.855C939.85 416.099 940.058 416.288 940.323 416.423C940.587 416.559 940.892 416.626 941.237 416.626ZM953.771 420.523L956.246 414.909H957.28L954.215 422H953.328L950.318 414.909H951.334L953.771 420.523ZM950.983 414.909V422H949.894V414.909H950.983ZM956.56 422V414.909H957.649V422H956.56Z" fill="#141414"></path><g clip-path="url(#clip1_50785_129435)"><mask id="path-17-inside-1_50785_129435" fill="white"><path d="M657 458H976V538H657V458Z"></path></mask><g clip-path="url(#clip2_50785_129435)"><rect width="1" height="246.702" transform="matrix(-0.707107 0.707107 0.707107 0.707107 856.609 335.511)" fill="white"></rect><rect width="1" height="246.702" transform="matrix(-0.707107 0.707107 0.707107 0.707107 845.066 341.412)" fill="white"></rect><rect width="1" height="246.702" transform="matrix(-0.707107 0.707107 0.707107 0.707107 833.523 347.313)" fill="white"></rect><rect width="1" height="246.702" transform="matrix(-0.707107 0.707107 0.707107 0.707107 821.977 353.215)" fill="white"></rect><rect width="1" height="246.702" transform="matrix(-0.707107 0.707107 0.707107 0.707107 810.434 359.116)" fill="white"></rect><rect width="1" height="246.702" transform="matrix(-0.707107 0.707107 0.707107 0.707107 798.891 365.017)" fill="white"></rect><rect width="1" height="246.702" transform="matrix(-0.707107 0.707107 0.707107 0.707107 787.348 370.918)" fill="white"></rect><rect width="1" height="246.702" transform="matrix(-0.707107 0.707107 0.707107 0.707107 775.805 376.819)" fill="white"></rect><rect width="1" height="246.702" transform="matrix(-0.707107 0.707107 0.707107 0.707107 764.262 382.721)" fill="white"></rect><rect width="1" height="246.702" transform="matrix(-0.707107 0.707107 0.707107 0.707107 752.719 388.622)" fill="white"></rect><rect width="1" height="246.702" transform="matrix(-0.707107 0.707107 0.707107 0.707107 741.176 394.523)" fill="white"></rect><rect width="1" height="246.702" transform="matrix(-0.707107 0.707107 0.707107 0.707107 729.633 400.424)" fill="white"></rect><rect width="1" height="246.702" transform="matrix(-0.707107 0.707107 0.707107 0.707107 718.09 406.325)" fill="white"></rect><rect width="1" height="246.702" transform="matrix(-0.707107 0.707107 0.707107 0.707107 706.547 412.227)" fill="white"></rect><rect width="1" height="246.702" transform="matrix(-0.707107 0.707107 0.707107 0.707107 695.004 418.128)" fill="white"></rect><rect width="1" height="246.702" transform="matrix(-0.707107 0.707107 0.707107 0.707107 683.461 424.029)" fill="white"></rect><rect width="1" height="246.702" transform="matrix(-0.707107 0.707107 0.707107 0.707107 671.918 429.93)" fill="white"></rect><rect width="1" height="246.702" transform="matrix(-0.707107 0.707107 0.707107 0.707107 660.375 435.831)" fill="white"></rect><rect width="1" height="246.702" transform="matrix(-0.707107 0.707107 0.707107 0.707107 648.828 441.733)" fill="white"></rect><rect width="1" height="246.702" transform="matrix(-0.707107 0.707107 0.707107 0.707107 637.285 447.634)" fill="white"></rect><rect width="1" height="246.702" transform="matrix(-0.707107 0.707107 0.707107 0.707107 625.742 453.535)" fill="white"></rect><rect width="1" height="246.702" transform="matrix(-0.707107 0.707107 0.707107 0.707107 614.199 459.436)" fill="white"></rect><rect width="1" height="246.702" transform="matrix(-0.707107 0.707107 0.707107 0.707107 602.656 465.337)" fill="white"></rect></g></g><path d="M976 538V539H977V538H976ZM657 538H656V539H657V538ZM975 458V538H977V458H975ZM976 537H657V539H976V537ZM658 538V458H656V538H658Z" fill="white" mask="url(#path-17-inside-1_50785_129435)"></path><path d="M199.48 260.86L200.005 259.75C200.465 260.11 200.97 260.38 201.52 260.56C202.08 260.74 202.635 260.835 203.185 260.845C203.735 260.845 204.24 260.77 204.7 260.62C205.17 260.47 205.545 260.245 205.825 259.945C206.105 259.645 206.245 259.275 206.245 258.835C206.245 258.295 206.025 257.885 205.585 257.605C205.155 257.325 204.555 257.185 203.785 257.185H201.445V255.97H203.68C204.35 255.97 204.87 255.835 205.24 255.565C205.62 255.285 205.81 254.9 205.81 254.41C205.81 254.04 205.695 253.73 205.465 253.48C205.245 253.22 204.94 253.025 204.55 252.895C204.17 252.765 203.735 252.7 203.245 252.7C202.765 252.69 202.27 252.755 201.76 252.895C201.25 253.025 200.76 253.235 200.29 253.525L199.81 252.295C200.45 251.935 201.115 251.685 201.805 251.545C202.505 251.395 203.18 251.35 203.83 251.41C204.48 251.46 205.065 251.61 205.585 251.86C206.115 252.1 206.535 252.42 206.845 252.82C207.165 253.21 207.325 253.68 207.325 254.23C207.325 254.73 207.195 255.175 206.935 255.565C206.675 255.945 206.315 256.24 205.855 256.45C205.395 256.65 204.86 256.75 204.25 256.75L204.31 256.345C205.01 256.345 205.615 256.46 206.125 256.69C206.645 256.91 207.045 257.225 207.325 257.635C207.615 258.045 207.76 258.52 207.76 259.06C207.76 259.57 207.63 260.025 207.37 260.425C207.11 260.815 206.755 261.145 206.305 261.415C205.865 261.675 205.36 261.865 204.79 261.985C204.23 262.105 203.64 262.145 203.02 262.105C202.4 262.065 201.785 261.945 201.175 261.745C200.575 261.545 200.01 261.25 199.48 260.86ZM214.894 262V260.32L214.819 260.005V257.14C214.819 256.53 214.639 256.06 214.279 255.73C213.929 255.39 213.399 255.22 212.689 255.22C212.219 255.22 211.759 255.3 211.309 255.46C210.859 255.61 210.479 255.815 210.169 256.075L209.569 254.995C209.979 254.665 210.469 254.415 211.039 254.245C211.619 254.065 212.224 253.975 212.854 253.975C213.944 253.975 214.784 254.24 215.374 254.77C215.964 255.3 216.259 256.11 216.259 257.2V262H214.894ZM212.284 262.09C211.694 262.09 211.174 261.99 210.724 261.79C210.284 261.59 209.944 261.315 209.704 260.965C209.464 260.605 209.344 260.2 209.344 259.75C209.344 259.32 209.444 258.93 209.644 258.58C209.854 258.23 210.189 257.95 210.649 257.74C211.119 257.53 211.749 257.425 212.539 257.425H215.059V258.46H212.599C211.879 258.46 211.394 258.58 211.144 258.82C210.894 259.06 210.769 259.35 210.769 259.69C210.769 260.08 210.924 260.395 211.234 260.635C211.544 260.865 211.974 260.98 212.524 260.98C213.064 260.98 213.534 260.86 213.934 260.62C214.344 260.38 214.639 260.03 214.819 259.57L215.104 260.56C214.914 261.03 214.579 261.405 214.099 261.685C213.619 261.955 213.014 262.09 212.284 262.09ZM224.282 261.325V255.31H220.832L220.757 256.84C220.737 257.34 220.702 257.825 220.652 258.295C220.612 258.755 220.542 259.18 220.442 259.57C220.352 259.96 220.217 260.28 220.037 260.53C219.857 260.78 219.617 260.935 219.317 260.995L217.892 260.74C218.202 260.75 218.452 260.65 218.642 260.44C218.832 260.22 218.977 259.92 219.077 259.54C219.187 259.16 219.267 258.73 219.317 258.25C219.367 257.76 219.407 257.255 219.437 256.735L219.557 254.05H225.722V261.325H224.282ZM217.577 263.845V260.74H226.937V263.845H225.587V262H218.942V263.845H217.577ZM233.688 262V260.32L233.613 260.005V257.14C233.613 256.53 233.433 256.06 233.073 255.73C232.723 255.39 232.193 255.22 231.483 255.22C231.013 255.22 230.553 255.3 230.103 255.46C229.653 255.61 229.273 255.815 228.963 256.075L228.363 254.995C228.773 254.665 229.263 254.415 229.833 254.245C230.413 254.065 231.018 253.975 231.648 253.975C232.738 253.975 233.578 254.24 234.168 254.77C234.758 255.3 235.053 256.11 235.053 257.2V262H233.688ZM231.078 262.09C230.488 262.09 229.968 261.99 229.518 261.79C229.078 261.59 228.738 261.315 228.498 260.965C228.258 260.605 228.138 260.2 228.138 259.75C228.138 259.32 228.238 258.93 228.438 258.58C228.648 258.23 228.983 257.95 229.443 257.74C229.913 257.53 230.543 257.425 231.333 257.425H233.853V258.46H231.393C230.673 258.46 230.188 258.58 229.938 258.82C229.688 259.06 229.563 259.35 229.563 259.69C229.563 260.08 229.718 260.395 230.028 260.635C230.338 260.865 230.768 260.98 231.318 260.98C231.858 260.98 232.328 260.86 232.728 260.62C233.138 260.38 233.433 260.03 233.613 259.57L233.898 260.56C233.708 261.03 233.373 261.405 232.893 261.685C232.413 261.955 231.808 262.09 231.078 262.09ZM242.656 258.745C242.236 258.945 241.801 259.105 241.351 259.225C240.911 259.335 240.456 259.39 239.986 259.39C239.026 259.39 238.266 259.165 237.706 258.715C237.156 258.265 236.881 257.57 236.881 256.63V254.05H238.321V256.54C238.321 257.11 238.496 257.53 238.846 257.8C239.206 258.07 239.686 258.205 240.286 258.205C240.666 258.205 241.056 258.155 241.456 258.055C241.866 257.955 242.266 257.815 242.656 257.635V258.745ZM242.551 262V254.05H243.991V262H242.551ZM251.662 262V260.32L251.587 260.005V257.14C251.587 256.53 251.407 256.06 251.047 255.73C250.697 255.39 250.167 255.22 249.457 255.22C248.987 255.22 248.527 255.3 248.077 255.46C247.627 255.61 247.247 255.815 246.937 256.075L246.337 254.995C246.747 254.665 247.237 254.415 247.807 254.245C248.387 254.065 248.992 253.975 249.622 253.975C250.712 253.975 251.552 254.24 252.142 254.77C252.732 255.3 253.027 256.11 253.027 257.2V262H251.662ZM249.052 262.09C248.462 262.09 247.942 261.99 247.492 261.79C247.052 261.59 246.712 261.315 246.472 260.965C246.232 260.605 246.112 260.2 246.112 259.75C246.112 259.32 246.212 258.93 246.412 258.58C246.622 258.23 246.957 257.95 247.417 257.74C247.887 257.53 248.517 257.425 249.307 257.425H251.827V258.46H249.367C248.647 258.46 248.162 258.58 247.912 258.82C247.662 259.06 247.537 259.35 247.537 259.69C247.537 260.08 247.692 260.395 248.002 260.635C248.312 260.865 248.742 260.98 249.292 260.98C249.832 260.98 250.302 260.86 250.702 260.62C251.112 260.38 251.407 260.03 251.587 259.57L251.872 260.56C251.682 261.03 251.347 261.405 250.867 261.685C250.387 261.955 249.782 262.09 249.052 262.09ZM260.743 262V252.1L261.388 252.805H258.373V251.5H262.228V262H260.743Z" fill="white"></path><path d="M199.48 351.86L200.005 350.75C200.465 351.11 200.97 351.38 201.52 351.56C202.08 351.74 202.635 351.835 203.185 351.845C203.735 351.845 204.24 351.77 204.7 351.62C205.17 351.47 205.545 351.245 205.825 350.945C206.105 350.645 206.245 350.275 206.245 349.835C206.245 349.295 206.025 348.885 205.585 348.605C205.155 348.325 204.555 348.185 203.785 348.185H201.445V346.97H203.68C204.35 346.97 204.87 346.835 205.24 346.565C205.62 346.285 205.81 345.9 205.81 345.41C205.81 345.04 205.695 344.73 205.465 344.48C205.245 344.22 204.94 344.025 204.55 343.895C204.17 343.765 203.735 343.7 203.245 343.7C202.765 343.69 202.27 343.755 201.76 343.895C201.25 344.025 200.76 344.235 200.29 344.525L199.81 343.295C200.45 342.935 201.115 342.685 201.805 342.545C202.505 342.395 203.18 342.35 203.83 342.41C204.48 342.46 205.065 342.61 205.585 342.86C206.115 343.1 206.535 343.42 206.845 343.82C207.165 344.21 207.325 344.68 207.325 345.23C207.325 345.73 207.195 346.175 206.935 346.565C206.675 346.945 206.315 347.24 205.855 347.45C205.395 347.65 204.86 347.75 204.25 347.75L204.31 347.345C205.01 347.345 205.615 347.46 206.125 347.69C206.645 347.91 207.045 348.225 207.325 348.635C207.615 349.045 207.76 349.52 207.76 350.06C207.76 350.57 207.63 351.025 207.37 351.425C207.11 351.815 206.755 352.145 206.305 352.415C205.865 352.675 205.36 352.865 204.79 352.985C204.23 353.105 203.64 353.145 203.02 353.105C202.4 353.065 201.785 352.945 201.175 352.745C200.575 352.545 200.01 352.25 199.48 351.86ZM214.894 353V351.32L214.819 351.005V348.14C214.819 347.53 214.639 347.06 214.279 346.73C213.929 346.39 213.399 346.22 212.689 346.22C212.219 346.22 211.759 346.3 211.309 346.46C210.859 346.61 210.479 346.815 210.169 347.075L209.569 345.995C209.979 345.665 210.469 345.415 211.039 345.245C211.619 345.065 212.224 344.975 212.854 344.975C213.944 344.975 214.784 345.24 215.374 345.77C215.964 346.3 216.259 347.11 216.259 348.2V353H214.894ZM212.284 353.09C211.694 353.09 211.174 352.99 210.724 352.79C210.284 352.59 209.944 352.315 209.704 351.965C209.464 351.605 209.344 351.2 209.344 350.75C209.344 350.32 209.444 349.93 209.644 349.58C209.854 349.23 210.189 348.95 210.649 348.74C211.119 348.53 211.749 348.425 212.539 348.425H215.059V349.46H212.599C211.879 349.46 211.394 349.58 211.144 349.82C210.894 350.06 210.769 350.35 210.769 350.69C210.769 351.08 210.924 351.395 211.234 351.635C211.544 351.865 211.974 351.98 212.524 351.98C213.064 351.98 213.534 351.86 213.934 351.62C214.344 351.38 214.639 351.03 214.819 350.57L215.104 351.56C214.914 352.03 214.579 352.405 214.099 352.685C213.619 352.955 213.014 353.09 212.284 353.09ZM224.282 352.325V346.31H220.832L220.757 347.84C220.737 348.34 220.702 348.825 220.652 349.295C220.612 349.755 220.542 350.18 220.442 350.57C220.352 350.96 220.217 351.28 220.037 351.53C219.857 351.78 219.617 351.935 219.317 351.995L217.892 351.74C218.202 351.75 218.452 351.65 218.642 351.44C218.832 351.22 218.977 350.92 219.077 350.54C219.187 350.16 219.267 349.73 219.317 349.25C219.367 348.76 219.407 348.255 219.437 347.735L219.557 345.05H225.722V352.325H224.282ZM217.577 354.845V351.74H226.937V354.845H225.587V353H218.942V354.845H217.577ZM233.688 353V351.32L233.613 351.005V348.14C233.613 347.53 233.433 347.06 233.073 346.73C232.723 346.39 232.193 346.22 231.483 346.22C231.013 346.22 230.553 346.3 230.103 346.46C229.653 346.61 229.273 346.815 228.963 347.075L228.363 345.995C228.773 345.665 229.263 345.415 229.833 345.245C230.413 345.065 231.018 344.975 231.648 344.975C232.738 344.975 233.578 345.24 234.168 345.77C234.758 346.3 235.053 347.11 235.053 348.2V353H233.688ZM231.078 353.09C230.488 353.09 229.968 352.99 229.518 352.79C229.078 352.59 228.738 352.315 228.498 351.965C228.258 351.605 228.138 351.2 228.138 350.75C228.138 350.32 228.238 349.93 228.438 349.58C228.648 349.23 228.983 348.95 229.443 348.74C229.913 348.53 230.543 348.425 231.333 348.425H233.853V349.46H231.393C230.673 349.46 230.188 349.58 229.938 349.82C229.688 350.06 229.563 350.35 229.563 350.69C229.563 351.08 229.718 351.395 230.028 351.635C230.338 351.865 230.768 351.98 231.318 351.98C231.858 351.98 232.328 351.86 232.728 351.62C233.138 351.38 233.433 351.03 233.613 350.57L233.898 351.56C233.708 352.03 233.373 352.405 232.893 352.685C232.413 352.955 231.808 353.09 231.078 353.09ZM242.656 349.745C242.236 349.945 241.801 350.105 241.351 350.225C240.911 350.335 240.456 350.39 239.986 350.39C239.026 350.39 238.266 350.165 237.706 349.715C237.156 349.265 236.881 348.57 236.881 347.63V345.05H238.321V347.54C238.321 348.11 238.496 348.53 238.846 348.8C239.206 349.07 239.686 349.205 240.286 349.205C240.666 349.205 241.056 349.155 241.456 349.055C241.866 348.955 242.266 348.815 242.656 348.635V349.745ZM242.551 353V345.05H243.991V353H242.551ZM251.662 353V351.32L251.587 351.005V348.14C251.587 347.53 251.407 347.06 251.047 346.73C250.697 346.39 250.167 346.22 249.457 346.22C248.987 346.22 248.527 346.3 248.077 346.46C247.627 346.61 247.247 346.815 246.937 347.075L246.337 345.995C246.747 345.665 247.237 345.415 247.807 345.245C248.387 345.065 248.992 344.975 249.622 344.975C250.712 344.975 251.552 345.24 252.142 345.77C252.732 346.3 253.027 347.11 253.027 348.2V353H251.662ZM249.052 353.09C248.462 353.09 247.942 352.99 247.492 352.79C247.052 352.59 246.712 352.315 246.472 351.965C246.232 351.605 246.112 351.2 246.112 350.75C246.112 350.32 246.212 349.93 246.412 349.58C246.622 349.23 246.957 348.95 247.417 348.74C247.887 348.53 248.517 348.425 249.307 348.425H251.827V349.46H249.367C248.647 349.46 248.162 349.58 247.912 349.82C247.662 350.06 247.537 350.35 247.537 350.69C247.537 351.08 247.692 351.395 248.002 351.635C248.312 351.865 248.742 351.98 249.292 351.98C249.832 351.98 250.302 351.86 250.702 351.62C251.112 351.38 251.407 351.03 251.587 350.57L251.872 351.56C251.682 352.03 251.347 352.405 250.867 352.685C250.387 352.955 249.782 353.09 249.052 353.09ZM258.808 353V351.98L263.083 347.855C263.463 347.495 263.743 347.18 263.923 346.91C264.113 346.63 264.238 346.375 264.298 346.145C264.368 345.905 264.403 345.675 264.403 345.455C264.403 344.915 264.213 344.49 263.833 344.18C263.453 343.87 262.898 343.715 262.168 343.715C261.608 343.715 261.103 343.81 260.653 344C260.203 344.18 259.813 344.465 259.483 344.855L258.463 343.97C258.863 343.46 259.398 343.07 260.068 342.8C260.748 342.52 261.493 342.38 262.303 342.38C263.033 342.38 263.668 342.5 264.208 342.74C264.748 342.97 265.163 343.305 265.453 343.745C265.753 344.185 265.903 344.705 265.903 345.305C265.903 345.645 265.858 345.98 265.768 346.31C265.678 346.64 265.508 346.99 265.258 347.36C265.008 347.73 264.648 348.145 264.178 348.605L260.368 352.28L260.008 351.695H266.353V353H258.808Z" fill="white"></path><path d="M198.48 437.86L199.005 436.75C199.465 437.11 199.97 437.38 200.52 437.56C201.08 437.74 201.635 437.835 202.185 437.845C202.735 437.845 203.24 437.77 203.7 437.62C204.17 437.47 204.545 437.245 204.825 436.945C205.105 436.645 205.245 436.275 205.245 435.835C205.245 435.295 205.025 434.885 204.585 434.605C204.155 434.325 203.555 434.185 202.785 434.185H200.445V432.97H202.68C203.35 432.97 203.87 432.835 204.24 432.565C204.62 432.285 204.81 431.9 204.81 431.41C204.81 431.04 204.695 430.73 204.465 430.48C204.245 430.22 203.94 430.025 203.55 429.895C203.17 429.765 202.735 429.7 202.245 429.7C201.765 429.69 201.27 429.755 200.76 429.895C200.25 430.025 199.76 430.235 199.29 430.525L198.81 429.295C199.45 428.935 200.115 428.685 200.805 428.545C201.505 428.395 202.18 428.35 202.83 428.41C203.48 428.46 204.065 428.61 204.585 428.86C205.115 429.1 205.535 429.42 205.845 429.82C206.165 430.21 206.325 430.68 206.325 431.23C206.325 431.73 206.195 432.175 205.935 432.565C205.675 432.945 205.315 433.24 204.855 433.45C204.395 433.65 203.86 433.75 203.25 433.75L203.31 433.345C204.01 433.345 204.615 433.46 205.125 433.69C205.645 433.91 206.045 434.225 206.325 434.635C206.615 435.045 206.76 435.52 206.76 436.06C206.76 436.57 206.63 437.025 206.37 437.425C206.11 437.815 205.755 438.145 205.305 438.415C204.865 438.675 204.36 438.865 203.79 438.985C203.23 439.105 202.64 439.145 202.02 439.105C201.4 439.065 200.785 438.945 200.175 438.745C199.575 438.545 199.01 438.25 198.48 437.86ZM213.894 439V437.32L213.819 437.005V434.14C213.819 433.53 213.639 433.06 213.279 432.73C212.929 432.39 212.399 432.22 211.689 432.22C211.219 432.22 210.759 432.3 210.309 432.46C209.859 432.61 209.479 432.815 209.169 433.075L208.569 431.995C208.979 431.665 209.469 431.415 210.039 431.245C210.619 431.065 211.224 430.975 211.854 430.975C212.944 430.975 213.784 431.24 214.374 431.77C214.964 432.3 215.259 433.11 215.259 434.2V439H213.894ZM211.284 439.09C210.694 439.09 210.174 438.99 209.724 438.79C209.284 438.59 208.944 438.315 208.704 437.965C208.464 437.605 208.344 437.2 208.344 436.75C208.344 436.32 208.444 435.93 208.644 435.58C208.854 435.23 209.189 434.95 209.649 434.74C210.119 434.53 210.749 434.425 211.539 434.425H214.059V435.46H211.599C210.879 435.46 210.394 435.58 210.144 435.82C209.894 436.06 209.769 436.35 209.769 436.69C209.769 437.08 209.924 437.395 210.234 437.635C210.544 437.865 210.974 437.98 211.524 437.98C212.064 437.98 212.534 437.86 212.934 437.62C213.344 437.38 213.639 437.03 213.819 436.57L214.104 437.56C213.914 438.03 213.579 438.405 213.099 438.685C212.619 438.955 212.014 439.09 211.284 439.09ZM223.282 438.325V432.31H219.832L219.757 433.84C219.737 434.34 219.702 434.825 219.652 435.295C219.612 435.755 219.542 436.18 219.442 436.57C219.352 436.96 219.217 437.28 219.037 437.53C218.857 437.78 218.617 437.935 218.317 437.995L216.892 437.74C217.202 437.75 217.452 437.65 217.642 437.44C217.832 437.22 217.977 436.92 218.077 436.54C218.187 436.16 218.267 435.73 218.317 435.25C218.367 434.76 218.407 434.255 218.437 433.735L218.557 431.05H224.722V438.325H223.282ZM216.577 440.845V437.74H225.937V440.845H224.587V439H217.942V440.845H216.577ZM232.688 439V437.32L232.613 437.005V434.14C232.613 433.53 232.433 433.06 232.073 432.73C231.723 432.39 231.193 432.22 230.483 432.22C230.013 432.22 229.553 432.3 229.103 432.46C228.653 432.61 228.273 432.815 227.963 433.075L227.363 431.995C227.773 431.665 228.263 431.415 228.833 431.245C229.413 431.065 230.018 430.975 230.648 430.975C231.738 430.975 232.578 431.24 233.168 431.77C233.758 432.3 234.053 433.11 234.053 434.2V439H232.688ZM230.078 439.09C229.488 439.09 228.968 438.99 228.518 438.79C228.078 438.59 227.738 438.315 227.498 437.965C227.258 437.605 227.138 437.2 227.138 436.75C227.138 436.32 227.238 435.93 227.438 435.58C227.648 435.23 227.983 434.95 228.443 434.74C228.913 434.53 229.543 434.425 230.333 434.425H232.853V435.46H230.393C229.673 435.46 229.188 435.58 228.938 435.82C228.688 436.06 228.563 436.35 228.563 436.69C228.563 437.08 228.718 437.395 229.028 437.635C229.338 437.865 229.768 437.98 230.318 437.98C230.858 437.98 231.328 437.86 231.728 437.62C232.138 437.38 232.433 437.03 232.613 436.57L232.898 437.56C232.708 438.03 232.373 438.405 231.893 438.685C231.413 438.955 230.808 439.09 230.078 439.09ZM241.656 435.745C241.236 435.945 240.801 436.105 240.351 436.225C239.911 436.335 239.456 436.39 238.986 436.39C238.026 436.39 237.266 436.165 236.706 435.715C236.156 435.265 235.881 434.57 235.881 433.63V431.05H237.321V433.54C237.321 434.11 237.496 434.53 237.846 434.8C238.206 435.07 238.686 435.205 239.286 435.205C239.666 435.205 240.056 435.155 240.456 435.055C240.866 434.955 241.266 434.815 241.656 434.635V435.745ZM241.551 439V431.05H242.991V439H241.551ZM250.662 439V437.32L250.587 437.005V434.14C250.587 433.53 250.407 433.06 250.047 432.73C249.697 432.39 249.167 432.22 248.457 432.22C247.987 432.22 247.527 432.3 247.077 432.46C246.627 432.61 246.247 432.815 245.937 433.075L245.337 431.995C245.747 431.665 246.237 431.415 246.807 431.245C247.387 431.065 247.992 430.975 248.622 430.975C249.712 430.975 250.552 431.24 251.142 431.77C251.732 432.3 252.027 433.11 252.027 434.2V439H250.662ZM248.052 439.09C247.462 439.09 246.942 438.99 246.492 438.79C246.052 438.59 245.712 438.315 245.472 437.965C245.232 437.605 245.112 437.2 245.112 436.75C245.112 436.32 245.212 435.93 245.412 435.58C245.622 435.23 245.957 434.95 246.417 434.74C246.887 434.53 247.517 434.425 248.307 434.425H250.827V435.46H248.367C247.647 435.46 247.162 435.58 246.912 435.82C246.662 436.06 246.537 436.35 246.537 436.69C246.537 437.08 246.692 437.395 247.002 437.635C247.312 437.865 247.742 437.98 248.292 437.98C248.832 437.98 249.302 437.86 249.702 437.62C250.112 437.38 250.407 437.03 250.587 436.57L250.872 437.56C250.682 438.03 250.347 438.405 249.867 438.685C249.387 438.955 248.782 439.09 248.052 439.09ZM261.183 439.12C260.443 439.12 259.723 439.005 259.023 438.775C258.333 438.545 257.768 438.235 257.328 437.845L258.018 436.66C258.368 436.99 258.823 437.26 259.383 437.47C259.943 437.68 260.543 437.785 261.183 437.785C261.963 437.785 262.568 437.62 262.998 437.29C263.438 436.95 263.658 436.495 263.658 435.925C263.658 435.375 263.448 434.935 263.028 434.605C262.618 434.265 261.963 434.095 261.063 434.095H260.223V433.045L263.343 429.205L263.553 429.805H257.808V428.5H264.738V429.52L261.633 433.345L260.853 432.88H261.348C262.618 432.88 263.568 433.165 264.198 433.735C264.838 434.305 265.158 435.03 265.158 435.91C265.158 436.5 265.013 437.04 264.723 437.53C264.433 438.02 263.993 438.41 263.403 438.7C262.823 438.98 262.083 439.12 261.183 439.12Z" fill="white"></path><path d="M199.48 532.86L200.005 531.75C200.465 532.11 200.97 532.38 201.52 532.56C202.08 532.74 202.635 532.835 203.185 532.845C203.735 532.845 204.24 532.77 204.7 532.62C205.17 532.47 205.545 532.245 205.825 531.945C206.105 531.645 206.245 531.275 206.245 530.835C206.245 530.295 206.025 529.885 205.585 529.605C205.155 529.325 204.555 529.185 203.785 529.185H201.445V527.97H203.68C204.35 527.97 204.87 527.835 205.24 527.565C205.62 527.285 205.81 526.9 205.81 526.41C205.81 526.04 205.695 525.73 205.465 525.48C205.245 525.22 204.94 525.025 204.55 524.895C204.17 524.765 203.735 524.7 203.245 524.7C202.765 524.69 202.27 524.755 201.76 524.895C201.25 525.025 200.76 525.235 200.29 525.525L199.81 524.295C200.45 523.935 201.115 523.685 201.805 523.545C202.505 523.395 203.18 523.35 203.83 523.41C204.48 523.46 205.065 523.61 205.585 523.86C206.115 524.1 206.535 524.42 206.845 524.82C207.165 525.21 207.325 525.68 207.325 526.23C207.325 526.73 207.195 527.175 206.935 527.565C206.675 527.945 206.315 528.24 205.855 528.45C205.395 528.65 204.86 528.75 204.25 528.75L204.31 528.345C205.01 528.345 205.615 528.46 206.125 528.69C206.645 528.91 207.045 529.225 207.325 529.635C207.615 530.045 207.76 530.52 207.76 531.06C207.76 531.57 207.63 532.025 207.37 532.425C207.11 532.815 206.755 533.145 206.305 533.415C205.865 533.675 205.36 533.865 204.79 533.985C204.23 534.105 203.64 534.145 203.02 534.105C202.4 534.065 201.785 533.945 201.175 533.745C200.575 533.545 200.01 533.25 199.48 532.86ZM214.894 534V532.32L214.819 532.005V529.14C214.819 528.53 214.639 528.06 214.279 527.73C213.929 527.39 213.399 527.22 212.689 527.22C212.219 527.22 211.759 527.3 211.309 527.46C210.859 527.61 210.479 527.815 210.169 528.075L209.569 526.995C209.979 526.665 210.469 526.415 211.039 526.245C211.619 526.065 212.224 525.975 212.854 525.975C213.944 525.975 214.784 526.24 215.374 526.77C215.964 527.3 216.259 528.11 216.259 529.2V534H214.894ZM212.284 534.09C211.694 534.09 211.174 533.99 210.724 533.79C210.284 533.59 209.944 533.315 209.704 532.965C209.464 532.605 209.344 532.2 209.344 531.75C209.344 531.32 209.444 530.93 209.644 530.58C209.854 530.23 210.189 529.95 210.649 529.74C211.119 529.53 211.749 529.425 212.539 529.425H215.059V530.46H212.599C211.879 530.46 211.394 530.58 211.144 530.82C210.894 531.06 210.769 531.35 210.769 531.69C210.769 532.08 210.924 532.395 211.234 532.635C211.544 532.865 211.974 532.98 212.524 532.98C213.064 532.98 213.534 532.86 213.934 532.62C214.344 532.38 214.639 532.03 214.819 531.57L215.104 532.56C214.914 533.03 214.579 533.405 214.099 533.685C213.619 533.955 213.014 534.09 212.284 534.09ZM224.282 533.325V527.31H220.832L220.757 528.84C220.737 529.34 220.702 529.825 220.652 530.295C220.612 530.755 220.542 531.18 220.442 531.57C220.352 531.96 220.217 532.28 220.037 532.53C219.857 532.78 219.617 532.935 219.317 532.995L217.892 532.74C218.202 532.75 218.452 532.65 218.642 532.44C218.832 532.22 218.977 531.92 219.077 531.54C219.187 531.16 219.267 530.73 219.317 530.25C219.367 529.76 219.407 529.255 219.437 528.735L219.557 526.05H225.722V533.325H224.282ZM217.577 535.845V532.74H226.937V535.845H225.587V534H218.942V535.845H217.577ZM233.688 534V532.32L233.613 532.005V529.14C233.613 528.53 233.433 528.06 233.073 527.73C232.723 527.39 232.193 527.22 231.483 527.22C231.013 527.22 230.553 527.3 230.103 527.46C229.653 527.61 229.273 527.815 228.963 528.075L228.363 526.995C228.773 526.665 229.263 526.415 229.833 526.245C230.413 526.065 231.018 525.975 231.648 525.975C232.738 525.975 233.578 526.24 234.168 526.77C234.758 527.3 235.053 528.11 235.053 529.2V534H233.688ZM231.078 534.09C230.488 534.09 229.968 533.99 229.518 533.79C229.078 533.59 228.738 533.315 228.498 532.965C228.258 532.605 228.138 532.2 228.138 531.75C228.138 531.32 228.238 530.93 228.438 530.58C228.648 530.23 228.983 529.95 229.443 529.74C229.913 529.53 230.543 529.425 231.333 529.425H233.853V530.46H231.393C230.673 530.46 230.188 530.58 229.938 530.82C229.688 531.06 229.563 531.35 229.563 531.69C229.563 532.08 229.718 532.395 230.028 532.635C230.338 532.865 230.768 532.98 231.318 532.98C231.858 532.98 232.328 532.86 232.728 532.62C233.138 532.38 233.433 532.03 233.613 531.57L233.898 532.56C233.708 533.03 233.373 533.405 232.893 533.685C232.413 533.955 231.808 534.09 231.078 534.09ZM242.656 530.745C242.236 530.945 241.801 531.105 241.351 531.225C240.911 531.335 240.456 531.39 239.986 531.39C239.026 531.39 238.266 531.165 237.706 530.715C237.156 530.265 236.881 529.57 236.881 528.63V526.05H238.321V528.54C238.321 529.11 238.496 529.53 238.846 529.8C239.206 530.07 239.686 530.205 240.286 530.205C240.666 530.205 241.056 530.155 241.456 530.055C241.866 529.955 242.266 529.815 242.656 529.635V530.745ZM242.551 534V526.05H243.991V534H242.551ZM251.662 534V532.32L251.587 532.005V529.14C251.587 528.53 251.407 528.06 251.047 527.73C250.697 527.39 250.167 527.22 249.457 527.22C248.987 527.22 248.527 527.3 248.077 527.46C247.627 527.61 247.247 527.815 246.937 528.075L246.337 526.995C246.747 526.665 247.237 526.415 247.807 526.245C248.387 526.065 248.992 525.975 249.622 525.975C250.712 525.975 251.552 526.24 252.142 526.77C252.732 527.3 253.027 528.11 253.027 529.2V534H251.662ZM249.052 534.09C248.462 534.09 247.942 533.99 247.492 533.79C247.052 533.59 246.712 533.315 246.472 532.965C246.232 532.605 246.112 532.2 246.112 531.75C246.112 531.32 246.212 530.93 246.412 530.58C246.622 530.23 246.957 529.95 247.417 529.74C247.887 529.53 248.517 529.425 249.307 529.425H251.827V530.46H249.367C248.647 530.46 248.162 530.58 247.912 530.82C247.662 531.06 247.537 531.35 247.537 531.69C247.537 532.08 247.692 532.395 248.002 532.635C248.312 532.865 248.742 532.98 249.292 532.98C249.832 532.98 250.302 532.86 250.702 532.62C251.112 532.38 251.407 532.03 251.587 531.57L251.872 532.56C251.682 533.03 251.347 533.405 250.867 533.685C250.387 533.955 249.782 534.09 249.052 534.09ZM258.823 531.42V530.37L264.193 523.5H265.813L260.488 530.37L259.723 530.13H268.108V531.42H258.823ZM264.658 534V531.42L264.703 530.13V527.85H266.113V534H264.658Z" fill="white"></path></g><rect width="2" height="317.891" transform="translate(558.5 210)" fill="white"></rect><path d="M559.498 533.891L567.487 542.973H551.509L559.498 533.891Z" fill="white"></path><rect x="538.5" y="548" width="42" height="26" rx="4" fill="white"></rect><path d="M545.156 567V556.44L545.844 557.192H542.628V555.8H546.74V567H545.156ZM552.614 567.128C551.825 567.128 551.057 567.005 550.31 566.76C549.574 566.515 548.971 566.184 548.502 565.768L549.238 564.504C549.611 564.856 550.097 565.144 550.694 565.368C551.291 565.592 551.931 565.704 552.614 565.704C553.446 565.704 554.091 565.528 554.55 565.176C555.019 564.813 555.254 564.328 555.254 563.72C555.254 563.133 555.03 562.664 554.582 562.312C554.145 561.949 553.446 561.768 552.486 561.768H551.59V560.648L554.918 556.552L555.142 557.192H549.014V555.8H556.406V556.888L553.094 560.968L552.262 560.472H552.79C554.145 560.472 555.158 560.776 555.83 561.384C556.513 561.992 556.854 562.765 556.854 563.704C556.854 564.333 556.699 564.909 556.39 565.432C556.081 565.955 555.611 566.371 554.982 566.68C554.363 566.979 553.574 567.128 552.614 567.128ZM559.402 560.632C559.103 560.632 558.847 560.531 558.634 560.328C558.421 560.115 558.314 559.848 558.314 559.528C558.314 559.208 558.421 558.947 558.634 558.744C558.847 558.541 559.103 558.44 559.402 558.44C559.69 558.44 559.935 558.541 560.138 558.744C560.351 558.947 560.458 559.208 560.458 559.528C560.458 559.848 560.351 560.115 560.138 560.328C559.935 560.531 559.69 560.632 559.402 560.632ZM559.402 567.096C559.103 567.096 558.847 566.995 558.634 566.792C558.421 566.579 558.314 566.312 558.314 565.992C558.314 565.672 558.421 565.411 558.634 565.208C558.847 565.005 559.103 564.904 559.402 564.904C559.69 564.904 559.935 565.005 560.138 565.208C560.351 565.411 560.458 565.672 560.458 565.992C560.458 566.312 560.351 566.579 560.138 566.792C559.935 566.995 559.69 567.096 559.402 567.096ZM563.859 567V556.44L564.547 557.192H561.331V555.8H565.443V567H563.859ZM571.509 567.128C570.72 567.128 569.952 567.005 569.205 566.76C568.469 566.515 567.866 566.184 567.397 565.768L568.133 564.504C568.506 564.856 568.992 565.144 569.589 565.368C570.186 565.592 570.821 565.704 571.493 565.704C572.346 565.704 573.002 565.523 573.461 565.16C573.92 564.797 574.149 564.312 574.149 563.704C574.149 563.288 574.048 562.925 573.845 562.616C573.642 562.307 573.29 562.072 572.789 561.912C572.298 561.741 571.621 561.656 570.757 561.656H568.213L568.805 555.8H575.125V557.192H569.397L570.229 556.408L569.765 561.032L568.933 560.264H571.093C572.213 560.264 573.114 560.408 573.797 560.696C574.48 560.984 574.976 561.384 575.285 561.896C575.594 562.397 575.749 562.979 575.749 563.64C575.749 564.28 575.594 564.867 575.285 565.4C574.976 565.923 574.506 566.344 573.877 566.664C573.258 566.973 572.469 567.128 571.509 567.128Z" fill="#141414"></path><defs><clipPath id="clip0_50785_129435"><rect width="819" height="363" fill="white" transform="translate(198 210)"></rect></clipPath><clipPath id="clip1_50785_129435"><path d="M657 458H976V538H657V458Z" fill="white"></path></clipPath><clipPath id="clip2_50785_129435"><rect width="319" height="100" fill="white" transform="translate(657 438)"></rect></clipPath></defs></svg> 