<?xml version="1.0" encoding="UTF-8"?> <svg xmlns="http://www.w3.org/2000/svg" width="49" height="34" viewBox="0 0 49 34" fill="none"><path fill-rule="evenodd" clip-rule="evenodd" d="M24.638 8.00298H15.7429C15.7429 8.00298 23.0837 8 3 8L3.00009 12.6417C3.00054 12.6406 3.00159 12.6399 3.00282 12.6399H18.6099C18.6101 12.6399 18.6103 12.6399 18.6104 12.6399H24.6382C28.7381 12.6399 31.8688 12.659 34.2614 12.9447C36.7039 13.2363 37.8656 13.7591 38.4485 14.3419C39.9869 15.8803 40.2562 18.303 38.4484 20.1108C37.9231 20.636 37.4861 20.916 37.0285 21.0972C36.5426 21.2894 35.9049 21.4211 34.9016 21.4821C33.8831 21.5441 32.6259 21.5277 30.914 21.4904L30.2476 21.4755C29.2719 21.4535 28.1793 21.4289 26.9567 21.4136V14.9584H22.3197V26.0357L24.6382 26.0356C26.7847 26.0356 28.5842 26.0761 30.1395 26.1112L30.8128 26.1262C32.4905 26.1628 33.9408 26.1861 35.1831 26.1105C36.4407 26.034 37.6172 25.851 38.7347 25.4088C39.8804 24.9554 40.8356 24.2812 41.7272 23.3896C45.5868 19.53 44.8259 14.1616 41.7272 11.063C39.9914 9.32733 37.4853 8.65965 34.8112 8.34039C32.0871 8.01517 28.6522 8.00298 24.638 8.00298ZM16.7688 15.7904H3.00282C3.00165 15.7904 3.00064 15.7897 3.00016 15.7887L3.00037 26.0357H7.78367V19.963H18.6131V15.7904L16.7688 15.7904Z" fill="#9BD32E"></path></svg> 