<?xml version="1.0" encoding="UTF-8"?> <svg xmlns="http://www.w3.org/2000/svg" width="393" height="200" viewBox="0 0 393 200" fill="none"><g clip-path="url(#clip0_50974_125421)"><g clip-path="url(#clip1_50974_125421)"><rect x="80.4805" y="-111.924" width="1" height="525.45" transform="rotate(45 80.4805 -111.924)" fill="#141414"></rect><rect x="100.098" y="-101.895" width="1" height="525.45" transform="rotate(45 100.098 -101.895)" fill="#141414"></rect><rect x="119.715" y="-91.866" width="1" height="525.45" transform="rotate(45 119.715 -91.866)" fill="#141414"></rect><rect x="139.332" y="-81.8371" width="1" height="525.45" transform="rotate(45 139.332 -81.8371)" fill="#141414"></rect><rect x="158.949" y="-71.8083" width="1" height="525.45" transform="rotate(45 158.949 -71.8083)" fill="#141414"></rect><rect x="178.566" y="-61.7794" width="1" height="525.45" transform="rotate(45 178.566 -61.7794)" fill="#141414"></rect><rect x="198.184" y="-51.7505" width="1" height="525.45" transform="rotate(45 198.184 -51.7505)" fill="#141414"></rect><rect x="217.801" y="-41.7217" width="1" height="525.45" transform="rotate(45 217.801 -41.7217)" fill="#141414"></rect><rect x="237.418" y="-31.6928" width="1" height="525.45" transform="rotate(45 237.418 -31.6928)" fill="#141414"></rect><rect x="257.035" y="-21.6639" width="1" height="525.45" transform="rotate(45 257.035 -21.6639)" fill="#141414"></rect><rect x="276.652" y="-11.6351" width="1" height="525.45" transform="rotate(45 276.652 -11.6351)" fill="#141414"></rect><rect x="296.27" y="-1.60626" width="1" height="525.45" transform="rotate(45 296.27 -1.60626)" fill="#141414"></rect><rect x="315.887" y="8.42261" width="1" height="525.45" transform="rotate(45 315.887 8.42261)" fill="#141414"></rect><rect x="335.504" y="18.4515" width="1" height="525.45" transform="rotate(45 335.504 18.4515)" fill="#141414"></rect><rect x="355.121" y="28.4803" width="1" height="525.45" transform="rotate(45 355.121 28.4803)" fill="#141414"></rect><rect x="374.738" y="38.5092" width="1" height="525.45" transform="rotate(45 374.738 38.5092)" fill="#141414"></rect><rect x="394.355" y="48.538" width="1" height="525.45" transform="rotate(45 394.355 48.538)" fill="#141414"></rect><rect x="413.973" y="58.5669" width="1" height="525.45" transform="rotate(45 413.973 58.5669)" fill="#141414"></rect><rect x="433.594" y="68.5958" width="1" height="525.45" transform="rotate(45 433.594 68.5958)" fill="#141414"></rect><rect x="453.211" y="78.6246" width="1" height="525.45" transform="rotate(45 453.211 78.6246)" fill="#141414"></rect><rect x="472.828" y="88.6535" width="1" height="525.45" transform="rotate(45 472.828 88.6535)" fill="#141414"></rect><rect x="492.445" y="98.6824" width="1" height="525.45" transform="rotate(45 492.445 98.6824)" fill="#141414"></rect><rect x="512.062" y="108.711" width="1" height="525.45" transform="rotate(45 512.062 108.711)" fill="#141414"></rect><rect x="531.68" y="118.74" width="1" height="525.45" transform="rotate(45 531.68 118.74)" fill="#141414"></rect><rect x="551.297" y="128.769" width="1" height="525.45" transform="rotate(45 551.297 128.769)" fill="#141414"></rect><rect x="570.914" y="138.798" width="1" height="525.45" transform="rotate(45 570.914 138.798)" fill="#141414"></rect><rect x="25.332" y="15" width="131" height="37" fill="#9BD32E"></rect><path d="M32.828 37.648V35.904L38.108 28.8H40.828L35.66 35.904L34.396 35.536H43.212V37.648H32.828ZM38.86 40V37.648L38.94 35.536V33.44H41.388V40H38.86ZM43.8593 37.648V35.904L49.1393 28.8H51.8593L46.6913 35.904L45.4273 35.536H54.2433V37.648H43.8593ZM49.8913 40V37.648L49.9713 35.536V33.44H52.4193V40H49.8913ZM59.8185 40.192C58.9012 40.192 58.0799 39.968 57.3545 39.52C56.6292 39.0613 56.0585 38.4 55.6425 37.536C55.2265 36.672 55.0185 35.6267 55.0185 34.4C55.0185 33.1733 55.2265 32.128 55.6425 31.264C56.0585 30.4 56.6292 29.744 57.3545 29.296C58.0799 28.8373 58.9012 28.608 59.8185 28.608C60.7465 28.608 61.5679 28.8373 62.2825 29.296C63.0079 29.744 63.5785 30.4 63.9945 31.264C64.4105 32.128 64.6185 33.1733 64.6185 34.4C64.6185 35.6267 64.4105 36.672 63.9945 37.536C63.5785 38.4 63.0079 39.0613 62.2825 39.52C61.5679 39.968 60.7465 40.192 59.8185 40.192ZM59.8185 38C60.2559 38 60.6345 37.8773 60.9545 37.632C61.2852 37.3867 61.5412 36.9973 61.7225 36.464C61.9145 35.9307 62.0105 35.2427 62.0105 34.4C62.0105 33.5573 61.9145 32.8693 61.7225 32.336C61.5412 31.8027 61.2852 31.4133 60.9545 31.168C60.6345 30.9227 60.2559 30.8 59.8185 30.8C59.3919 30.8 59.0132 30.9227 58.6825 31.168C58.3625 31.4133 58.1065 31.8027 57.9145 32.336C57.7332 32.8693 57.6425 33.5573 57.6425 34.4C57.6425 35.2427 57.7332 35.9307 57.9145 36.464C58.1065 36.9973 58.3625 37.3867 58.6825 37.632C59.0132 37.8773 59.3919 38 59.8185 38ZM76.8572 37.952L76.3132 38.528V31.392H78.8092V38.528L78.2332 37.952H82.2012L81.6412 38.528V31.392H84.1212V40H70.9852V31.392H73.4652V38.528L72.9052 37.952H76.8572ZM88.3564 40V32.864L88.9164 33.44H85.4444V31.392H93.7484V33.44H90.2764L90.8364 32.864V40H88.3564ZM97.8822 41.6L103.162 26.528H105.386L100.106 41.6H97.8822ZM110.407 40V31.392H113.015L116.263 37.28H115.223L118.695 31.392H121.031L121.063 40H118.807V33.952L119.191 34.208L116.231 39.168H115.175L112.199 34.032L112.663 33.92V40H110.407ZM123.454 40V31.392H125.934V36.512L130.126 31.392H132.414V40H129.934V34.88L125.758 40H123.454ZM134.813 40V31.392H137.293V34.752H141.037V31.392H143.533V40H141.037V36.784H137.293V40H134.813Z" fill="#141414"></path></g><rect x="-3.16797" y="2.5" width="211" height="331" stroke="#141414"></rect><g clip-path="url(#clip2_50974_125421)"><rect x="291.48" y="-25.9237" width="1" height="525.45" transform="rotate(45 291.48 -25.9237)" fill="#141414"></rect><rect x="311.098" y="-15.8948" width="1" height="525.45" transform="rotate(45 311.098 -15.8948)" fill="#141414"></rect><rect x="330.715" y="-5.86597" width="1" height="525.45" transform="rotate(45 330.715 -5.86597)" fill="#141414"></rect><rect x="350.332" y="4.1629" width="1" height="525.45" transform="rotate(45 350.332 4.1629)" fill="#141414"></rect><rect x="369.949" y="14.1917" width="1" height="525.45" transform="rotate(45 369.949 14.1917)" fill="#141414"></rect><rect x="389.566" y="24.2206" width="1" height="525.45" transform="rotate(45 389.566 24.2206)" fill="#141414"></rect><rect x="409.184" y="34.2495" width="1" height="525.45" transform="rotate(45 409.184 34.2495)" fill="#141414"></rect><rect x="428.801" y="44.2783" width="1" height="525.45" transform="rotate(45 428.801 44.2783)" fill="#141414"></rect><rect x="448.418" y="54.3072" width="1" height="525.45" transform="rotate(45 448.418 54.3072)" fill="#141414"></rect><rect x="468.035" y="64.3361" width="1" height="525.45" transform="rotate(45 468.035 64.3361)" fill="#141414"></rect><rect x="487.652" y="74.3649" width="1" height="525.45" transform="rotate(45 487.652 74.3649)" fill="#141414"></rect><rect x="507.27" y="84.3937" width="1" height="525.45" transform="rotate(45 507.27 84.3937)" fill="#141414"></rect><rect x="526.887" y="94.4226" width="1" height="525.45" transform="rotate(45 526.887 94.4226)" fill="#141414"></rect><rect x="546.504" y="104.451" width="1" height="525.45" transform="rotate(45 546.504 104.451)" fill="#141414"></rect><rect x="566.121" y="114.48" width="1" height="525.45" transform="rotate(45 566.121 114.48)" fill="#141414"></rect><rect x="585.738" y="124.509" width="1" height="525.45" transform="rotate(45 585.738 124.509)" fill="#141414"></rect><rect x="605.355" y="134.538" width="1" height="525.45" transform="rotate(45 605.355 134.538)" fill="#141414"></rect><rect x="624.973" y="144.567" width="1" height="525.45" transform="rotate(45 624.973 144.567)" fill="#141414"></rect><rect x="644.594" y="154.596" width="1" height="525.45" transform="rotate(45 644.594 154.596)" fill="#141414"></rect><rect x="664.211" y="164.625" width="1" height="525.45" transform="rotate(45 664.211 164.625)" fill="#141414"></rect><rect x="683.828" y="174.654" width="1" height="525.45" transform="rotate(45 683.828 174.654)" fill="#141414"></rect><rect x="703.445" y="184.682" width="1" height="525.45" transform="rotate(45 703.445 184.682)" fill="#141414"></rect><rect x="723.062" y="194.711" width="1" height="525.45" transform="rotate(45 723.062 194.711)" fill="#141414"></rect><rect x="236.332" y="111.5" width="131" height="25" fill="#9BD32E"></rect></g><rect x="207.832" y="88.5" width="211" height="331" stroke="#141414"></rect><g filter="url(#filter0_d_50974_125421)"><g clip-path="url(#clip3_50974_125421)"><rect x="36.332" y="93" width="70" height="70" rx="35" fill="white"></rect><g clip-path="url(#clip4_50974_125421)"><path fill-rule="evenodd" clip-rule="evenodd" d="M85.2965 116.004C85.8396 115.461 85.8396 114.581 85.2965 114.038C84.7535 113.495 83.873 113.495 83.3299 114.038L80.9388 116.429C79.6652 115.541 78.1168 115.021 76.4468 115.021C74.3605 115.021 72.3597 115.85 70.8844 117.325L69.8085 118.401C69.1152 119.094 69.1152 120.218 69.8085 120.912L78.4225 129.526C79.1158 130.219 80.2399 130.219 80.9333 129.526L82.0092 128.45C83.4844 126.975 84.3132 124.974 84.3132 122.887C84.3132 121.217 83.7928 119.669 82.9054 118.395L85.2965 116.004ZM69.5364 125.162C70.0795 125.706 70.0795 126.586 69.5364 127.129L67.2188 129.447L69.8875 132.115L72.2052 129.798C72.7482 129.255 73.6287 129.255 74.1718 129.798C74.7148 130.341 74.7148 131.221 74.1718 131.764L71.8541 134.082L72.8601 135.088C73.5535 135.781 73.5535 136.906 72.8601 137.599L71.7842 138.675C70.309 140.15 68.3081 140.979 66.2218 140.979C64.5519 140.979 63.0034 140.458 61.7299 139.571L59.3387 141.962C58.7957 142.505 57.9152 142.505 57.3721 141.962C56.8291 141.419 56.8291 140.539 57.3721 139.996L59.7633 137.604C58.8758 136.331 58.3554 134.782 58.3554 133.112C58.3554 131.026 59.1842 129.025 60.6595 127.55L61.7354 126.474C62.4287 125.781 63.5528 125.781 64.2461 126.474L65.2522 127.48L67.5698 125.162C68.1129 124.619 68.9934 124.619 69.5364 125.162ZM62.9908 129.152L62.6261 129.517C61.6724 130.47 61.1366 131.764 61.1366 133.112C61.1366 135.921 63.4134 138.198 66.2218 138.198C67.5705 138.198 68.864 137.662 69.8176 136.708L70.1823 136.343L62.9908 129.152ZM80.0426 126.483L79.6779 126.848L72.4863 119.656L72.851 119.292C73.8047 118.338 75.0981 117.802 76.4468 117.802C79.2553 117.802 81.532 120.079 81.532 122.887C81.532 124.236 80.9963 125.53 80.0426 126.483Z" fill="#647A8D"></path></g></g></g><path d="M249.588 130.192C248.809 130.192 248.036 130.091 247.268 129.888C246.5 129.675 245.849 129.376 245.316 128.992L246.324 127.008C246.751 127.317 247.247 127.563 247.812 127.744C248.377 127.925 248.948 128.016 249.524 128.016C250.175 128.016 250.687 127.888 251.06 127.632C251.433 127.376 251.62 127.024 251.62 126.576C251.62 126.149 251.455 125.813 251.124 125.568C250.793 125.323 250.26 125.2 249.524 125.2H248.34V123.488L251.46 119.952L251.748 120.88H245.876V118.8H253.716V120.48L250.612 124.016L249.3 123.264H250.052C251.428 123.264 252.468 123.573 253.172 124.192C253.876 124.811 254.228 125.605 254.228 126.576C254.228 127.205 254.063 127.797 253.732 128.352C253.401 128.896 252.895 129.339 252.212 129.68C251.529 130.021 250.655 130.192 249.588 130.192ZM257.092 130L261.604 119.792L262.276 120.912H256.244L257.396 119.696V122.736H255.092V118.8H264.068V120.48L259.908 130H257.092ZM269.596 130.192C268.657 130.192 267.836 130.053 267.132 129.776C266.428 129.488 265.879 129.088 265.484 128.576C265.089 128.053 264.892 127.445 264.892 126.752C264.892 126.059 265.084 125.472 265.468 124.992C265.863 124.501 266.412 124.133 267.116 123.888C267.82 123.632 268.647 123.504 269.596 123.504C270.556 123.504 271.388 123.632 272.092 123.888C272.807 124.133 273.356 124.501 273.74 124.992C274.135 125.472 274.332 126.059 274.332 126.752C274.332 127.445 274.135 128.053 273.74 128.576C273.345 129.088 272.791 129.488 272.076 129.776C271.372 130.053 270.545 130.192 269.596 130.192ZM269.596 128.288C270.247 128.288 270.759 128.144 271.132 127.856C271.516 127.568 271.708 127.173 271.708 126.672C271.708 126.171 271.516 125.781 271.132 125.504C270.759 125.216 270.247 125.072 269.596 125.072C268.956 125.072 268.449 125.216 268.076 125.504C267.703 125.781 267.516 126.171 267.516 126.672C267.516 127.173 267.703 127.568 268.076 127.856C268.449 128.144 268.956 128.288 269.596 128.288ZM269.596 124.816C268.732 124.816 267.975 124.699 267.324 124.464C266.684 124.229 266.183 123.888 265.82 123.44C265.468 122.981 265.292 122.437 265.292 121.808C265.292 121.147 265.473 120.581 265.836 120.112C266.199 119.632 266.705 119.264 267.356 119.008C268.007 118.741 268.753 118.608 269.596 118.608C270.46 118.608 271.212 118.741 271.852 119.008C272.503 119.264 273.009 119.632 273.372 120.112C273.745 120.581 273.932 121.147 273.932 121.808C273.932 122.437 273.751 122.981 273.388 123.44C273.036 123.888 272.535 124.229 271.884 124.464C271.233 124.699 270.471 124.816 269.596 124.816ZM269.596 123.296C270.14 123.296 270.567 123.173 270.876 122.928C271.196 122.683 271.356 122.347 271.356 121.92C271.356 121.472 271.191 121.125 270.86 120.88C270.54 120.635 270.119 120.512 269.596 120.512C269.084 120.512 268.668 120.635 268.348 120.88C268.028 121.125 267.868 121.472 267.868 121.92C267.868 122.347 268.023 122.683 268.332 122.928C268.641 123.173 269.063 123.296 269.596 123.296ZM286.498 127.952L285.954 128.528V121.392H288.45V128.528L287.874 127.952H291.842L291.282 128.528V121.392H293.762V130H280.626V121.392H283.106V128.528L282.546 127.952H286.498ZM297.997 130V122.864L298.557 123.44H295.085V121.392H303.389V123.44H299.917L300.477 122.864V130H297.997ZM307.523 131.6L312.803 116.528H315.027L309.747 131.6H307.523ZM320.048 130V121.392H322.656L325.904 127.28H324.864L328.336 121.392H330.672L330.704 130H328.448V123.952L328.832 124.208L325.872 129.168H324.816L321.84 124.032L322.304 123.92V130H320.048ZM333.095 130V121.392H335.575V126.512L339.767 121.392H342.055V130H339.575V124.88L335.399 130H333.095ZM344.454 130V121.392H346.934V124.752H350.678V121.392H353.174V130H350.678V126.784H346.934V130H344.454Z" fill="#141414"></path></g><defs><filter id="filter0_d_50974_125421" x="12.332" y="73" width="118" height="118" filterUnits="userSpaceOnUse" color-interpolation-filters="sRGB"><feFlood flood-opacity="0" result="BackgroundImageFix"></feFlood><feColorMatrix in="SourceAlpha" type="matrix" values="0 0 0 0 0 0 0 0 0 0 0 0 0 0 0 0 0 0 127 0" result="hardAlpha"></feColorMatrix><feOffset dy="4"></feOffset><feGaussianBlur stdDeviation="12"></feGaussianBlur><feComposite in2="hardAlpha" operator="out"></feComposite><feColorMatrix type="matrix" values="0 0 0 0 0 0 0 0 0 0 0 0 0 0 0 0 0 0 0.1 0"></feColorMatrix><feBlend mode="normal" in2="BackgroundImageFix" result="effect1_dropShadow_50974_125421"></feBlend><feBlend mode="normal" in="SourceGraphic" in2="effect1_dropShadow_50974_125421" result="shape"></feBlend></filter><clipPath id="clip0_50974_125421"><rect width="392.333" height="200" fill="white" transform="translate(0.332031)"></rect></clipPath><clipPath id="clip1_50974_125421"><rect x="-3.66797" y="2" width="212" height="332" fill="white"></rect></clipPath><clipPath id="clip2_50974_125421"><rect x="207.332" y="88" width="212" height="332" fill="white"></rect></clipPath><clipPath id="clip3_50974_125421"><rect x="36.332" y="93" width="70" height="70" rx="35" fill="white"></rect></clipPath><clipPath id="clip4_50974_125421"><rect width="29.666" height="29.666" fill="white" transform="translate(56.5 113.167)"></rect></clipPath></defs></svg> 