<?xml version="1.0" encoding="UTF-8"?> <svg xmlns="http://www.w3.org/2000/svg" width="393" height="238" viewBox="0 0 393 238" fill="none"><g clip-path="url(#clip0_50974_125427)"><rect x="366.668" y="212" width="2" height="2" fill="white"></rect><path d="M369.287 7.11734C342.12 7.11735 315.22 12.4682 290.121 22.8643C265.023 33.2604 242.218 48.4982 223.008 67.7078C203.799 86.9173 188.561 109.722 178.165 134.821C167.769 159.919 162.418 186.82 162.418 213.986" stroke="white"></path><path d="M369.287 57.3505C348.717 57.3505 328.349 61.402 309.345 69.2737C290.341 77.1454 273.074 88.6831 258.529 103.228C243.984 117.773 232.446 135.04 224.574 154.044C216.703 173.048 212.651 193.416 212.651 213.986" stroke="white"></path><path d="M369.287 111.237C355.794 111.237 342.433 113.895 329.967 119.059C317.501 124.222 306.174 131.791 296.632 141.332C287.091 150.873 279.523 162.2 274.359 174.666C269.196 187.132 266.538 200.493 266.538 213.987" stroke="white"></path><path d="M369.287 157.817C361.911 157.817 354.607 159.27 347.792 162.092C340.977 164.915 334.785 169.053 329.569 174.269C324.353 179.484 320.216 185.676 317.393 192.491C314.57 199.306 313.117 206.61 313.117 213.986" stroke="white"></path></g><defs><clipPath id="clip0_50974_125427"><rect width="392.333" height="238" fill="white" transform="translate(0.667969)"></rect></clipPath></defs></svg> 